<svg width="24" height="24" viewBox="0 0 24 24" fill="none" xmlns="http://www.w3.org/2000/svg">
<path fill-rule="evenodd" clip-rule="evenodd" d="M13 7C13 9.20914 11.2091 11 9 11C6.79086 11 5 9.20914 5 7C5 4.79086 6.79086 3 9 3C11.2091 3 13 4.79086 13 7ZM11 7C11 5.89543 10.1046 5 9 5C7.89543 5 7 5.89543 7 7C7 8.10457 7.89543 9 9 9C10.1046 9 11 8.10457 11 7ZM20 10C20 11.6568 18.6568 13 17 13C15.3432 13 14 11.6569 14 10C14 8.34315 15.3432 7 17 7C18.6568 7 20 8.34315 20 10ZM18 10C18 9.44771 17.5523 9 17 9C16.4477 9 16 9.44771 16 10C16 10.5523 16.4477 11 17 11C17.5523 11 18 10.5523 18 10ZM13.94 15.05C14.8155 14.3706 15.8918 14.0012 17 14C19.7614 14 22 16.2386 22 19C22 19.5523 21.5523 20 21 20C20.4477 20 20 19.5523 20 19C19.9991 18.3263 19.7715 17.6725 19.3538 17.1439C18.3266 15.8439 16.44 15.6228 15.14 16.65C15.7064 17.6756 16.0024 18.8285 16 20V20C16 20.5523 15.5523 21 15 21C14.4477 21 14 20.5523 14 20C14 17.2386 11.7614 15 9 15C6.23858 15 4 17.2386 4 20C4 20.5523 3.55229 21 3 21C2.44771 21 2 20.5523 2 20C2.0025 18.1515 2.73603 16.3791 4.04052 15.0695C6.76881 12.3304 11.201 12.3217 13.94 15.05Z" fill="white"/>
</svg>
