<svg width="40" height="40" viewBox="0 0 40 40" fill="none" xmlns="http://www.w3.org/2000/svg">
<rect x="0.5" y="0.5" width="39" height="39" rx="3.5" stroke="#BDBDBD"/>
<path fill-rule="evenodd" clip-rule="evenodd" d="M27 19.0003H15.14L18.77 14.6403V14.6403C19.1235 14.215 19.0653 13.5838 18.64 13.2303C18.2147 12.8768 17.5835 12.935 17.23 13.3603C17.23 13.3603 17.23 13.3603 17.23 13.3603L12.23 19.3603H12.23C12.1964 19.408 12.1663 19.4582 12.14 19.5103C12.14 19.5603 12.14 19.5903 12.07 19.6403H12.07C12.0247 19.755 12.0009 19.877 12 20.0003L12 20.0003C12.0009 20.1236 12.0247 20.2456 12.07 20.3603C12.07 20.4103 12.07 20.4403 12.14 20.4903V20.4903C12.1663 20.5424 12.1964 20.5926 12.23 20.6403L17.23 26.6403V26.6403C17.4204 26.8688 17.7026 27.0008 18 27.0003V27.0003C18.2337 27.0008 18.4601 26.9194 18.64 26.7703V26.7703C19.0652 26.4178 19.1241 25.7874 18.7716 25.3622C18.7711 25.3616 18.7705 25.3609 18.77 25.3603L15.14 21.0003H27V21.0003C27.5523 21.0003 28 20.5526 28 20.0003C28 19.448 27.5523 19.0003 27 19.0003V19.0003Z" fill="#141414"/>
</svg>
