<svg width="12" height="12" viewBox="0 0 12 12" fill="none" xmlns="http://www.w3.org/2000/svg">
<path fill-rule="evenodd" clip-rule="evenodd" d="M10 0H2C0.895433 0 0 0.895434 0 2V10C0 11.1046 0.895433 12 2 12H10C11.1046 12 12 11.1046 12 10V2C12 0.895433 11.1046 0 10 0ZM10.6667 10C10.6667 10.3682 10.3682 10.6667 10 10.6667H2C1.63181 10.6667 1.33333 10.3682 1.33333 10V2C1.33333 1.63181 1.63181 1.33333 2 1.33333H10C10.3682 1.33333 10.6667 1.63181 10.6667 2V10ZM5.28081 6.92665L7.80081 3.59332H7.79414C8.01873 3.29877 8.43959 3.24206 8.73414 3.46665C9.02869 3.69125 9.0854 4.1121 8.86081 4.40665L5.81414 8.40665C5.68828 8.57015 5.4938 8.66616 5.28747 8.66666C5.08229 8.66776 4.88802 8.57432 4.76081 8.41332L3.14081 6.33999C2.91437 6.04912 2.9666 5.62976 3.25747 5.40332C3.54834 5.17688 3.9677 5.22912 4.19414 5.51999L5.28081 6.92665Z" fill="#3CB2FF"/>
</svg>
