<svg width="12" height="12" viewBox="0 0 12 12" fill="none" xmlns="http://www.w3.org/2000/svg">
<path fill-rule="evenodd" clip-rule="evenodd" d="M11.9937 5.2397C11.6171 2.53032 9.47402 0.408036 6.76109 0.0579811C4.66867 -0.212009 2.63651 0.623764 1.33373 2.17873L1.33333 1.33146L1.32885 1.25372C1.29034 0.922158 1.00856 0.664798 0.666667 0.664798C0.298477 0.664798 0 0.963275 0 1.33146V3.99813L0.00448521 4.07588C0.0429953 4.40744 0.324776 4.6648 0.666667 4.6648H3.33333L3.41108 4.66031C3.74264 4.6218 4 4.34002 4 3.99813L3.99552 3.92038C3.95701 3.58882 3.67522 3.33146 3.33333 3.33146L2.1267 3.33182C3.12303 1.9298 4.8294 1.15312 6.59047 1.38035C8.70714 1.65347 10.3792 3.30932 10.673 5.42323C10.7237 5.78792 11.0604 6.04247 11.4251 5.99179C11.7898 5.9411 12.0443 5.60438 11.9937 5.2397ZM5.40962 10.6166C3.29294 10.3434 1.62084 8.68759 1.32707 6.57368C1.27639 6.209 0.939668 5.95444 0.574983 6.00513C0.210298 6.05581 -0.0442531 6.39253 0.00642769 6.75721C0.382953 9.46659 2.52606 11.5889 5.23899 11.9389C7.33171 12.209 9.36416 11.3729 10.6669 9.8175L10.6667 10.6654L10.6712 10.7432C10.7097 11.0748 10.9915 11.3321 11.3334 11.3321C11.7016 11.3321 12.0001 11.0336 12.0001 10.6654V7.99878L11.9956 7.92103C11.9571 7.58947 11.6753 7.33211 11.3334 7.33211H8.66675L8.589 7.3366C8.25744 7.37511 8.00008 7.65689 8.00008 7.99878L8.00457 8.07653C8.04308 8.40809 8.32486 8.66545 8.66675 8.66545L9.8729 8.66577C8.8765 10.0674 7.1704 10.8438 5.40962 10.6166Z" fill="#213F7D"/>
</svg>
