<svg width="100" height="101" viewBox="0 0 100 101" fill="none" xmlns="http://www.w3.org/2000/svg">
<path fill-rule="evenodd" clip-rule="evenodd" d="M50.0002 8.83398C26.9883 8.83399 8.3335 27.4888 8.3335 50.5006C8.3335 73.5125 26.9883 92.1673 50.0002 92.1673C73.012 92.1673 91.6668 73.5125 91.6668 50.5006C91.6668 27.4888 73.012 8.83399 50.0002 8.83399V8.83398ZM67.9219 40.5421L48.8802 65.5421C48.0936 66.564 46.8781 67.164 45.5885 67.1671C44.3061 67.174 43.0919 66.59 42.2969 65.5838L32.1302 52.6255C30.715 50.8075 31.0414 48.1865 32.8594 46.7713C34.6773 45.3561 37.2983 45.6825 38.7135 47.5005L45.5052 56.1671L61.2552 35.3338C62.6589 33.4928 65.2892 33.1384 67.1302 34.5421C68.9711 35.9458 69.3256 38.5762 67.9219 40.4171V40.5421Z" fill="#18A957"/>
</svg>
