<svg width="40" height="40" viewBox="0 0 40 40" fill="none" xmlns="http://www.w3.org/2000/svg">
<circle cx="20" cy="20" r="20" fill="#D8F0FF"/>
<path fill-rule="evenodd" clip-rule="evenodd" d="M20.6667 16.6667C20.6667 18.1394 19.4728 19.3333 18 19.3333C16.5272 19.3333 15.3333 18.1394 15.3333 16.6667C15.3333 15.1939 16.5272 14 18 14C19.4728 14 20.6667 15.1939 20.6667 16.6667ZM19.3333 16.6667C19.3333 15.9303 18.7364 15.3333 18 15.3333C17.2636 15.3333 16.6667 15.9303 16.6667 16.6667C16.6667 17.403 17.2636 18 18 18C18.7364 18 19.3333 17.403 19.3333 16.6667ZM25.3333 18.6663C25.3333 19.7709 24.4379 20.6663 23.3333 20.6663C22.2288 20.6663 21.3333 19.7709 21.3333 18.6663C21.3333 17.5618 22.2288 16.6663 23.3333 16.6663C24.4379 16.6663 25.3333 17.5618 25.3333 18.6663ZM24 18.6663C24 18.2982 23.7015 17.9997 23.3333 17.9997C22.9651 17.9997 22.6667 18.2982 22.6667 18.6663C22.6667 19.0345 22.9651 19.333 23.3333 19.333C23.7015 19.333 24 19.0345 24 18.6663ZM21.2933 22.0335C21.877 21.5806 22.5946 21.3344 23.3333 21.3335C25.1743 21.3335 26.6667 22.8259 26.6667 24.6669C26.6667 25.0351 26.3682 25.3335 26 25.3335C25.6318 25.3335 25.3333 25.0351 25.3333 24.6669C25.3328 24.2177 25.181 23.7819 24.9026 23.4295C24.2177 22.5628 22.96 22.4154 22.0934 23.1002C22.471 23.7839 22.6683 24.5525 22.6667 25.3336V25.3335C22.6667 25.7017 22.3682 26.0002 22 26.0002C21.6318 26.0002 21.3333 25.7017 21.3333 25.3335C21.3333 23.4926 19.8409 22.0002 18 22.0002C16.1591 22.0002 14.6667 23.4926 14.6667 25.3335C14.6667 25.7017 14.3682 26.0002 14 26.0002C13.6318 26.0002 13.3333 25.7017 13.3333 25.3335C13.335 24.1012 13.824 22.9196 14.6937 22.0465C16.5125 20.2205 19.4673 20.2147 21.2933 22.0335Z" fill="#3CB2FF"/>
</svg>
