<svg width="40" height="40" viewBox="0 0 40 40" fill="none" xmlns="http://www.w3.org/2000/svg">
<circle cx="20" cy="20" r="20" fill="#8236CC"/>
<path fill-rule="evenodd" clip-rule="evenodd" d="M20 19.3333C21.4728 19.3333 22.6667 18.1394 22.6667 16.6667C22.6667 15.1939 21.4728 14 20 14C18.5272 14 17.3333 15.1939 17.3333 16.6667C17.3333 18.1394 18.5272 19.3333 20 19.3333ZM20 15.3333C20.7364 15.3333 21.3333 15.9303 21.3333 16.6667C21.3333 17.403 20.7364 18 20 18C19.2636 18 18.6667 17.403 18.6667 16.6667C18.6667 15.9303 19.2636 15.3333 20 15.3333ZM15.3333 25.3333C15.3333 22.756 17.4227 20.6667 20 20.6667C22.5773 20.6667 24.6667 22.756 24.6667 25.3333C24.6667 25.7015 24.3682 26 24 26C23.6318 26 23.3333 25.7015 23.3333 25.3333C23.3333 23.4924 21.8409 22 20 22C18.159 22 16.6667 23.4924 16.6667 25.3333C16.6667 25.7015 16.3682 26 16 26C15.6318 26 15.3333 25.7015 15.3333 25.3333Z" fill="white"/>
</svg>
