<svg width="28" height="27" viewBox="0 0 28 27" fill="none" xmlns="http://www.w3.org/2000/svg">
<path fill-rule="evenodd" clip-rule="evenodd" d="M2.92511 13.4792C2.92511 19.5925 7.87558 24.5541 14 24.5541C20.1133 24.5541 25.0749 19.5925 25.0749 13.4792C25.0749 7.35477 20.1133 2.4043 14 2.4043C7.87558 2.4043 2.92511 7.35477 2.92511 13.4792ZM5.14009 13.4792C5.14009 8.58408 9.10489 4.61927 14 4.61927C18.884 4.61927 22.8599 8.58408 22.8599 13.4792C22.8599 18.3632 18.884 22.3391 14 22.3391C9.10489 22.3391 5.14009 18.3632 5.14009 13.4792ZM8.78321 14.2651C8.98256 14.4644 9.2705 14.5863 9.56953 14.5863L9.55845 14.5752C9.8464 14.5752 10.1343 14.4534 10.3448 14.254L12.8925 11.7063V17.9088C12.8925 18.5179 13.3798 19.0163 14 19.0163C14.6091 19.0163 15.1075 18.5179 15.1075 17.9088V11.7295L17.644 14.2661C17.8434 14.4654 18.1313 14.5872 18.4303 14.5872L18.4182 14.5762C18.7061 14.5762 18.994 14.4543 19.2045 14.255H19.2155C19.6475 13.8231 19.6475 13.1143 19.2155 12.6934L14.8048 8.28272C14.795 8.27214 14.785 8.26171 14.7747 8.25143C14.3317 7.80843 13.634 7.80843 13.2021 8.25143L8.77214 12.6814V12.6925C8.34022 13.1244 8.34021 13.8332 8.78321 14.2651Z" fill="#213F7D"/>
</svg>
