<svg width="70" height="70" viewBox="0 0 70 70" fill="none" xmlns="http://www.w3.org/2000/svg">
<circle cx="35" cy="35" r="35" fill="#FFF1D7"/>
<path fill-rule="evenodd" clip-rule="evenodd" d="M22.592 28.3274L34.662 34.8866C34.8745 34.9999 35.1295 34.9999 35.342 34.8866L47.412 28.3274C47.7207 28.175 47.8473 27.8012 47.6949 27.4925C47.6225 27.346 47.4955 27.2337 47.3412 27.1799L35.2712 22.2499C35.0987 22.1791 34.9053 22.1791 34.7328 22.2499L22.6628 27.1799C22.3378 27.2932 22.1661 27.6486 22.2794 27.9737C22.3332 28.128 22.4455 28.255 22.592 28.3274ZM47.3412 33.1015L44.7487 31.9965L35.342 37.1107C35.1295 37.224 34.8745 37.224 34.662 37.1107L25.2553 31.9965L22.6628 33.1015C22.3303 33.2761 22.2023 33.6871 22.3768 34.0196C22.4409 34.1418 22.5407 34.2415 22.6628 34.3057L34.7328 41.2473C34.9415 41.375 35.2041 41.375 35.4128 41.2473L47.4828 34.3057C47.7955 34.0976 47.8803 33.6755 47.6722 33.3628C47.5923 33.2428 47.4764 33.1513 47.3412 33.1015ZM45.1312 38.4282L47.3412 39.3916C47.4814 39.4429 47.6013 39.5381 47.6831 39.663C47.8932 39.9837 47.8035 40.414 47.4828 40.6241L35.4128 47.7074C35.2003 47.8207 34.9453 47.8207 34.7328 47.7074L22.6628 40.6241C22.5357 40.5581 22.432 40.4545 22.3661 40.3273C22.1896 39.987 22.3225 39.568 22.6628 39.3916L24.8728 38.4282L34.662 43.7549C34.8745 43.8682 35.1295 43.8682 35.342 43.7549L45.1312 38.4282Z" fill="#FFBB38"/>
</svg>
