<svg width="70" height="70" viewBox="0 0 70 70" fill="none" xmlns="http://www.w3.org/2000/svg">
<circle cx="35" cy="35" r="35" fill="#9A5CD6"/>
<path fill-rule="evenodd" clip-rule="evenodd" d="M48.4159 34.4045L39.3209 25.3236C39.0892 25.0906 38.7837 24.9454 38.4567 24.9128L25.2109 23.6661V23.6661C24.7908 23.6275 24.3753 23.7781 24.0776 24.077C23.7787 24.3747 23.6281 24.7902 23.6667 25.2103L24.9134 38.4561V38.4561C24.946 38.7831 25.0912 39.0886 25.3242 39.3203L34.4051 48.4153C34.8921 48.8957 35.5485 49.1653 36.2326 49.1661C36.9124 49.1647 37.5641 48.8948 38.0459 48.4153L48.4159 38.0453C49.4191 37.039 49.4191 35.4107 48.4159 34.4044V34.4045ZM34.3782 34.4041C33.5488 35.2344 32.2033 35.2353 31.373 34.4059C30.5426 33.5766 30.5417 32.2311 31.3711 31.4007C32.2004 30.5703 33.5459 30.5695 34.3763 31.3988C34.3769 31.3995 34.3775 31.4001 34.3782 31.4007C35.1957 32.2239 35.1957 33.5526 34.3782 34.3757V34.4041Z" fill="white"/>
</svg>
