<svg width="16" height="16" viewBox="0 0 16 16" fill="none" xmlns="http://www.w3.org/2000/svg">
<path fill-rule="evenodd" clip-rule="evenodd" d="M8.00004 1.3335C4.31814 1.3335 1.33337 4.31826 1.33337 8.00016C1.33337 11.6821 4.31814 14.6668 8.00004 14.6668C11.6819 14.6668 14.6667 11.6821 14.6667 8.00016C14.6667 4.31826 11.6819 1.3335 8.00004 1.3335ZM8.00004 13.3335C5.05452 13.3335 2.66671 10.9457 2.66671 8.00016C2.66671 5.05464 5.05452 2.66683 8.00004 2.66683C10.9456 2.66683 13.3334 5.05464 13.3334 8.00016C13.3334 10.9457 10.9456 13.3335 8.00004 13.3335ZM11.3334 7.94016V8.00016C11.3332 8.08953 11.3151 8.17795 11.28 8.26016C11.2475 8.33962 11.2 8.41206 11.14 8.4735L9.14004 10.4735L9.13617 10.4774C8.87476 10.7366 8.45265 10.7349 8.19337 10.4735L8.18951 10.4696C7.93023 10.2082 7.93196 9.78611 8.19337 9.52683L9.06004 8.66683H5.33337C4.96518 8.66683 4.66671 8.36835 4.66671 8.00016C4.66671 7.63197 4.96518 7.3335 5.33337 7.3335H9.10671L8.28671 6.46016C8.03266 6.19322 8.0431 5.77088 8.31004 5.51683C8.57698 5.26278 8.99932 5.27323 9.25337 5.54016L11.16 7.54016C11.1823 7.56742 11.2024 7.5964 11.22 7.62683C11.2508 7.66506 11.2755 7.70777 11.2934 7.7535C11.3168 7.81312 11.3303 7.87617 11.3334 7.94016Z" fill="#8236CC"/>
</svg>
