<svg width="70" height="70" viewBox="0 0 70 70" fill="none" xmlns="http://www.w3.org/2000/svg">
<circle cx="35" cy="35" r="35" fill="#2F59B2"/>
<path fill-rule="evenodd" clip-rule="evenodd" d="M49.011 32.6197L47.8918 29.0497C47.3948 27.3527 45.6163 26.38 43.9193 26.877C43.8833 26.8875 43.8474 26.8987 43.8118 26.9105L43.3301 27.0664C42.5643 27.3195 41.723 27.182 41.0776 26.698L40.9218 26.5847C40.2926 26.1031 39.9297 25.3511 39.9443 24.5589V24.1622V24.1622C39.9512 23.2725 39.6047 22.4165 38.981 21.7822C38.3817 21.1769 37.566 20.8353 36.7143 20.833H33.1018C31.2977 20.8563 29.8497 22.3296 29.8576 24.1338V24.4738V24.4738C29.8549 25.3068 29.4745 26.0935 28.8234 26.613L28.6393 26.7547C27.9183 27.3001 26.9744 27.4539 26.1176 27.1655C25.3344 26.8945 24.4744 26.9559 23.7376 27.3355C22.9703 27.7163 22.3956 28.3988 22.1509 29.2197L20.9893 32.903C20.4286 34.6313 21.3637 36.4889 23.0859 37.068H23.3126C24.0868 37.3582 24.6763 38.0002 24.8993 38.7964L24.9843 39.023C25.3046 39.9028 25.1834 40.8828 24.6584 41.658C23.5681 43.1429 23.8779 45.229 25.3526 46.333L28.2851 48.5572C28.8404 48.9609 29.5111 49.1745 30.1976 49.1663C30.3813 49.1844 30.5664 49.1844 30.7501 49.1664C31.6093 49 32.3624 48.4878 32.8326 47.7497L33.1585 47.2822C33.622 46.6173 34.374 46.2123 35.1843 46.1914C36.0354 46.1704 36.8377 46.5876 37.3093 47.2964L37.4793 47.5372C38.4568 48.9919 40.4284 49.3787 41.8831 48.4013C41.9369 48.3651 41.9895 48.3274 42.041 48.288L44.9168 46.1347C46.3285 45.0383 46.6393 43.0308 45.6251 41.5589L45.2568 41.0205C44.8086 40.328 44.6845 39.4745 44.9168 38.683C45.1544 37.833 45.7956 37.1547 46.631 36.8697L46.9143 36.7705C48.6186 36.1791 49.5464 34.3424 49.011 32.6197ZM35.0001 39.958C32.2617 39.958 30.0417 37.7381 30.0417 34.9997C30.0417 32.2613 32.2617 30.0413 35.0001 30.0413C37.7385 30.0413 39.9584 32.2613 39.9584 34.9997C39.9584 37.7381 37.7385 39.958 35.0001 39.958ZM36.5028 36.5024C37.3327 35.6726 37.3327 34.3271 36.5028 33.4972C35.6729 32.6674 34.3275 32.6674 33.4976 33.4972C32.6677 34.3271 32.6677 35.6726 33.4976 36.5024C34.3275 37.3323 35.6729 37.3323 36.5028 36.5024Z" fill="white"/>
</svg>
