<svg width="14" height="14" viewBox="0 0 14 14" fill="none" xmlns="http://www.w3.org/2000/svg">
<path fill-rule="evenodd" clip-rule="evenodd" d="M7.00004 0.333496C3.31814 0.333496 0.333374 3.31826 0.333374 7.00016C0.333374 10.6821 3.31814 13.6668 7.00004 13.6668C10.6819 13.6668 13.6667 10.6821 13.6667 7.00016C13.6667 3.31826 10.6819 0.333496 7.00004 0.333496ZM7.00004 12.3335C4.05452 12.3335 1.66671 9.94568 1.66671 7.00016C1.66671 4.05464 4.05452 1.66683 7.00004 1.66683C9.94556 1.66683 12.3334 4.05464 12.3334 7.00016C12.3334 9.94568 9.94556 12.3335 7.00004 12.3335ZM10.3334 6.94016V7.00016C10.3332 7.08953 10.3151 7.17795 10.28 7.26016C10.2475 7.33962 10.2 7.41206 10.14 7.4735L8.14004 9.4735L8.13617 9.47736C7.87476 9.73664 7.45265 9.73491 7.19337 9.4735L7.18951 9.46963C6.93023 9.20822 6.93196 8.78611 7.19337 8.52683L8.06004 7.66683H4.33337C3.96518 7.66683 3.66671 7.36835 3.66671 7.00016C3.66671 6.63197 3.96518 6.3335 4.33337 6.3335H8.10671L7.28671 5.46016C7.03266 5.19322 7.0431 4.77088 7.31004 4.51683C7.57698 4.26278 7.99932 4.27323 8.25337 4.54016L10.16 6.54016C10.1823 6.56742 10.2024 6.5964 10.22 6.62683C10.2508 6.66506 10.2755 6.70777 10.2934 6.7535C10.3168 6.81312 10.3303 6.87617 10.3334 6.94016Z" fill="#77C9FF"/>
</svg>
