<svg width="303" height="266" viewBox="0 0 303 266" fill="none" xmlns="http://www.w3.org/2000/svg">
<path d="M118.05 256.867C118.266 257.559 117.617 258.373 117.697 258.905C117.846 259.876 117.212 260.177 116.55 259.454C116.186 259.057 115.146 259.051 114.741 258.447C114.412 257.959 114.777 256.983 114.446 256.39C114.148 255.857 113.122 255.667 112.838 255.069C112.551 254.473 113.047 253.554 112.821 252.989C112.567 252.357 111.577 252.026 111.403 251.464C111.191 250.772 111.839 249.958 111.756 249.426C111.61 248.457 112.245 248.154 112.907 248.877C113.271 249.277 114.308 249.282 114.713 249.883C115.041 250.372 114.677 251.351 115.011 251.944C115.309 252.476 116.332 252.666 116.619 253.262C116.903 253.858 116.407 254.776 116.635 255.342C116.886 255.973 117.877 256.304 118.05 256.867Z" fill="#DDF6F6"/>
<path d="M187.132 176.94C188.76 176.639 189.303 177.693 188.117 178.846C187.463 179.48 187.51 181.234 186.515 181.948C185.709 182.528 184.041 181.965 183.056 182.555C182.176 183.085 181.906 184.825 180.916 185.338C179.923 185.848 178.351 185.059 177.407 185.473C176.357 185.934 175.849 187.619 174.911 187.942C173.753 188.339 172.349 187.285 171.453 187.451C169.825 187.751 169.282 186.698 170.468 185.545C171.122 184.908 171.078 183.156 172.07 182.442C172.876 181.863 174.544 182.425 175.529 181.835C176.412 181.303 176.679 179.565 177.669 179.052C178.662 178.542 180.234 179.328 181.178 178.917C182.228 178.457 182.736 176.771 183.676 176.449C184.835 176.052 186.236 177.102 187.132 176.94Z" fill="#79DDDD"/>
<path d="M177.22 209.133C179.592 209.215 180.027 210.862 178.009 212.111C176.894 212.801 176.414 215.272 174.798 215.967C173.488 216.53 171.323 215.222 169.759 215.746C168.358 216.215 167.442 218.571 165.892 218.982C164.342 219.393 162.381 217.798 160.933 218.085C159.314 218.405 158.081 220.612 156.664 220.774C154.915 220.97 153.274 219.062 151.964 219.015C149.592 218.929 149.156 217.283 151.175 216.033C152.289 215.344 152.769 212.872 154.386 212.177C155.696 211.615 157.861 212.925 159.425 212.398C160.826 211.929 161.741 209.574 163.291 209.163C164.841 208.752 166.802 210.346 168.25 210.059C169.869 209.742 171.102 207.533 172.52 207.373C174.269 207.174 175.91 209.086 177.22 209.133Z" fill="#9AE5E5"/>
<path d="M146.718 240.228C147.965 241.312 147.479 242.393 145.838 242.186C144.936 242.071 143.593 243.199 142.416 242.868C141.458 242.597 140.86 240.942 139.784 240.54C138.819 240.181 137.294 241.056 136.273 240.6C135.256 240.145 134.891 238.422 133.981 237.942C132.966 237.407 131.331 238.063 130.495 237.528C129.461 236.869 129.411 235.117 128.722 234.519C127.475 233.435 127.96 232.351 129.601 232.561C130.503 232.677 131.847 231.548 133.024 231.879C133.981 232.15 134.58 233.805 135.655 234.204C136.621 234.563 138.146 233.689 139.166 234.147C140.184 234.602 140.548 236.323 141.458 236.803C142.473 237.34 144.109 236.684 144.945 237.219C145.979 237.875 146.029 239.63 146.718 240.228Z" fill="#9AE5E5"/>
<path d="M137.975 185.381C139.467 184.669 140.267 185.543 139.423 186.964C138.957 187.75 139.459 189.43 138.687 190.378C138.061 191.148 136.301 191.04 135.507 191.868C134.795 192.61 134.991 194.358 134.166 195.111C133.344 195.867 131.62 195.517 130.818 196.159C129.922 196.879 129.875 198.639 129.05 199.196C128.038 199.883 126.408 199.232 125.586 199.626C124.094 200.34 123.294 199.463 124.138 198.043C124.601 197.257 124.099 195.577 124.874 194.629C125.5 193.859 127.257 193.967 128.054 193.139C128.766 192.397 128.57 190.649 129.392 189.896C130.217 189.143 131.94 189.49 132.743 188.848C133.639 188.128 133.686 186.368 134.508 185.811C135.523 185.127 137.153 185.775 137.975 185.381Z" fill="white"/>
<path d="M87.8083 139.388C89.3915 138.916 90.0451 139.906 88.9888 141.178C88.4068 141.881 88.6385 143.618 87.7256 144.435C86.9864 145.097 85.2681 144.713 84.3525 145.406C83.5305 146.026 83.4506 147.786 82.5183 148.401C81.5889 149.013 79.9395 148.398 79.0459 148.908C78.0502 149.477 77.7248 151.209 76.8257 151.628C75.7169 152.146 74.2082 151.25 73.3339 151.509C71.7508 151.981 71.0971 150.991 72.1535 149.719C72.7354 149.016 72.5037 147.278 73.4167 146.462C74.1558 145.8 75.8769 146.184 76.7898 145.491C77.6117 144.871 77.6917 143.111 78.6239 142.496C79.5561 141.884 81.2027 142.499 82.0963 141.988C83.0948 141.42 83.4175 139.688 84.3166 139.269C85.4281 138.75 86.934 139.647 87.8083 139.388Z" fill="white"/>
<path d="M112.647 116.823C113.869 116.828 114.117 117.67 113.1 118.343C112.537 118.712 112.327 119.992 111.505 120.373C110.841 120.681 109.707 120.042 108.913 120.334C108.198 120.596 107.763 121.821 106.974 122.055C106.182 122.289 105.151 121.501 104.409 121.669C103.581 121.856 102.98 123.009 102.255 123.114C101.358 123.241 100.487 122.284 99.8139 122.281C98.5921 122.273 98.3439 121.432 99.3616 120.759C99.9243 120.389 100.134 119.109 100.956 118.729C101.62 118.42 102.754 119.06 103.548 118.767C104.263 118.505 104.698 117.281 105.487 117.046C106.279 116.812 107.31 117.601 108.052 117.432C108.88 117.245 109.481 116.092 110.206 115.987C111.103 115.86 111.974 116.817 112.647 116.823Z" fill="#9AE5E5"/>
<path d="M80.8774 97.9002C80.8609 99.2103 82.6895 100.942 82.4082 102.677C82.1792 104.087 79.9149 105.209 79.5177 106.812C79.1619 108.246 80.6595 110.281 80.1741 111.809C79.6887 113.337 77.2919 114.137 76.7569 115.513C76.1556 117.052 77.3581 119.278 76.732 120.561C75.9625 122.141 73.4692 122.502 72.7273 123.581C71.3814 125.536 69.7596 125.02 69.79 122.646C69.8065 121.338 67.9779 119.606 68.2592 117.869C68.4881 116.462 70.7525 115.337 71.1497 113.734C71.5027 112.3 70.0078 110.265 70.4905 108.737C70.9759 107.209 73.3755 106.409 73.9105 105.033C74.509 103.496 73.3065 101.271 73.9326 99.9853C74.7049 98.4049 77.1982 98.0464 77.9401 96.9652C79.2833 95.0097 80.9078 95.5255 80.8774 97.9002Z" fill="#57D4D4"/>
<path d="M43.7065 132.282C43.7396 133.507 42.3192 134.533 42.2089 135.44C42.0103 137.081 40.8436 137.285 40.0962 135.81C39.6825 134.999 37.9973 134.519 37.6111 133.358C37.2967 132.415 38.331 130.991 38.058 129.874C37.8152 128.876 36.2349 128.104 36.0418 127.003C35.846 125.906 37.0678 124.637 36.9547 123.616C36.8278 122.475 35.3688 121.49 35.3412 120.497C35.3054 119.272 36.7286 118.246 36.8361 117.339C37.0347 115.698 38.2014 115.494 38.9488 116.969C39.3625 117.78 41.0505 118.26 41.4366 119.421C41.7483 120.365 40.714 121.788 40.987 122.905C41.2297 123.903 42.8101 124.675 43.0059 125.776C43.199 126.874 41.9799 128.142 42.093 129.163C42.2171 130.305 43.6789 131.289 43.7065 132.282Z" fill="#EEFBFB"/>
<path d="M275.597 53.2633C275.379 53.6522 274.811 54.6506 273.871 56.1703V56.1731C272.823 57.8555 271.328 60.1778 269.339 63.0186C267.913 65.0624 266.234 67.3791 264.292 69.9193C263.321 71.188 262.287 72.5119 261.186 73.8854C259.151 76.4229 256.889 79.1341 254.391 81.9832C252.305 84.3606 250.058 86.8319 247.641 89.3803C241.325 96.0383 233.854 103.209 225.144 110.532C223.812 111.652 222.452 112.777 221.062 113.9C212.261 121.029 202.285 128.247 191.054 135.231C190.282 135.711 189.504 136.19 188.718 136.668C187.733 137.269 186.74 137.865 185.736 138.46C183.078 140.041 180.35 141.605 177.556 143.152H177.553C174.856 144.644 172.098 146.12 169.273 147.573C167.759 148.354 166.295 149.228 164.894 150.196C163.881 148.927 162.712 147.212 161.454 145.207C160.608 143.858 159.719 142.38 158.809 140.816C156.675 137.145 154.427 133.01 152.328 129.03C151.222 126.929 150.157 124.871 149.175 122.949C147.862 120.387 146.699 118.067 145.769 116.2C147.736 115.386 149.639 114.426 151.465 113.331C152.317 112.824 153.15 112.283 153.966 111.718C154.391 111.426 154.813 111.125 155.227 110.816C155.673 110.485 156.131 110.135 156.597 109.771C157.662 108.941 158.773 108.028 159.924 107.018C160.406 106.596 160.897 106.155 161.394 105.694C161.868 105.259 162.351 104.806 162.833 104.335C169.985 97.3926 177.948 87.0111 183.555 71.8914C183.558 71.8886 183.558 71.8886 183.555 71.8858C183.558 71.8831 183.558 71.8831 183.558 71.8803C183.657 71.6045 183.759 71.3397 183.858 71.0639V71.0612C184.435 69.4615 184.986 67.8149 185.507 66.1104C185.67 65.5754 185.83 65.0375 185.987 64.4914C188.974 54.1404 190.855 41.8724 190.869 27.376C190.971 27.8945 192.094 28.6033 193.961 29.3976C195.563 30.0789 197.715 30.8236 200.241 31.571C200.252 31.5765 200.263 31.5793 200.274 31.582C202.768 32.3157 205.625 33.0521 208.678 33.7251C212.357 34.5387 215.813 35.151 218.74 35.5344C218.988 35.5675 219.233 35.5978 219.473 35.6281C220.273 35.7274 221.026 35.8074 221.729 35.8653C225.171 36.1632 227.386 36.0115 227.565 35.3413C227.502 35.6833 226.151 42.8543 222.816 53.1144C222.816 53.1171 222.816 53.1171 222.816 53.1171C222.218 54.965 221.556 56.9122 220.822 58.9367C216.26 71.5576 209.053 87.218 198.222 100.639C195.58 103.915 192.72 107.06 189.628 109.991C188.296 111.257 186.92 112.485 185.499 113.665C181.271 116.718 176.718 119.752 171.816 122.739C176.775 120.213 181.326 117.135 185.499 113.665C187.358 112.322 189.156 110.976 190.891 109.63L190.894 109.627C196.054 105.623 200.677 101.61 204.811 97.6546L204.814 97.6518C210.548 92.1715 215.35 86.7988 219.366 81.7074C223.348 76.6573 226.556 71.8913 229.127 67.5584C229.129 67.5557 229.129 67.5529 229.129 67.5529C229.786 66.4497 230.401 65.3768 230.977 64.3315C231.523 63.3441 232.034 62.3843 232.511 61.4548C237.5 51.7574 238.915 45.3862 239 44.9973C238.876 45.7365 241.185 46.9363 244.939 48.2326C246.671 48.8283 248.709 49.4489 250.959 50.0529C252.402 50.439 253.93 50.8196 255.521 51.1865C255.946 51.2858 256.376 51.3823 256.809 51.4788C259.319 52.0332 261.724 52.4938 263.931 52.8523C270.2 53.8756 274.842 54.0769 275.597 53.2633Z" fill="#69C3CA"/>
<path d="M265.001 48.3584C271.499 50.1842 275.926 52.0763 275.7 53.0885C275.7 53.0885 275.667 53.1492 275.6 53.2678L275.598 53.2705C274.842 54.0842 270.2 53.8828 263.931 52.8596L265.001 48.3584Z" fill="white"/>
<path d="M245.741 44.5349L244.939 48.2417C241.152 46.9344 238.838 45.7264 239.003 44.9872C239.166 44.248 241.764 44.1267 245.741 44.5349Z" fill="white"/>
<path d="M220.044 31.5537C224.761 33.0596 227.753 34.4966 227.568 35.335C227.568 35.335 227.568 35.3406 227.565 35.3488C227.35 36.1569 224.179 36.2121 219.473 35.6357L220.044 31.5537Z" fill="white"/>
<path d="M200.799 27.1751L200.275 31.588C194.789 29.969 191.06 28.35 190.869 27.382V27.3792C190.869 27.3295 190.869 27.2799 190.869 27.2303C191.074 26.3063 195.067 26.3477 200.799 27.1751Z" fill="white"/>
<path d="M285.645 21.494L249.514 27.0515L250.121 24.2438L282.355 19.6847C283.946 19.4613 285.129 20.3273 285.645 21.494Z" fill="white"/>
<path d="M238.2 2.83664L202.627 11.8142L202.994 8.72514L234.656 1.15421C236.306 0.759809 237.621 1.62309 238.2 2.83664Z" fill="white"/>
<path d="M285.645 21.4883C286.258 22.859 285.943 24.6435 284.274 25.5399L267.963 35.8855L267.21 39.0545L247.333 37.1569L249.514 27.0458L285.645 21.4883Z" fill="#EA5254"/>
<path d="M238.201 2.83594C238.824 4.12396 238.62 5.80915 237.12 6.80757L221.857 18.6149L220.999 24.7434L201.32 22.7906L202.627 11.8135L238.201 2.83594Z" fill="#EA5254"/>
<path d="M108.188 158.795C107.777 158.621 107.372 158.321 107.021 157.833C106.255 156.765 106.638 155.861 107.17 155.248C107.019 154.826 107.005 154.41 107.093 154.002C107.689 151.216 113.12 148.847 114.066 148.455L114.052 148.496L111.592 154.846L116.145 161.589L120.048 159.471C119.99 159.562 119.212 160.737 117.891 161.942C117.61 162.179 117.32 162.422 117.022 162.673C116.427 163.131 115.754 163.561 115.017 163.9C113.315 164.686 112.568 164.14 112.24 163.489C110.77 163.266 110.317 162.37 110.215 161.589C109.871 161.479 109.49 161.305 109.068 161.046C107.918 160.337 107.91 159.479 108.188 158.795Z" fill="white"/>
<path d="M72.0267 178.737C71.9164 178.737 71.806 178.692 71.7233 178.604C71.5688 178.436 71.5771 178.177 71.7426 178.019C74.0677 175.854 77.4132 173.193 81.6855 170.115C90.401 163.835 101.21 157.099 106.878 153.644C107.074 153.525 107.327 153.586 107.446 153.781C107.565 153.977 107.504 154.231 107.308 154.35C101.651 157.8 90.8644 164.524 82.1709 170.788C77.9262 173.846 74.6082 176.483 72.3108 178.626C72.228 178.701 72.1287 178.737 72.0267 178.737Z" fill="white"/>
<path d="M85.6401 189.12C85.5188 189.12 85.4002 189.068 85.3174 188.966C85.174 188.786 85.2016 188.527 85.3809 188.384C87.0164 187.071 89.1208 185.358 91.81 183.146C100.17 176.267 111.028 167.166 116.757 162.353L117.626 161.622C119.424 160.111 120.499 159.024 121.087 158.378C121.495 157.926 121.663 157.692 121.663 157.689C121.796 157.501 122.052 157.457 122.24 157.587C122.427 157.717 122.471 157.976 122.342 158.161C122.334 158.172 122.152 158.434 121.699 158.933C121.095 159.598 119.992 160.715 118.158 162.254L117.289 162.984C111.558 167.8 100.699 176.902 92.3367 183.783C89.6449 185.995 87.5404 187.711 85.9021 189.026C85.8222 189.09 85.7311 189.12 85.6401 189.12Z" fill="white"/>
<path d="M120.105 159.853C119.948 159.853 119.797 159.762 119.728 159.611C119.634 159.404 119.725 159.158 119.934 159.062C120.191 158.946 120.439 158.811 120.671 158.662C120.823 158.563 120.98 158.452 121.137 158.331C122.563 157.217 123.382 155.534 123.382 153.719C123.382 150.487 120.754 147.859 117.521 147.859C116.421 147.859 115.351 148.165 114.427 148.744C114.234 148.865 113.977 148.807 113.856 148.611C113.734 148.418 113.792 148.162 113.985 148.041C115.042 147.379 116.263 147.028 117.521 147.028C121.209 147.028 124.209 150.029 124.209 153.717C124.209 155.788 123.274 157.705 121.644 158.979C121.468 159.114 121.291 159.241 121.118 159.354C120.85 159.525 120.566 159.68 120.276 159.812C120.221 159.842 120.163 159.853 120.105 159.853Z" fill="white"/>
<path d="M114.051 148.911C113.922 148.911 113.795 148.85 113.712 148.737C113.58 148.549 113.624 148.293 113.811 148.161C113.869 148.119 113.927 148.081 113.991 148.045C114.189 147.929 114.44 147.998 114.556 148.194C114.672 148.392 114.603 148.643 114.407 148.759C114.366 148.784 114.327 148.809 114.289 148.836C114.217 148.886 114.134 148.911 114.051 148.911Z" fill="white"/>
<path d="M275.6 53.6778C275.531 53.6778 275.462 53.6612 275.399 53.6254C275.2 53.5151 275.129 53.2613 275.239 53.0627L275.336 52.8862C275.446 52.6849 275.697 52.6132 275.898 52.7207C276.1 52.8311 276.171 53.082 276.064 53.2834L275.962 53.4654C275.887 53.6006 275.744 53.6778 275.6 53.6778Z" fill="white"/>
<path d="M51.7328 187.5C51.6307 187.5 51.5563 187.489 51.4983 187.48C51.1425 187.428 50.944 187.24 50.8392 187.091C50.2848 186.289 50.5606 184.739 57.6709 179.816C58.2694 179.402 58.9176 178.966 59.6485 178.484C61.0192 177.579 62.0149 176.969 62.0259 176.961C62.2217 176.842 62.4755 176.903 62.5941 177.096C62.7127 177.292 62.652 177.546 62.4589 177.664C62.4479 177.67 61.4633 178.277 60.1035 179.17C59.3782 179.647 58.7355 180.08 58.1425 180.491C50.8833 185.517 51.4901 186.573 51.5204 186.614C51.5259 186.623 51.5425 186.645 51.6197 186.658C52.0334 186.719 53.5697 186.402 58.9314 182.135C60.3242 181.026 61.8522 179.747 63.4739 178.335C63.6449 178.186 63.9069 178.202 64.0586 178.376C64.2076 178.547 64.191 178.809 64.0173 178.961C62.3872 180.381 60.8482 181.666 59.4471 182.783C54.0771 187.058 52.3726 187.5 51.7328 187.5Z" fill="white"/>
<path d="M63.7716 179.042C63.6557 179.042 63.5427 178.995 63.4599 178.902C63.311 178.731 63.3275 178.469 63.4985 178.317C64.1026 177.787 64.4666 177.462 64.4666 177.462C64.6376 177.31 64.8969 177.324 65.0513 177.492C65.2058 177.663 65.192 177.922 65.021 178.077C65.021 178.077 64.6542 178.408 64.0419 178.943C63.9647 179.009 63.8681 179.042 63.7716 179.042Z" fill="white"/>
<path d="M55.9659 191.399C55.737 191.399 55.5412 191.33 55.3702 191.197C55.2102 191.073 55.0089 190.83 54.9703 190.392C54.8269 188.787 57.0499 185.251 59.2839 182.76C61.3332 180.477 63.3686 178.438 63.4541 178.353L63.4762 178.331C63.6362 178.168 63.8982 178.165 64.0609 178.325C64.2236 178.485 64.2264 178.747 64.0664 178.91L64.0388 178.938C63.9561 179.02 61.9344 181.045 59.9017 183.312C57.5684 185.913 55.6901 189.123 55.7977 190.317C55.806 190.397 55.8253 190.499 55.8832 190.544C55.919 190.571 56.7934 191.142 61.6558 185.171C63.9478 182.349 66.0164 179.429 66.2453 179.106C66.3777 178.918 66.6342 178.874 66.8217 179.007C67.0093 179.139 67.0534 179.395 66.921 179.583C66.6921 179.908 64.607 182.849 62.2985 185.692C59.1074 189.609 57.1381 191.399 55.9659 191.399Z" fill="white"/>
<path d="M66.5796 179.758C66.4996 179.758 66.4196 179.736 66.3479 179.689C66.1576 179.562 66.108 179.306 66.2348 179.116C66.2541 179.085 66.2652 179.069 66.2762 179.055L66.2983 179.025C66.4362 178.843 66.6954 178.804 66.8775 178.939C67.0623 179.074 67.0981 179.334 66.963 179.518L66.9216 179.576C66.8444 179.695 66.712 179.758 66.5796 179.758Z" fill="white"/>
<path d="M60.73 193.469C60.57 193.469 60.4293 193.428 60.3025 193.37C60.0597 193.254 59.8832 193.047 59.7922 192.769C59.5798 192.12 59.6129 190.678 62.3434 185.655C63.0688 184.323 64.321 182.125 66.1772 179.21L66.2268 179.13C66.3482 178.937 66.6047 178.879 66.7977 179.003C66.9908 179.124 67.0487 179.381 66.9246 179.574L66.8749 179.654C65.0326 182.55 63.7887 184.731 63.0688 186.053C60.4735 190.827 60.4597 192.159 60.5755 192.512C60.6031 192.598 60.6362 192.614 60.6527 192.622C60.6941 192.642 61.6705 193.011 65.1594 186.797C66.6626 184.116 67.992 181.358 68.4939 180.297L68.596 180.081C68.6925 179.875 68.938 179.786 69.1448 179.88C69.3517 179.977 69.4427 180.222 69.3462 180.429L69.2441 180.65C68.7394 181.72 67.399 184.497 65.882 187.2C62.9805 192.377 61.5712 193.469 60.73 193.469Z" fill="white"/>
<path d="M70.7414 189.146C70.6393 189.146 70.5318 189.13 70.4242 189.099C70.3056 189.066 70.187 189.017 70.0739 188.951C68.3336 187.985 68.2343 183.787 68.4604 180.436C68.4632 180.42 68.4632 180.398 68.466 180.354L68.4687 180.318C68.4687 180.298 68.4715 180.282 68.4742 180.268L68.4853 180.114C68.5018 179.885 68.7004 179.711 68.9266 179.73C69.1555 179.747 69.3265 179.943 69.3099 180.172L69.2934 180.381C69.2934 180.387 69.2934 180.392 69.2934 180.403C69.2906 180.478 69.2879 180.508 69.2879 180.508C69.0065 184.703 69.4644 187.668 70.4876 188.236C70.5456 188.269 70.598 188.291 70.6531 188.305C70.7497 188.333 70.8076 188.322 70.8765 188.267C71.1551 188.049 72.0322 186.75 71.6681 179.25C71.6515 178.933 71.635 178.627 71.6184 178.346C71.6047 178.117 71.7784 177.921 72.0073 177.91C72.2307 177.896 72.4321 178.07 72.4459 178.299C72.4624 178.58 72.479 178.889 72.4955 179.209C72.7713 184.855 72.399 188.12 71.3923 188.917C71.1909 189.069 70.9731 189.146 70.7414 189.146Z" fill="white"/>
<path d="M190.869 27.7908C190.64 27.7908 190.456 27.606 190.456 27.3771V27.2282C190.456 26.9992 190.64 26.8145 190.869 26.8145C191.098 26.8145 191.283 26.9992 191.283 27.2282V27.3771C191.283 27.606 191.098 27.7908 190.869 27.7908Z" fill="white"/>
<path d="M84.5344 197.465C84.4489 197.465 84.3662 197.44 84.2917 197.385C84.1069 197.249 84.0656 196.99 84.2007 196.805C84.7054 196.113 85.0171 195.697 85.0171 195.697C85.155 195.515 85.4143 195.479 85.5963 195.614C85.7783 195.752 85.8142 196.011 85.679 196.193C85.679 196.196 85.3674 196.607 84.8682 197.291C84.7882 197.407 84.6613 197.465 84.5344 197.465Z" fill="white"/>
<path d="M77.7939 210.749C77.6091 210.749 77.4381 210.702 77.2753 210.611C76.3542 210.087 76.7127 208.534 78.4779 205.423C80.2706 202.26 83.0728 198.349 84.1926 196.815C84.3278 196.63 84.587 196.589 84.7718 196.724C84.9566 196.859 84.9952 197.119 84.8628 197.303C83.7486 198.826 80.9684 202.706 79.1977 205.831C77.1457 209.453 77.678 209.888 77.6863 209.894C77.7139 209.91 78.3648 210.236 80.6292 207.271C82.3806 204.979 84.2698 201.818 85.2379 200.136C85.6378 199.438 85.875 199.005 85.875 199.005C85.9854 198.804 86.2363 198.732 86.4377 198.842C86.639 198.953 86.7107 199.204 86.6004 199.405C86.6004 199.405 86.3605 199.843 85.955 200.55C84.9759 202.249 83.0673 205.448 81.2856 207.776C79.7411 209.797 78.6323 210.749 77.7939 210.749Z" fill="white"/>
<path d="M73.5522 206.771C73.2323 206.771 72.9785 206.663 72.78 206.451C72.0739 205.69 72.7469 204.264 74.9561 201.834C76.9998 199.583 79.8986 197.016 81.4431 195.683C82.1023 195.118 82.516 194.773 82.516 194.773C82.6925 194.627 82.9518 194.652 83.0979 194.826C83.2441 195.002 83.2193 195.261 83.0455 195.408C83.0455 195.408 82.6346 195.75 81.9837 196.31C80.4529 197.628 77.5845 200.171 75.5684 202.388C72.9151 205.309 73.3674 205.863 73.3867 205.886C73.406 205.908 73.919 206.393 76.9419 203.886C80.0447 201.315 83.8012 197.231 84.2177 196.773L84.2481 196.74C84.4135 196.583 84.6756 196.588 84.8328 196.754C84.99 196.919 84.9845 197.178 84.819 197.338C84.4025 197.793 80.6129 201.917 77.4687 204.52C75.6428 206.04 74.3797 206.771 73.5522 206.771Z" fill="white"/>
<path d="M71.1773 202.252C70.4961 202.252 70.3002 201.913 70.1927 201.731C69.6631 200.824 70.6947 199.453 73.5382 197.29C75.9819 195.429 79.173 193.448 80.8582 192.436C81.4153 192.1 81.8456 191.849 82.0828 191.711C82.2207 191.628 82.3007 191.584 82.3007 191.584C82.4992 191.474 82.753 191.545 82.8633 191.747C82.9736 191.945 82.9019 192.199 82.7006 192.309C82.6978 192.312 82.6261 192.351 82.502 192.425C82.262 192.563 81.8373 192.814 81.2857 193.145C79.6143 194.149 76.4508 196.11 74.0402 197.95C70.554 200.603 70.8932 201.287 70.9098 201.314C70.9236 201.339 71.2904 201.891 74.2829 200.225C76.779 198.838 79.7963 196.634 81.3739 195.443C81.92 195.026 82.2482 194.77 82.251 194.77C82.4303 194.629 82.6895 194.659 82.833 194.841C82.9764 195.023 82.9433 195.283 82.7612 195.423C82.7612 195.423 82.4275 195.682 81.8731 196.104C80.279 197.31 77.2258 199.538 74.6856 200.95C72.8763 201.954 71.8172 202.252 71.1773 202.252Z" fill="white"/>
<path d="M77.915 192.866C75.4272 192.866 73.9654 192.334 73.5545 191.275C73.4276 190.944 73.4579 190.616 73.6427 190.321C74.004 189.744 75.1045 188.931 80.4441 188.511C82.5375 188.346 84.5951 188.302 85.6349 188.291C86.0182 188.288 86.2361 188.288 86.2389 188.288C86.4678 188.288 86.6526 188.473 86.6526 188.702C86.6526 188.931 86.4678 189.116 86.2389 189.116C86.2389 189.116 86.021 189.115 85.6431 189.118C84.6171 189.129 82.5817 189.173 80.5103 189.336C75.5044 189.731 74.5308 190.464 74.3433 190.762C74.3047 190.823 74.2881 190.881 74.3267 190.977C74.7101 191.965 77.1841 192.285 80.9434 191.832C81.3626 191.783 81.7928 191.722 82.2286 191.656C82.9319 191.545 83.3898 191.454 83.3925 191.452C83.6159 191.405 83.8338 191.551 83.8807 191.774C83.9276 191.998 83.7814 192.216 83.558 192.262C83.5387 192.265 83.0809 192.359 82.3555 192.472C81.9114 192.541 81.4702 192.602 81.0427 192.654C79.865 192.795 78.8224 192.866 77.915 192.866Z" fill="white"/>
<path d="M82.8358 211.646C82.4524 211.646 82.207 211.473 82.0663 211.321C81.6526 210.868 81.5754 210.002 81.8236 208.596C82.0663 207.231 82.9544 205.308 83.8122 203.452C84.2921 202.415 84.7444 201.436 85.0836 200.567C85.1195 200.476 85.1526 200.391 85.1857 200.305L85.227 200.197C85.3098 199.985 85.5497 199.878 85.7621 199.96C85.9745 200.043 86.0821 200.283 85.9993 200.495L85.9579 200.6C85.9248 200.688 85.889 200.779 85.8531 200.868C85.5056 201.759 85.0478 202.749 84.5623 203.797C83.7266 205.606 82.8606 207.476 82.6372 208.736C82.3642 210.278 82.5986 210.675 82.6758 210.758C82.6979 210.783 82.7365 210.824 82.8799 210.813C82.9682 210.805 83.0757 210.761 83.1888 210.686C84.1542 210.055 85.547 207.625 87.1191 203.846C88.5974 200.291 89.8413 196.46 90.4205 194.243C90.4481 194.135 90.4729 194.041 90.5005 193.95C90.5639 193.733 90.7956 193.606 91.0135 193.672C91.2314 193.735 91.3583 193.967 91.2948 194.185C91.27 194.27 91.2479 194.356 91.2231 194.441C90.6329 196.7 89.3724 200.575 87.8803 204.166C86.2006 208.212 84.7747 210.637 83.6439 211.379C83.415 211.533 83.1806 211.621 82.9516 211.641C82.913 211.646 82.8744 211.646 82.8358 211.646Z" fill="white"/>
<path d="M164.894 150.61C164.772 150.61 164.651 150.558 164.571 150.456C159.422 143.999 150.35 126.339 145.4 116.385C145.298 116.181 145.38 115.933 145.587 115.831C145.791 115.729 146.04 115.811 146.142 116.018C150.116 124.008 159.927 143.307 165.219 149.94C165.363 150.119 165.332 150.378 165.153 150.522C165.076 150.58 164.985 150.61 164.894 150.61Z" fill="white"/>
<path d="M227.568 35.7429C227.538 35.7429 227.51 35.7401 227.48 35.7319C227.257 35.6822 227.116 35.4616 227.166 35.2382C227.121 34.9624 225.734 33.7957 219.92 31.9395C219.702 31.8706 219.584 31.6361 219.653 31.421C219.721 31.2031 219.953 31.0817 220.171 31.1535C228.338 33.7626 228.065 35.0092 227.974 35.4174C227.93 35.6105 227.758 35.7429 227.568 35.7429Z" fill="white"/>
<path d="M71.9441 221.662C71.0118 221.662 69.7873 220.854 68.3393 219.9C67.5587 219.384 66.7506 218.852 65.8873 218.369C65.2585 218.016 64.329 217.903 63.3444 217.782C61.9185 217.605 60.305 217.407 59.0666 216.425C58.1675 215.713 57.6931 214.547 57.1884 213.314C56.7333 212.199 56.2644 211.049 55.4728 210.299C54.8054 209.668 53.7711 209.323 52.6734 208.956C51.3798 208.523 50.0449 208.076 49.143 207.097C48.2439 206.121 47.9074 204.75 47.5847 203.426C47.3117 202.304 47.0524 201.242 46.4787 200.527C45.7947 199.672 44.686 199.11 43.6159 198.566C42.4271 197.962 41.3073 197.391 40.6702 196.437C39.7959 195.119 39.7297 193.494 39.6718 192.057C39.6332 191.067 39.5946 190.132 39.2967 189.476C38.8885 188.574 38.4224 187.724 37.9728 186.902C36.8475 184.839 35.9567 183.212 36.9303 182.316C37.9039 181.422 39.4567 182.445 41.4204 183.742C42.201 184.257 43.0063 184.79 43.8696 185.27C44.4984 185.623 45.4279 185.736 46.4125 185.857C47.8385 186.034 49.452 186.232 50.6931 187.214C51.5922 187.926 52.0666 189.092 52.5686 190.325C53.0237 191.439 53.4925 192.59 54.2869 193.343C54.9516 193.971 55.9886 194.319 57.0835 194.686C58.3771 195.119 59.7148 195.566 60.6139 196.545C61.513 197.524 61.8495 198.892 62.1722 200.216C62.4453 201.338 62.7045 202.4 63.2782 203.117C63.9622 203.969 65.0682 204.535 66.1383 205.078C67.3271 205.682 68.4468 206.253 69.0812 207.21C69.9583 208.528 70.0217 210.153 70.0796 211.59C70.1182 212.58 70.1568 213.515 70.4547 214.172C70.8629 215.068 71.3263 215.915 71.7731 216.734C72.9039 218.8 73.7948 220.432 72.8239 221.331C72.5729 221.558 72.275 221.662 71.9441 221.662ZM37.8432 182.801C37.6998 182.801 37.5812 182.837 37.4929 182.92C36.9965 183.378 37.8239 184.895 38.7037 186.5C39.1395 187.297 39.6332 188.199 40.0552 189.128C40.4192 189.931 40.4606 190.946 40.5047 192.019C40.5599 193.409 40.6178 194.848 41.3653 195.974C41.881 196.749 42.907 197.27 43.9965 197.824C45.1466 198.409 46.3353 199.013 47.1296 200.006C47.8164 200.864 48.1088 202.064 48.3928 203.225C48.6907 204.447 48.9996 205.71 49.7553 206.532C50.5111 207.354 51.7467 207.767 52.9382 208.167C54.0717 208.548 55.2412 208.939 56.041 209.695C56.965 210.569 57.4669 211.805 57.9551 212.999C58.4157 214.13 58.8515 215.198 59.5796 215.777C60.636 216.615 62.0646 216.789 63.4464 216.96C64.5138 217.092 65.5205 217.216 66.29 217.647C67.1809 218.143 68.0386 218.709 68.7944 219.211C70.3251 220.22 71.7703 221.174 72.2668 220.716C72.7632 220.259 71.9303 218.736 71.0505 217.125C70.6174 216.331 70.1237 215.432 69.7045 214.508C69.3405 213.703 69.2991 212.69 69.2577 211.618C69.2025 210.227 69.1446 208.788 68.3972 207.662C67.8842 206.887 66.8554 206.363 65.7687 205.812C64.6186 205.227 63.4299 204.623 62.6356 203.63C61.9488 202.77 61.6564 201.57 61.3724 200.409C61.0745 199.187 60.7656 197.924 60.0099 197.099C59.2542 196.28 58.0185 195.866 56.827 195.466C55.6935 195.086 54.5213 194.694 53.7242 193.941C52.8003 193.067 52.2955 191.831 51.8074 190.634C51.3468 189.503 50.9137 188.439 50.1828 187.859C49.1237 187.024 47.6978 186.847 46.316 186.676C45.2486 186.544 44.2419 186.42 43.4697 185.989C42.5816 185.493 41.7238 184.928 40.9681 184.428C39.7077 183.593 38.5079 182.801 37.8432 182.801Z" fill="white"/>
<path d="M57.9079 180.568C57.7562 180.568 57.61 180.485 57.5383 180.339C57.4887 180.242 57.439 180.143 57.3866 180.046C57.2791 179.845 57.3591 179.594 57.5604 179.486C57.7617 179.379 58.0127 179.459 58.1203 179.66C58.1727 179.762 58.2278 179.867 58.2775 179.969C58.3795 180.173 58.2968 180.421 58.0927 180.523C58.0348 180.554 57.9713 180.568 57.9079 180.568Z" fill="white"/>
<path d="M62.71 186.262C62.6466 186.262 62.5831 186.249 62.5224 186.218C62.2549 186.083 61.9984 185.94 61.7529 185.785C61.5599 185.664 61.4992 185.41 61.6205 185.214C61.7419 185.018 61.9956 184.961 62.1915 185.082C62.4149 185.22 62.6521 185.355 62.8948 185.476C63.0989 185.578 63.1816 185.829 63.0768 186.031C63.0079 186.18 62.8617 186.262 62.71 186.262Z" fill="white"/>
<path d="M75.273 202.545C75.1351 202.545 75.0027 202.476 74.9255 202.354L74.9228 202.352C74.829 202.217 74.738 202.076 74.658 201.935C74.4484 201.582 74.2581 201.174 74.0981 200.73L74.076 200.667C74.0043 200.449 74.1229 200.217 74.338 200.145C74.5559 200.074 74.7876 200.189 74.8593 200.407L74.8786 200.462C75.0193 200.849 75.1848 201.21 75.3723 201.519C75.4468 201.646 75.5213 201.764 75.604 201.883L75.6454 201.952C75.7474 202.156 75.6647 202.404 75.4606 202.506C75.3999 202.531 75.3365 202.545 75.273 202.545Z" fill="white"/>
<path d="M82.2316 209.088C82.1102 209.088 81.9916 209.036 81.9117 208.937C81.5393 208.479 81.3738 208.319 80.8856 207.889C80.7146 207.737 80.6981 207.475 80.8498 207.304C81.0015 207.133 81.2635 207.116 81.4345 207.268C81.9558 207.729 82.1544 207.924 82.5543 208.415C82.6977 208.592 82.6729 208.854 82.4964 208.997C82.4164 209.058 82.3226 209.088 82.2316 209.088Z" fill="white"/>
<path d="M78.1385 234.985C76.5333 234.985 74.7157 234.411 72.8347 233.816C71.6018 233.427 70.3276 233.024 69.0947 232.781C67.9115 232.55 66.469 232.69 64.9411 232.839C62.4229 233.085 59.5711 233.363 57.2019 231.971C55.4947 230.967 54.4769 229 53.4013 226.918C52.5077 225.188 51.5837 223.398 50.2322 222.196C49.0821 221.17 47.4025 220.574 45.6262 219.94C43.406 219.148 41.1085 218.332 39.6605 216.572C38.2153 214.815 37.8567 212.405 37.5092 210.074C37.2306 208.21 36.9686 206.45 36.1853 205.121C35.2641 203.562 33.6865 202.313 32.1641 201.102C30.3299 199.646 28.5951 198.27 27.9387 196.4C27.0285 193.804 27.8504 191.057 28.5786 188.633C29.0199 187.163 29.4336 185.776 29.4363 184.573C29.4363 183.318 29.2874 181.991 29.144 180.706C28.7744 177.424 28.4241 174.324 30.512 172.606C32.5998 170.887 35.5758 171.828 38.7255 172.824C39.9584 173.212 41.2326 173.615 42.4655 173.858C43.6459 174.09 45.0884 173.949 46.6164 173.8C49.1345 173.554 51.9891 173.276 54.3583 174.669C55.1113 175.11 55.7732 175.761 56.4434 176.715C56.5758 176.903 56.5289 177.159 56.3414 177.292C56.1538 177.424 55.8973 177.377 55.7649 177.19C55.1664 176.335 54.5845 175.761 53.9391 175.38C51.8016 174.125 49.2062 174.376 46.6964 174.622C45.105 174.776 43.6046 174.922 42.3055 174.669C41.0285 174.418 39.7322 174.01 38.4773 173.612C35.5482 172.686 32.7819 171.811 31.0415 173.246C29.3012 174.677 29.6266 177.562 29.9686 180.615C30.1148 181.922 30.2693 183.274 30.2665 184.576C30.2665 185.9 29.8335 187.345 29.3756 188.873C28.653 191.289 27.9028 193.788 28.7247 196.127C29.3012 197.77 30.945 199.075 32.6826 200.457C34.2657 201.714 35.904 203.014 36.9024 204.704C37.7685 206.172 38.0553 208.094 38.3311 209.956C38.6621 212.176 39.0041 214.471 40.3032 216.051C41.605 217.631 43.7921 218.412 45.9076 219.165C47.681 219.796 49.5124 220.45 50.7838 221.581C52.2484 222.885 53.2082 224.742 54.1377 226.54C55.1582 228.512 56.1207 230.376 57.6211 231.259C59.7586 232.517 62.354 232.263 64.8611 232.017C66.4525 231.863 67.9529 231.714 69.2547 231.971C70.5317 232.222 71.8307 232.63 73.0829 233.027C76.012 233.954 78.7756 234.828 80.5187 233.394C82.2618 231.962 81.9363 229.08 81.5916 226.027C81.4426 224.72 81.291 223.368 81.291 222.066C81.291 220.742 81.7267 219.297 82.1846 217.769C82.8438 215.571 83.5278 213.298 83.0175 211.133C82.9651 210.91 83.103 210.689 83.3264 210.637C83.5498 210.584 83.7705 210.722 83.8229 210.946C84.3828 213.323 83.6353 215.814 82.9761 218.009C82.5348 219.479 82.1184 220.867 82.1184 222.069C82.1184 223.324 82.2673 224.653 82.4135 225.936C82.7831 229.218 83.1333 232.318 81.0455 234.036C80.2043 234.726 79.2196 234.985 78.1385 234.985Z" fill="white"/>
<path d="M78.839 206.035C78.7479 206.035 78.6597 206.005 78.5825 205.947L78.497 205.881C77.9343 205.437 77.5951 205.169 77.0324 204.648C76.8642 204.493 76.8531 204.231 77.0103 204.063C77.1648 203.895 77.4268 203.884 77.5951 204.041C78.1356 204.54 78.4473 204.786 79.0127 205.233L79.0982 205.299C79.2775 205.439 79.3078 205.701 79.1672 205.881C79.0817 205.98 78.9603 206.035 78.839 206.035Z" fill="white"/>
<path d="M73.7892 198.036C73.5907 198.036 73.4141 197.892 73.3811 197.688C73.3259 197.352 73.2762 197.012 73.2238 196.67C72.8901 194.456 72.5481 192.166 71.2518 190.589C70.8602 190.117 70.3858 189.701 69.8011 189.317C68.5985 188.529 67.1064 187.996 65.6584 187.48L65.3854 187.384C65.1702 187.307 65.0572 187.07 65.1344 186.854C65.2116 186.639 65.4488 186.526 65.6639 186.603L65.937 186.7C67.4291 187.232 68.9709 187.781 70.2534 188.625C70.9098 189.053 71.4449 189.524 71.8889 190.062C73.3314 191.819 73.6927 194.221 74.0402 196.546C74.0899 196.886 74.1423 197.222 74.1947 197.556C74.2305 197.782 74.0788 197.994 73.8527 198.03C73.8334 198.033 73.8113 198.036 73.7892 198.036Z" fill="white"/>
<path d="M81.0733 193.203C80.8719 193.203 80.6954 193.057 80.6651 192.853C80.6375 192.671 80.6099 192.486 80.5851 192.302C80.5547 192.075 80.7119 191.866 80.9381 191.835C81.1615 191.802 81.3739 191.962 81.4042 192.188C81.429 192.368 81.4566 192.547 81.4842 192.723C81.5201 192.95 81.3628 193.159 81.1394 193.195C81.1146 193.201 81.0926 193.203 81.0733 193.203Z" fill="white"/>
<path d="M80.4773 189.341C80.2815 189.341 80.1077 189.203 80.0719 189.004C79.7381 187.217 79.1727 184.947 77.7661 183.234C76.2795 181.428 73.982 180.394 71.9328 179.619C71.7177 179.539 71.6101 179.299 71.6928 179.086C71.7728 178.871 72.0128 178.764 72.2251 178.846C74.3764 179.657 76.7953 180.752 78.406 182.71C79.934 184.569 80.5352 186.972 80.8883 188.855C80.9296 189.079 80.7835 189.297 80.5573 189.338C80.527 189.338 80.5021 189.341 80.4773 189.341Z" fill="white"/>
<path d="M84.1653 244.893C82.1133 244.893 79.8324 244.322 77.477 243.735C75.7229 243.296 73.9081 242.841 72.1842 242.64C70.5046 242.444 68.5381 242.753 66.4557 243.079C62.9999 243.622 59.0834 244.237 55.7571 242.488C53.33 241.211 51.8103 238.528 50.2024 235.687C48.8923 233.373 47.5353 230.979 45.6433 229.365C44.016 227.978 41.713 227.176 39.2721 226.326C36.1858 225.25 32.992 224.136 30.9951 221.709C28.9983 219.282 28.5211 215.936 28.0605 212.698C27.6965 210.142 27.3517 207.723 26.3064 205.861C25.0873 203.693 23.0022 201.9 20.9833 200.168C18.5065 198.042 16.1677 196.034 15.3816 193.403C14.306 189.804 15.6657 186.077 16.8655 182.79C17.5881 180.809 18.2693 178.942 18.4017 177.254C18.5369 175.525 18.4403 173.658 18.3493 171.851C18.1232 167.458 17.9108 163.307 20.7682 160.957C23.6228 158.607 27.6551 159.616 31.9246 160.684C33.6787 161.122 35.4935 161.577 37.2173 161.779C38.897 161.977 40.8663 161.668 42.9486 161.34C46.4045 160.797 50.321 160.182 53.6445 161.93C56.0716 163.207 57.5913 165.888 59.202 168.726C60.2694 170.607 61.3726 172.555 62.7654 174.077C62.9199 174.245 62.9088 174.507 62.7406 174.662C62.5724 174.816 62.3103 174.805 62.1559 174.637C60.6969 173.043 59.5716 171.057 58.4821 169.135C56.9348 166.404 55.4731 163.825 53.2611 162.664C50.1803 161.042 46.57 161.608 43.0783 162.159C40.938 162.496 38.9163 162.813 37.1236 162.603C35.3474 162.397 33.5077 161.936 31.7288 161.489C27.6689 160.474 23.8324 159.514 21.2977 161.597C18.763 163.682 18.9671 167.629 19.1795 171.81C19.2733 173.641 19.3698 175.536 19.2319 177.32C19.0913 179.119 18.3907 181.041 17.6488 183.074C16.438 186.395 15.1831 189.828 16.1815 193.166C16.8986 195.562 19.1464 197.496 21.5294 199.54C23.6007 201.319 25.7437 203.158 27.0345 205.453C28.1571 207.452 28.5129 209.943 28.888 212.58C29.332 215.705 29.7926 218.932 31.6405 221.179C33.4912 223.427 36.572 224.5 39.5507 225.54C42.066 226.417 44.4408 227.244 46.1866 228.731C48.1917 230.441 49.5846 232.899 50.9305 235.276C52.4778 238.006 53.9396 240.588 56.1516 241.752C59.2323 243.371 62.8454 242.806 66.3371 242.257C68.4774 241.92 70.4963 241.603 72.2918 241.813C74.068 242.019 75.9077 242.48 77.6866 242.927C81.7465 243.942 85.583 244.902 88.1177 242.817C90.6523 240.734 90.4482 236.785 90.2359 232.603C90.1421 230.772 90.0456 228.877 90.1835 227.093C90.3214 225.292 91.0247 223.369 91.7666 221.334C92.9774 218.013 94.2296 214.582 93.2339 211.248C92.5168 208.848 90.2635 206.915 87.875 204.868C87.6653 204.686 87.453 204.507 87.2406 204.325C87.0668 204.176 87.0475 203.914 87.1965 203.74C87.3454 203.566 87.6074 203.547 87.7812 203.696C87.9908 203.878 88.2032 204.057 88.4128 204.239C90.8951 206.369 93.2394 208.376 94.0255 211.01C95.1011 214.607 93.7414 218.333 92.5444 221.618C91.8218 223.598 91.1378 225.468 91.0081 227.156C90.873 228.886 90.9695 230.753 91.0605 232.559C91.2867 236.956 91.4991 241.107 88.6417 243.454C87.3537 244.516 85.834 244.893 84.1653 244.893Z" fill="white"/>
<path d="M81.6659 196.359C81.4811 196.359 81.3129 196.235 81.266 196.047L81.2494 195.984C81.2384 195.948 81.2301 195.909 81.2218 195.871L81.208 195.757C81.208 195.529 81.3928 195.344 81.6218 195.344C81.8258 195.344 81.9969 195.493 82.0299 195.689L82.0713 195.843C82.1265 196.064 81.9913 196.29 81.7707 196.345C81.7321 196.356 81.699 196.359 81.6659 196.359Z" fill="white"/>
<path d="M86.6857 258.356C84.0269 258.356 81.1585 257.711 78.3453 257.073C75.8795 256.516 73.3283 255.943 70.9674 255.81C68.6451 255.681 66.0332 256.213 63.2696 256.781C58.4954 257.757 53.5556 258.77 49.1979 256.607C45.8523 254.95 43.7893 251.292 41.6021 247.423C39.9114 244.43 38.1656 241.336 35.7688 239.198C33.6754 237.334 30.7188 236.164 27.5856 234.929C23.4843 233.31 19.2452 231.636 16.7767 228.213C14.311 224.79 14.0655 220.239 13.831 215.837C13.6518 212.475 13.4808 209.298 12.372 206.722C11.1061 203.771 8.72309 201.134 6.41734 198.583C3.43861 195.284 0.625369 192.17 0.109608 188.472C-0.560605 183.651 1.96304 179.285 4.40394 175.065C5.81607 172.621 7.14822 170.315 7.76052 168.073C8.38384 165.792 8.64586 163.191 8.89684 160.676C9.4264 155.411 9.9725 149.966 13.889 147.147C17.8027 144.326 23.1423 145.531 28.3027 146.698C30.7684 147.255 33.3169 147.831 35.6778 147.961C38.0001 148.093 40.612 147.556 43.3756 146.99C48.1526 146.014 53.0895 145.002 57.4501 147.161C60.7956 148.819 62.8586 152.476 65.043 156.346C66.731 159.338 68.4796 162.435 70.8764 164.57C71.439 165.072 72.0789 165.536 72.8291 165.991C73.0249 166.109 73.0884 166.363 72.9698 166.559C72.8512 166.755 72.5974 166.818 72.4016 166.699C71.6073 166.22 70.9288 165.726 70.3275 165.191C67.8259 162.962 66.047 159.807 64.3232 156.754C62.2022 152.997 60.1999 149.448 57.0832 147.903C52.9792 145.868 48.1802 146.85 43.5411 147.801C40.7223 148.378 38.058 148.921 35.6309 148.788C33.201 148.653 30.6195 148.069 28.1207 147.506C22.9079 146.328 17.9847 145.217 14.3716 147.82C10.7585 150.424 10.2538 155.444 9.71875 160.761C9.46225 163.31 9.19748 165.947 8.5576 168.294C7.91773 170.638 6.558 172.991 5.11828 175.481C2.74909 179.582 0.297158 183.822 0.928758 188.361C1.40866 191.809 4.13916 194.829 7.02963 198.031C9.37951 200.632 11.8094 203.321 13.1305 206.399C14.2944 209.113 14.4709 212.359 14.6557 215.796C14.8846 220.079 15.1246 224.506 17.4469 227.733C19.7719 230.96 23.898 232.587 27.889 234.162C31.0911 235.425 34.114 236.619 36.3177 238.583C38.8165 240.812 40.5982 243.967 42.322 247.017C44.443 250.774 46.4453 254.324 49.5647 255.868C53.6687 257.904 58.465 256.922 63.1041 255.973C65.9229 255.396 68.5844 254.85 71.0143 254.986C73.4441 255.121 76.0285 255.705 78.5273 256.268C83.7401 257.443 88.6632 258.554 92.2763 255.954C95.8894 253.35 96.3941 248.325 96.9264 243.007C97.1829 240.459 97.4477 237.828 98.0848 235.48C98.7247 233.133 100.087 230.781 101.527 228.287C103.896 224.189 106.348 219.95 105.716 215.413C105.237 211.965 102.503 208.942 99.6128 205.74C97.2629 203.139 94.833 200.45 93.5119 197.372C92.9713 196.112 92.6045 194.653 92.3646 192.78C92.3342 192.554 92.4942 192.347 92.7231 192.316C92.9493 192.286 93.1561 192.446 93.1865 192.675C93.4182 194.468 93.7629 195.858 94.2732 197.047C95.5419 199.998 97.9248 202.634 100.228 205.186C103.207 208.484 106.023 211.598 106.538 215.297C107.209 220.115 104.685 224.478 102.244 228.701C100.832 231.145 99.4969 233.453 98.8847 235.698C98.2641 237.976 98.0021 240.577 97.7511 243.09C97.2215 248.355 96.6754 253.802 92.759 256.624C90.9773 257.906 88.9032 258.356 86.6857 258.356Z" fill="white"/>
<path d="M92.0723 183.881C91.8655 183.881 91.6862 183.727 91.6614 183.515C91.278 180.18 90.5195 177.874 89.1957 176.04C87.356 173.486 84.4049 171.975 81.7627 170.836C81.553 170.745 81.4565 170.502 81.5475 170.292C81.6385 170.083 81.8812 169.986 82.0909 170.077C84.8379 171.263 87.9076 172.841 89.8659 175.558C91.2753 177.513 92.0806 179.94 92.4805 183.424C92.5054 183.65 92.3426 183.857 92.1165 183.881C92.1027 183.881 92.0889 183.881 92.0723 183.881Z" fill="white"/>
<path d="M71.0393 125.193C70.8958 125.193 70.7552 125.171 70.62 125.127C69.8257 124.873 69.3623 123.943 69.3789 122.636C69.3844 122.173 69.0645 121.566 68.728 120.926C68.2343 119.986 67.6716 118.918 67.8537 117.798C67.9888 116.968 68.6756 116.268 69.3403 115.592C69.9498 114.971 70.5787 114.326 70.7524 113.631C70.8931 113.057 70.6614 112.304 70.4159 111.507C70.1181 110.534 69.8092 109.53 70.0988 108.609C70.3911 107.687 71.224 107.042 72.0294 106.421C72.6886 105.911 73.3147 105.428 73.527 104.88C73.7863 104.212 73.6429 103.327 73.5022 102.466C73.3505 101.529 73.1933 100.558 73.5629 99.7992C74.0594 98.7815 75.1323 98.2354 76.0783 97.7527C76.7264 97.4218 77.3387 97.1101 77.6007 96.7267C78.3399 95.6511 79.2556 95.1574 80.0499 95.4111C80.8442 95.6621 81.3103 96.5944 81.2938 97.9017C81.2883 98.365 81.6082 98.9746 81.9447 99.6172C82.4384 100.558 82.9983 101.622 82.819 102.739C82.6839 103.57 81.9971 104.27 81.3324 104.949C80.7229 105.569 80.094 106.212 79.9203 106.907C79.7769 107.48 80.0085 108.233 80.254 109.031C80.5519 110.004 80.8608 111.008 80.5684 111.932C80.2761 112.853 79.4431 113.496 78.6378 114.119C77.9786 114.629 77.3553 115.112 77.1401 115.661C76.8781 116.328 77.0215 117.219 77.1622 118.077C77.3139 119.015 77.4711 119.983 77.1015 120.739C76.6051 121.756 75.5322 122.305 74.5862 122.788C73.9408 123.119 73.3285 123.43 73.0664 123.811C72.4542 124.702 71.7233 125.193 71.0393 125.193ZM79.6224 96.1724C79.2225 96.1724 78.726 96.5447 78.2792 97.1956C77.8958 97.7528 77.1953 98.1113 76.4506 98.4892C75.5791 98.9332 74.6799 99.3938 74.3021 100.161C74.0483 100.682 74.178 101.484 74.3159 102.331C74.4731 103.299 74.6358 104.3 74.2938 105.175C73.9959 105.939 73.2512 106.515 72.5314 107.072C71.8253 107.616 71.0972 108.181 70.882 108.854C70.6697 109.53 70.94 110.41 71.202 111.262C71.4695 112.131 71.7453 113.03 71.5495 113.827C71.3233 114.743 70.6118 115.468 69.925 116.168C69.3237 116.781 68.7583 117.36 68.6646 117.928C68.5267 118.775 68.9983 119.671 69.4561 120.537C69.845 121.274 70.2118 121.971 70.2008 122.644C70.1898 123.555 70.4435 124.203 70.8655 124.335C71.2875 124.467 71.8694 124.087 72.3824 123.339C72.7631 122.785 73.4664 122.427 74.2083 122.049C75.0798 121.605 75.9817 121.144 76.3568 120.375C76.6106 119.853 76.4809 119.053 76.343 118.207C76.1858 117.239 76.0231 116.235 76.3679 115.358C76.6657 114.594 77.4104 114.017 78.1303 113.463C78.8336 112.919 79.5617 112.354 79.7768 111.681C79.992 111.005 79.7217 110.125 79.4597 109.273C79.1921 108.404 78.9163 107.503 79.1122 106.708C79.3383 105.795 80.0499 105.07 80.7367 104.369C81.3379 103.757 81.9033 103.178 81.9971 102.607C82.135 101.763 81.6634 100.867 81.2083 100.003C80.8194 99.2642 80.4526 98.5664 80.4609 97.8934C80.4719 96.9832 80.2181 96.3351 79.7962 96.2027C79.741 96.1806 79.6831 96.1724 79.6224 96.1724Z" fill="white"/>
<path d="M102.084 123.538C101.532 123.538 101.036 123.265 100.589 123.02C100.3 122.86 99.9989 122.694 99.8114 122.694C99.0446 122.689 98.4985 122.388 98.3496 121.886C98.2006 121.384 98.493 120.835 99.1329 120.413C99.2901 120.309 99.4528 120.008 99.61 119.716C99.8831 119.205 100.192 118.629 100.782 118.353C101.232 118.143 101.761 118.24 102.272 118.334C102.685 118.408 103.113 118.485 103.405 118.378C103.64 118.292 103.888 117.983 104.128 117.686C104.459 117.275 104.834 116.809 105.369 116.649C105.907 116.489 106.475 116.676 106.98 116.842C107.344 116.96 107.719 117.084 107.961 117.029C108.268 116.96 108.585 116.662 108.891 116.373C109.269 116.017 109.658 115.65 110.149 115.578C110.794 115.487 111.368 115.805 111.875 116.083C112.165 116.243 112.465 116.409 112.653 116.411C113.417 116.414 113.963 116.715 114.112 117.217C114.261 117.716 113.969 118.268 113.331 118.69C113.174 118.794 113.012 119.095 112.854 119.387C112.581 119.898 112.272 120.474 111.682 120.75C111.233 120.959 110.703 120.863 110.193 120.769C109.779 120.695 109.352 120.617 109.059 120.725C108.825 120.81 108.577 121.119 108.337 121.417C108.006 121.828 107.631 122.294 107.095 122.454C106.558 122.614 105.989 122.427 105.487 122.261C105.123 122.143 104.748 122.019 104.506 122.074C104.199 122.143 103.882 122.441 103.576 122.73C103.198 123.086 102.809 123.453 102.318 123.524C102.236 123.533 102.161 123.538 102.084 123.538ZM101.414 119.056C101.303 119.056 101.207 119.07 101.132 119.103C100.793 119.26 100.564 119.691 100.341 120.104C100.126 120.507 99.9217 120.885 99.5907 121.103C99.2211 121.348 99.1218 121.569 99.1467 121.649C99.1715 121.732 99.3756 121.861 99.8196 121.864C100.217 121.867 100.595 122.074 100.992 122.292C101.403 122.518 101.83 122.755 102.2 122.7C102.429 122.667 102.724 122.391 103.008 122.123C103.378 121.776 103.794 121.381 104.321 121.263C104.787 121.158 105.272 121.318 105.744 121.47C106.149 121.602 106.569 121.74 106.861 121.654C107.148 121.569 107.426 121.224 107.694 120.893C108.006 120.507 108.328 120.107 108.778 119.942C109.283 119.757 109.848 119.859 110.344 119.95C110.728 120.019 111.128 120.093 111.337 119.994C111.677 119.837 111.906 119.407 112.129 118.993C112.344 118.59 112.545 118.212 112.879 117.994C113.249 117.749 113.348 117.528 113.323 117.448C113.298 117.366 113.094 117.236 112.653 117.236C112.256 117.233 111.878 117.026 111.481 116.806C111.07 116.58 110.642 116.342 110.273 116.395C110.044 116.428 109.749 116.704 109.465 116.971C109.095 117.319 108.679 117.713 108.152 117.832C107.688 117.937 107.2 117.777 106.729 117.625C106.323 117.493 105.901 117.355 105.612 117.44C105.325 117.526 105.046 117.87 104.781 118.201C104.47 118.587 104.147 118.987 103.7 119.153C103.196 119.338 102.63 119.236 102.134 119.145C101.874 119.1 101.618 119.056 101.414 119.056Z" fill="#57D4D4"/>
<path d="M41.2407 137.219C40.6753 137.219 40.121 136.778 39.7266 135.997C39.5942 135.741 39.2163 135.476 38.8136 135.2C38.1876 134.767 37.4787 134.279 37.2167 133.49C37.0181 132.897 37.2222 132.224 37.4181 131.573C37.5891 131.01 37.7628 130.426 37.6525 129.976C37.5642 129.612 37.1919 129.234 36.7947 128.834C36.2817 128.316 35.7522 127.781 35.6308 127.077C35.5067 126.377 35.8211 125.693 36.1245 125.031C36.359 124.521 36.5796 124.038 36.541 123.666C36.4886 123.205 36.1245 122.717 35.7715 122.245C35.3633 121.699 34.9413 121.136 34.9247 120.51C34.8999 119.68 35.3991 118.98 35.8377 118.359C36.1218 117.959 36.3893 117.581 36.4224 117.292C36.5382 116.329 36.9823 115.689 37.6111 115.579C38.24 115.469 38.8771 115.918 39.3156 116.784C39.448 117.041 39.8259 117.306 40.2285 117.581C40.8546 118.014 41.5634 118.503 41.8255 119.291C42.0213 119.884 41.8172 120.557 41.6214 121.208C41.4504 121.774 41.2738 122.356 41.3842 122.808C41.4724 123.175 41.8475 123.55 42.2419 123.95C42.7549 124.468 43.2845 125.001 43.4086 125.704C43.5327 126.404 43.2183 127.088 42.9149 127.75C42.6805 128.261 42.4598 128.743 42.5012 129.118C42.5508 129.582 42.9177 130.067 43.2707 130.539C43.6789 131.082 44.1009 131.645 44.1174 132.271C44.1395 133.101 43.643 133.804 43.2045 134.422C42.9204 134.822 42.6529 135.2 42.617 135.49C42.5012 136.449 42.0571 137.089 41.4283 137.2C41.3676 137.213 41.3042 137.219 41.2407 137.219ZM37.7987 116.393C37.7849 116.393 37.7711 116.393 37.7573 116.395C37.5587 116.431 37.3243 116.751 37.2471 117.391C37.1891 117.89 36.8609 118.351 36.5162 118.839C36.1356 119.377 35.7411 119.934 35.7549 120.488C35.766 120.852 36.0914 121.288 36.4362 121.749C36.8361 122.284 37.2884 122.888 37.3656 123.572C37.4318 124.173 37.1505 124.783 36.8802 125.376C36.6292 125.922 36.37 126.487 36.45 126.934C36.5299 127.384 36.9657 127.825 37.3877 128.252C37.8456 128.716 38.3172 129.193 38.4606 129.78C38.6233 130.45 38.4054 131.173 38.2124 131.813C38.0469 132.365 37.8897 132.886 38.0028 133.231C38.1765 133.757 38.7392 134.146 39.2853 134.521C39.7762 134.861 40.2368 135.181 40.4657 135.625C40.7581 136.201 41.0891 136.425 41.2876 136.389C41.4862 136.353 41.7207 136.033 41.7979 135.393C41.8586 134.894 42.184 134.433 42.5315 133.945C42.9149 133.407 43.3093 132.85 43.2928 132.296C43.2817 131.934 42.9563 131.499 42.6115 131.038C42.2116 130.503 41.7565 129.899 41.682 129.212C41.6158 128.611 41.8972 128.001 42.1675 127.408C42.4184 126.862 42.6777 126.3 42.5977 125.853C42.5177 125.406 42.082 124.962 41.6572 124.537C41.1994 124.074 40.725 123.597 40.5843 123.009C40.4216 122.339 40.6395 121.614 40.8326 120.974C40.998 120.422 41.158 119.901 41.0422 119.556C40.8684 119.032 40.303 118.643 39.7597 118.265C39.2687 117.926 38.8054 117.606 38.5792 117.162C38.3089 116.621 38 116.393 37.7987 116.393Z" fill="#79DDDD"/>
<path d="M76.0039 152.209C75.5489 152.209 75.0883 152.112 74.6635 152.021C74.1836 151.919 73.7313 151.823 73.4527 151.908C72.526 152.184 71.762 152.032 71.409 151.497C71.0559 150.965 71.2159 150.201 71.8365 149.456C72.0213 149.233 72.1123 148.778 72.2061 148.298C72.355 147.553 72.5205 146.709 73.1411 146.155C73.6072 145.738 74.305 145.658 74.9835 145.578C75.5682 145.512 76.1722 145.441 76.5418 145.162C76.8424 144.933 77.041 144.439 77.2506 143.918C77.5209 143.242 77.8022 142.545 78.398 142.153C78.9937 141.761 79.7439 141.778 80.472 141.794C81.0347 141.805 81.567 141.819 81.8952 141.632C82.2979 141.403 82.6013 140.873 82.8936 140.36C83.2301 139.77 83.5804 139.16 84.1458 138.896C84.8987 138.543 85.7427 138.722 86.4846 138.879C86.9618 138.981 87.4141 139.075 87.6954 138.992C88.6222 138.716 89.3861 138.868 89.7392 139.403C90.0922 139.935 89.9322 140.699 89.3117 141.444C89.1269 141.668 89.0359 142.123 88.9421 142.602C88.7931 143.347 88.6277 144.191 88.0071 144.746C87.541 145.162 86.8432 145.242 86.1675 145.322C85.5827 145.391 84.9787 145.46 84.6091 145.738C84.3085 145.965 84.1099 146.458 83.9003 146.982C83.63 147.658 83.3487 148.356 82.753 148.75C82.16 149.142 81.407 149.125 80.6816 149.109C80.119 149.098 79.5867 149.084 79.2585 149.272C78.8558 149.5 78.5552 150.03 78.2628 150.54C77.9236 151.13 77.576 151.743 77.0079 152.008C76.6797 152.154 76.3432 152.209 76.0039 152.209ZM73.7092 151.048C74.0623 151.048 74.4401 151.128 74.8318 151.21C75.4771 151.348 76.1474 151.486 76.6493 151.255C76.9775 151.1 77.2478 150.629 77.5347 150.127C77.8822 149.52 78.2407 148.891 78.8392 148.549C79.366 148.248 80.039 148.265 80.6899 148.276C81.2884 148.29 81.909 148.303 82.2868 148.055C82.6647 147.804 82.8964 147.228 83.1225 146.671C83.3652 146.067 83.6162 145.441 84.1017 145.074C84.6505 144.657 85.4035 144.572 86.0654 144.495C86.6391 144.428 87.1797 144.365 87.45 144.125C87.8637 143.755 87.9961 143.085 88.1257 142.437C88.2415 141.852 88.3519 141.298 88.6718 140.912C89.0855 140.415 89.1572 140.024 89.0441 139.855C88.9338 139.687 88.5449 139.599 87.9271 139.784C87.4472 139.927 86.8956 139.809 86.3109 139.687C85.6655 139.549 84.9953 139.409 84.4933 139.643C84.1651 139.795 83.8948 140.269 83.6107 140.768C83.2798 141.348 82.9047 142.007 82.3034 142.346C81.7766 142.647 81.1036 142.63 80.4527 142.616C79.8542 142.602 79.2337 142.589 78.853 142.84C78.4752 143.088 78.2435 143.667 78.0201 144.224C77.7774 144.828 77.5264 145.454 77.041 145.821C76.4921 146.238 75.775 146.32 75.08 146.4C74.5063 146.467 73.9657 146.53 73.6954 146.77C73.2817 147.14 73.1493 147.81 73.0197 148.458C72.9039 149.043 72.7935 149.597 72.4736 149.983C72.0599 150.48 71.9882 150.871 72.1013 151.039C72.2116 151.208 72.6005 151.296 73.2183 151.111C73.3727 151.067 73.5382 151.048 73.7092 151.048Z" fill="#79DDDD"/>
<path d="M156.407 221.21C155.398 221.21 154.463 220.662 153.63 220.171C153.004 219.801 152.411 219.454 151.948 219.437C150.643 219.39 149.736 218.88 149.52 218.075C149.308 217.269 149.843 216.378 150.955 215.689C151.349 215.443 151.691 214.85 152.052 214.219C152.579 213.298 153.178 212.252 154.22 211.805C154.992 211.474 155.952 211.679 156.879 211.874C157.731 212.056 158.611 212.244 159.29 212.012C159.849 211.825 160.362 211.226 160.903 210.592C161.565 209.817 162.246 209.017 163.181 208.769C164.116 208.523 165.106 208.879 166.063 209.224C166.847 209.508 167.589 209.775 168.168 209.66C168.871 209.522 169.544 208.923 170.192 208.344C170.901 207.712 171.635 207.062 172.47 206.968C173.598 206.838 174.636 207.45 175.551 207.991C176.177 208.361 176.768 208.708 177.234 208.725C178.538 208.772 179.446 209.279 179.658 210.082C179.873 210.887 179.335 211.778 178.224 212.467C177.829 212.713 177.487 213.306 177.126 213.937C176.597 214.859 175.998 215.904 174.958 216.351C174.186 216.682 173.226 216.478 172.297 216.282C171.444 216.1 170.565 215.915 169.886 216.141C169.326 216.329 168.813 216.927 168.273 217.562C167.611 218.337 166.929 219.136 165.994 219.385C165.059 219.633 164.069 219.274 163.112 218.93C162.329 218.645 161.587 218.378 161.008 218.494C160.305 218.632 159.632 219.23 158.983 219.809C158.275 220.441 157.541 221.092 156.705 221.188C156.609 221.205 156.509 221.21 156.407 221.21ZM155.186 212.456C154.948 212.456 154.733 212.487 154.548 212.567C153.762 212.906 153.258 213.783 152.772 214.632C152.359 215.355 151.967 216.039 151.393 216.395C150.621 216.875 150.21 217.437 150.323 217.865C150.436 218.292 151.07 218.579 151.978 218.612C152.651 218.637 153.332 219.037 154.052 219.459C154.896 219.956 155.768 220.466 156.617 220.375C157.191 220.309 157.797 219.771 158.437 219.2C159.171 218.546 159.929 217.873 160.853 217.691C161.656 217.531 162.541 217.851 163.399 218.16C164.238 218.463 165.104 218.775 165.788 218.593C166.474 218.411 167.07 217.71 167.649 217.035C168.24 216.342 168.852 215.625 169.63 215.366C170.52 215.068 171.513 215.278 172.473 215.482C173.312 215.661 174.106 215.827 174.636 215.601C175.422 215.261 175.926 214.384 176.412 213.535C176.825 212.812 177.217 212.128 177.791 211.772C178.563 211.292 178.974 210.73 178.861 210.302C178.748 209.875 178.113 209.591 177.206 209.558C176.533 209.533 175.852 209.133 175.135 208.711C174.291 208.214 173.419 207.699 172.567 207.798C171.993 207.864 171.386 208.402 170.747 208.97C170.013 209.624 169.255 210.297 168.331 210.479C167.528 210.639 166.643 210.319 165.788 210.01C164.949 209.707 164.086 209.395 163.399 209.577C162.715 209.759 162.117 210.46 161.537 211.135C160.947 211.828 160.335 212.545 159.557 212.804C158.663 213.105 157.671 212.892 156.711 212.688C156.162 212.569 155.632 212.456 155.186 212.456Z" fill="#79DDDD"/>
<path d="M124.629 200.295C124.24 200.295 123.912 200.168 123.683 199.917C123.253 199.445 123.291 198.668 123.785 197.835C123.931 197.584 123.95 197.123 123.967 196.635C123.994 195.876 124.028 195.013 124.554 194.368C124.949 193.882 125.627 193.695 126.281 193.51C126.849 193.35 127.434 193.187 127.756 192.854C128.016 192.583 128.134 192.065 128.258 191.516C128.421 190.807 128.587 190.073 129.111 189.594C129.637 189.114 130.382 189.009 131.105 188.912C131.662 188.835 132.189 188.763 132.484 188.529C132.845 188.239 133.06 187.668 133.27 187.117C133.51 186.48 133.758 185.823 134.277 185.473C134.966 185.01 135.824 185.054 136.582 185.09C137.07 185.114 137.534 185.137 137.796 185.012C138.67 184.596 139.451 184.626 139.881 185.098C140.311 185.57 140.273 186.347 139.779 187.177C139.63 187.428 139.613 187.892 139.594 188.38C139.564 189.138 139.531 189.999 139.009 190.642C138.615 191.127 137.937 191.317 137.283 191.499C136.715 191.659 136.13 191.822 135.807 192.156C135.548 192.426 135.429 192.945 135.305 193.491C135.143 194.2 134.977 194.936 134.45 195.416C133.924 195.899 133.179 196.001 132.456 196.1C131.899 196.177 131.375 196.249 131.083 196.483C130.721 196.773 130.506 197.344 130.297 197.893C130.057 198.53 129.806 199.189 129.287 199.539C128.6 200.005 127.743 199.961 126.984 199.923C126.496 199.898 126.033 199.873 125.771 200C125.357 200.198 124.968 200.295 124.629 200.295ZM135.92 185.895C135.474 185.895 135.054 185.945 134.74 186.157C134.439 186.361 134.249 186.869 134.045 187.409C133.808 188.033 133.54 188.741 133.002 189.174C132.531 189.552 131.863 189.643 131.221 189.731C130.625 189.814 130.01 189.897 129.673 190.203C129.34 190.509 129.202 191.113 129.069 191.701C128.926 192.335 128.774 192.992 128.358 193.427C127.878 193.924 127.15 194.128 126.51 194.307C125.955 194.462 125.429 194.611 125.2 194.892C124.849 195.322 124.822 196.006 124.797 196.665C124.775 197.261 124.753 197.824 124.499 198.254C124.168 198.808 124.16 199.208 124.295 199.357C124.43 199.506 124.83 199.534 125.412 199.255C125.864 199.037 126.427 199.068 127.026 199.098C127.685 199.131 128.366 199.167 128.824 198.855C129.127 198.651 129.32 198.141 129.524 197.6C129.762 196.977 130.029 196.268 130.567 195.838C131.039 195.46 131.703 195.369 132.346 195.281C132.942 195.201 133.559 195.115 133.893 194.806C134.23 194.5 134.368 193.893 134.5 193.306C134.643 192.672 134.795 192.018 135.212 191.582C135.689 191.086 136.387 190.89 137.059 190.702C137.614 190.548 138.141 190.399 138.37 190.12C138.72 189.69 138.745 189.009 138.769 188.35C138.792 187.751 138.814 187.189 139.07 186.756C139.398 186.201 139.409 185.804 139.274 185.655C139.139 185.506 138.739 185.479 138.157 185.757C137.705 185.975 137.142 185.945 136.544 185.914C136.334 185.906 136.124 185.895 135.92 185.895Z" fill="#79DDDD"/>
<path d="M174.338 188.444C173.78 188.444 173.226 188.262 172.719 188.099C172.252 187.948 171.811 187.804 171.527 187.857C170.573 188.033 169.831 187.799 169.538 187.233C169.246 186.665 169.486 185.923 170.181 185.248C170.391 185.043 170.529 184.602 170.675 184.136C170.901 183.411 171.157 182.592 171.83 182.106C172.338 181.742 173.041 181.734 173.722 181.728C174.31 181.723 174.919 181.717 175.317 181.48C175.639 181.284 175.89 180.815 176.152 180.319C176.494 179.676 176.847 179.012 177.479 178.686C178.113 178.361 178.858 178.457 179.581 178.548C180.138 178.62 180.667 178.689 181.012 178.537C181.434 178.352 181.793 177.859 182.137 177.382C182.537 176.83 182.948 176.259 183.541 176.055C184.327 175.785 185.146 176.052 185.869 176.287C186.332 176.438 186.771 176.579 187.058 176.529C188.009 176.353 188.754 176.587 189.046 177.153C189.339 177.721 189.099 178.463 188.404 179.138C188.194 179.34 188.059 179.781 187.913 180.247C187.687 180.973 187.43 181.794 186.754 182.28C186.247 182.644 185.544 182.649 184.862 182.658C184.275 182.663 183.665 182.669 183.268 182.906C182.946 183.099 182.697 183.568 182.433 184.067C182.091 184.71 181.737 185.374 181.106 185.703C180.471 186.028 179.727 185.932 179.007 185.838C178.447 185.766 177.92 185.697 177.576 185.849C177.151 186.034 176.795 186.527 176.45 187.004C176.05 187.556 175.639 188.124 175.049 188.328C174.812 188.411 174.575 188.444 174.338 188.444ZM171.659 187.018C172.073 187.018 172.514 187.162 172.975 187.313C173.604 187.517 174.252 187.73 174.776 187.551C175.118 187.432 175.438 186.991 175.775 186.525C176.185 185.956 176.607 185.372 177.239 185.096C177.796 184.853 178.464 184.939 179.112 185.021C179.708 185.099 180.323 185.179 180.725 184.972C181.128 184.762 181.42 184.213 181.702 183.684C182.008 183.11 182.322 182.514 182.841 182.203C183.431 181.847 184.187 181.841 184.854 181.836C185.431 181.83 185.977 181.825 186.269 181.615C186.721 181.292 186.923 180.639 187.118 180.01C187.295 179.439 187.463 178.901 187.825 178.554C188.288 178.104 188.401 177.721 188.307 177.541C188.216 177.362 187.838 177.233 187.204 177.351C186.71 177.439 186.175 177.266 185.61 177.081C184.981 176.877 184.333 176.664 183.806 176.844C183.461 176.962 183.141 177.404 182.802 177.872C182.391 178.438 181.969 179.025 181.338 179.301C180.78 179.544 180.116 179.456 179.468 179.373C178.872 179.296 178.257 179.216 177.851 179.425C177.449 179.632 177.159 180.181 176.878 180.711C176.572 181.284 176.257 181.88 175.736 182.194C175.143 182.55 174.387 182.556 173.722 182.561C173.146 182.567 172.6 182.569 172.308 182.782C171.858 183.105 171.654 183.758 171.458 184.387C171.279 184.958 171.111 185.496 170.752 185.846C170.289 186.296 170.176 186.679 170.269 186.858C170.363 187.038 170.738 187.167 171.373 187.049C171.469 187.024 171.566 187.018 171.659 187.018Z" fill="white"/>
<path d="M142.879 243.341C142.689 243.341 142.496 243.318 142.305 243.263C141.701 243.092 141.257 242.546 140.83 242.017C140.46 241.559 140.077 241.087 139.641 240.924C139.288 240.792 138.767 240.891 138.212 240.993C137.498 241.126 136.759 241.264 136.105 240.974C135.454 240.685 135.065 240.039 134.69 239.416C134.398 238.933 134.122 238.478 133.791 238.304C133.383 238.089 132.773 238.117 132.186 238.144C131.505 238.177 130.801 238.211 130.275 237.871C129.574 237.424 129.273 236.619 129.006 235.908C128.835 235.45 128.672 235.017 128.452 234.826C127.721 234.192 127.442 233.464 127.701 232.882C127.963 232.297 128.692 232.024 129.654 232.146C129.944 232.181 130.374 232.016 130.829 231.839C131.538 231.564 132.338 231.255 133.138 231.478C133.742 231.649 134.183 232.195 134.613 232.722C134.983 233.18 135.366 233.651 135.802 233.814C136.155 233.944 136.676 233.847 137.231 233.745C137.948 233.613 138.687 233.475 139.34 233.767C139.989 234.057 140.38 234.699 140.755 235.323C141.048 235.805 141.321 236.258 141.655 236.434C142.065 236.652 142.672 236.625 143.262 236.597C143.941 236.564 144.644 236.531 145.171 236.87C145.872 237.314 146.172 238.122 146.44 238.834C146.611 239.292 146.773 239.725 146.994 239.915C147.725 240.549 148.004 241.278 147.744 241.859C147.482 242.444 146.751 242.72 145.792 242.596C145.502 242.56 145.072 242.726 144.617 242.902C144.073 243.112 143.483 243.341 142.879 243.341ZM139.219 240.036C139.465 240.036 139.705 240.067 139.928 240.152C140.573 240.395 141.028 240.955 141.47 241.498C141.834 241.948 142.176 242.37 142.526 242.469C143.058 242.618 143.695 242.37 144.311 242.133C144.868 241.917 145.389 241.713 145.891 241.777C146.531 241.857 146.9 241.708 146.983 241.523C147.066 241.338 146.931 240.963 146.445 240.541C146.067 240.213 145.869 239.683 145.659 239.123C145.428 238.506 145.188 237.866 144.721 237.568C144.415 237.372 143.872 237.397 143.296 237.424C142.628 237.455 141.872 237.491 141.263 237.168C140.728 236.887 140.38 236.31 140.041 235.753C139.729 235.24 139.409 234.708 138.996 234.523C138.579 234.335 137.967 234.449 137.377 234.559C136.737 234.677 136.078 234.802 135.51 234.589C134.864 234.349 134.406 233.787 133.968 233.243C133.604 232.796 133.262 232.372 132.911 232.272C132.379 232.123 131.742 232.372 131.127 232.609C130.57 232.824 130.043 233.031 129.547 232.965C128.907 232.882 128.537 233.034 128.454 233.218C128.372 233.403 128.507 233.778 128.992 234.2C129.37 234.528 129.569 235.058 129.778 235.618C130.01 236.236 130.25 236.876 130.716 237.173C131.022 237.369 131.565 237.344 132.142 237.317C132.809 237.287 133.562 237.251 134.172 237.571C134.707 237.855 135.057 238.431 135.394 238.988C135.705 239.501 136.025 240.034 136.439 240.218C136.855 240.403 137.465 240.29 138.055 240.18C138.447 240.111 138.841 240.036 139.219 240.036Z" fill="#BCEEEE"/>
<path d="M117.251 260.275C116.923 260.275 116.567 260.09 116.247 259.74C116.159 259.646 115.899 259.555 115.67 259.475C115.24 259.326 114.708 259.141 114.399 258.683C114.162 258.33 114.173 257.886 114.181 257.459C114.189 257.133 114.195 256.797 114.085 256.598C113.999 256.444 113.734 256.292 113.478 256.146C113.1 255.928 112.67 255.683 112.466 255.255C112.259 254.828 112.339 254.337 112.408 253.906C112.455 253.614 112.504 253.313 112.438 253.151C112.352 252.938 112.085 252.732 111.826 252.533C111.486 252.271 111.133 251.998 111.009 251.592C110.849 251.068 111.04 250.539 111.191 250.114C111.274 249.885 111.368 249.623 111.349 249.496C111.252 248.851 111.44 248.349 111.85 248.15C112.264 247.955 112.772 248.123 113.213 248.603C113.301 248.699 113.563 248.79 113.795 248.87C114.222 249.019 114.752 249.204 115.058 249.656C115.295 250.009 115.284 250.451 115.276 250.881C115.268 251.206 115.262 251.546 115.373 251.744C115.458 251.899 115.726 252.05 115.982 252.199C116.36 252.414 116.787 252.66 116.992 253.087C117.196 253.515 117.118 254.003 117.049 254.431C117.003 254.723 116.953 255.026 117.019 255.189C117.105 255.404 117.372 255.608 117.629 255.81C117.968 256.072 118.321 256.342 118.445 256.747C118.608 257.271 118.417 257.804 118.263 258.231C118.18 258.46 118.087 258.719 118.106 258.846C118.205 259.489 118.018 259.994 117.607 260.189C117.494 260.25 117.375 260.275 117.251 260.275ZM112.212 248.898C112.209 248.898 112.206 248.898 112.204 248.898C112.19 248.912 112.118 249.047 112.165 249.369C112.217 249.703 112.09 250.053 111.969 250.393C111.845 250.735 111.718 251.088 111.798 251.347C111.845 251.501 112.104 251.7 112.33 251.874C112.661 252.128 113.034 252.417 113.205 252.839C113.356 253.217 113.287 253.633 113.224 254.033C113.172 254.359 113.116 254.698 113.21 254.891V254.894C113.304 255.09 113.599 255.261 113.886 255.423C114.239 255.628 114.606 255.837 114.804 256.19C115.025 256.587 115.014 257.059 115.006 257.473C115 257.759 114.992 258.082 115.083 258.217C115.235 258.444 115.593 258.568 115.938 258.689C116.277 258.805 116.627 258.926 116.854 259.177C117.074 259.417 117.226 259.447 117.251 259.442C117.265 259.428 117.336 259.29 117.287 258.97C117.237 258.634 117.361 258.286 117.482 257.95C117.607 257.608 117.733 257.252 117.653 256.993C117.607 256.838 117.35 256.64 117.121 256.463C116.79 256.209 116.415 255.92 116.247 255.495C116.095 255.12 116.161 254.701 116.228 254.295C116.28 253.97 116.335 253.633 116.241 253.44C116.148 253.247 115.852 253.076 115.566 252.914C115.21 252.709 114.843 252.5 114.644 252.147C114.421 251.75 114.432 251.278 114.44 250.859C114.446 250.572 114.454 250.249 114.363 250.114C114.211 249.888 113.858 249.767 113.514 249.648C113.174 249.529 112.821 249.408 112.592 249.157C112.397 248.939 112.25 248.898 112.212 248.898Z" fill="#79DDDD"/>
<path d="M219.473 36.0493C219.454 36.0493 219.435 36.0493 219.416 36.0465C219.189 36.0162 219.032 35.8066 219.062 35.5804L221.468 18.3948L236.888 6.46614C238.25 5.55873 238.341 4.08316 237.826 3.01854C237.39 2.10837 236.328 1.18166 234.75 1.55952L203.372 9.06149L200.685 31.6391C200.658 31.8653 200.451 32.028 200.225 32.0004C199.999 31.9728 199.836 31.7687 199.863 31.5398L202.616 8.38852L234.56 0.751401C236.483 0.29356 237.964 1.37748 238.573 2.65723C239.219 3.99214 239.116 5.96693 237.36 7.14187L222.24 18.8361L219.879 35.6907C219.854 35.9003 219.678 36.0493 219.473 36.0493Z" fill="white"/>
<path d="M263.931 53.2787C263.901 53.2787 263.867 53.2759 263.834 53.2677C263.611 53.2153 263.476 52.9919 263.528 52.7685L267.599 35.638L284.079 25.1877C285.609 24.3658 285.767 22.7881 285.267 21.6684C284.87 20.772 283.91 19.8894 282.413 20.099L250.466 24.6168L245.344 48.3307C245.297 48.5541 245.077 48.6975 244.853 48.6479C244.63 48.5982 244.489 48.3804 244.536 48.157L249.779 23.8803L282.3 19.2799C283.91 19.0537 285.375 19.8591 286.026 21.3319C286.696 22.8295 286.379 24.8815 284.487 25.9075L268.33 36.1538L264.336 52.9588C264.287 53.1518 264.118 53.2787 263.931 53.2787Z" fill="white"/>
<path d="M202.627 12.2226C202.442 12.2226 202.274 12.0985 202.227 11.911C202.172 11.6903 202.304 11.4641 202.528 11.409L238.101 2.43144C238.322 2.37628 238.548 2.50866 238.603 2.73207C238.659 2.95271 238.526 3.17888 238.303 3.23404L202.729 12.2116C202.693 12.2199 202.66 12.2226 202.627 12.2226Z" fill="white"/>
<path d="M249.515 27.4656C249.313 27.4656 249.137 27.3194 249.106 27.1153C249.071 26.8892 249.228 26.6795 249.451 26.6437L285.582 21.0862C285.808 21.0503 286.018 21.2075 286.054 21.4309C286.089 21.6571 285.932 21.8667 285.709 21.9025L249.578 27.4601C249.556 27.4628 249.534 27.4656 249.515 27.4656Z" fill="white"/>
<path d="M220.999 25.1515C220.985 25.1515 220.971 25.1515 220.958 25.1487L201.279 23.196C201.052 23.1739 200.884 22.9698 200.909 22.7437C200.931 22.5147 201.135 22.352 201.361 22.3741L221.04 24.3268C221.266 24.3489 221.435 24.553 221.41 24.7791C221.391 24.9915 221.209 25.1515 220.999 25.1515Z" fill="white"/>
<path d="M267.21 39.4779C267.197 39.4779 267.183 39.4779 267.172 39.4752L247.294 37.5776C247.068 37.5555 246.9 37.3542 246.922 37.1253C246.944 36.8964 247.143 36.7309 247.374 36.7529L267.252 38.6505C267.478 38.6726 267.646 38.8739 267.624 39.1028C267.602 39.318 267.423 39.4779 267.21 39.4779Z" fill="white"/>
<path d="M274.817 37.8212C273.587 37.8212 272.376 37.6916 271.19 37.4323C270.967 37.3827 270.826 37.162 270.876 36.9386C270.925 36.7152 271.143 36.5746 271.37 36.6242C273.571 37.1069 275.871 37.1179 278.207 36.6573C281.459 36.0174 282.289 35.088 282.272 34.6853C282.256 34.2412 281.271 33.4662 278.637 33.1628C273.833 32.6029 268.628 36.0947 268.41 36.2436C268.223 36.3705 267.963 36.3236 267.836 36.1333C267.71 35.943 267.756 35.6865 267.947 35.5596C268.11 35.4493 269.591 34.4591 271.656 33.6014C274.255 32.5202 276.637 32.0982 278.736 32.3409C281.464 32.6553 283.056 33.4993 283.102 34.6522C283.149 35.8575 281.47 36.8586 278.37 37.4682C277.17 37.7026 275.987 37.8212 274.817 37.8212Z" fill="white"/>
<path d="M268.142 36.3489C268.049 36.3489 267.958 36.3185 267.88 36.2551C267.864 36.244 267.85 36.2303 267.836 36.2192C267.676 36.0593 267.674 35.8028 267.828 35.64C267.85 35.618 267.878 35.5959 267.905 35.5766C267.916 35.5683 267.927 35.5628 267.936 35.5573C268.129 35.4387 268.388 35.4911 268.509 35.6814C268.614 35.8441 268.595 36.051 268.468 36.1834C268.457 36.1999 268.443 36.2137 268.429 36.2275C268.355 36.3075 268.247 36.3489 268.142 36.3489Z" fill="white"/>
<path d="M277.757 46.7685C276.844 46.7685 275.589 46.2885 274.111 45.348C269.888 42.6644 267.955 36.7208 267.748 36.0533C267.742 36.0395 267.74 36.0257 267.737 36.0119L267.731 35.9871C267.698 35.8492 267.737 35.7058 267.833 35.6038C267.93 35.5017 268.073 35.4548 268.211 35.4824L268.236 35.4879C268.242 35.4879 268.247 35.4907 268.25 35.4907C268.487 35.5348 269.761 35.7968 271.463 36.6546C273.573 37.7137 275.451 39.2224 277.051 41.1365C279.078 43.5608 279.754 45.3949 278.96 46.3023C278.684 46.614 278.276 46.7685 277.757 46.7685ZM268.757 36.4643C269.375 38.1743 271.209 42.5293 274.552 44.653C276.792 46.0734 278.041 46.0927 278.336 45.7562C278.601 45.4529 278.543 44.209 276.417 41.666C274.891 39.8402 273.101 38.4032 271.094 37.3937C270.114 36.8973 269.295 36.616 268.757 36.4643Z" fill="white"/>
<path d="M228.708 20.4106C227.477 20.4106 226.264 20.281 225.078 20.019C224.854 19.9693 224.714 19.7487 224.763 19.5253C224.813 19.3019 225.034 19.1612 225.257 19.2109C227.458 19.6963 229.758 19.7073 232.1 19.244C235.352 18.6041 236.182 17.6746 236.165 17.2747C236.149 16.8279 235.167 16.0556 232.53 15.7522C227.726 15.1951 222.521 18.6868 222.303 18.8358C222.116 18.9626 221.856 18.9157 221.73 18.7254C221.603 18.5351 221.65 18.2786 221.84 18.1518C222.416 17.7601 227.607 14.3511 232.63 14.9303C235.357 15.2447 236.949 16.0887 236.996 17.2443C237.042 18.4496 235.363 19.4508 232.263 20.0603C231.066 20.2948 229.877 20.4106 228.708 20.4106Z" fill="white"/>
<path d="M222.039 18.9424C221.945 18.9424 221.851 18.9121 221.777 18.8487C221.76 18.8349 221.744 18.8211 221.727 18.8045C221.573 18.6418 221.575 18.3853 221.735 18.2253C221.755 18.206 221.779 18.1867 221.807 18.1674C221.818 18.1591 221.829 18.1536 221.837 18.1481C222.03 18.0295 222.29 18.0819 222.411 18.2722C222.516 18.4349 222.497 18.6418 222.37 18.7742C222.359 18.7907 222.345 18.8045 222.331 18.8183C222.251 18.9011 222.143 18.9424 222.039 18.9424Z" fill="white"/>
<path d="M231.661 29.3521C230.74 29.3521 229.468 28.8722 228.004 27.94C223.781 25.2592 221.848 19.3155 221.641 18.648C221.635 18.6343 221.633 18.6205 221.63 18.6067L221.622 18.5819C221.589 18.4439 221.627 18.3005 221.727 18.1985C221.826 18.0964 221.966 18.0495 222.104 18.0771L222.129 18.0826C222.135 18.0826 222.14 18.0854 222.143 18.0854C222.38 18.1295 223.638 18.3888 225.323 19.2328C225.334 19.2355 225.342 19.241 225.353 19.2466C227.466 20.3084 229.347 21.8171 230.947 23.7312C232.974 26.1555 233.65 27.9897 232.855 28.8971C232.585 29.2005 232.177 29.3521 231.661 29.3521ZM222.653 19.059C223.271 20.769 225.105 25.124 228.448 27.245C230.688 28.6681 231.937 28.6847 232.232 28.351C232.497 28.0476 232.436 26.8037 230.312 24.2607C228.793 22.4432 227.011 21.009 225.009 19.9995C224.998 19.9967 224.989 19.9912 224.978 19.9857C224.005 19.492 223.191 19.2107 222.653 19.059Z" fill="white"/>
<path d="M107.225 155.806C107.065 155.806 106.916 155.715 106.848 155.56C106.82 155.497 106.795 155.436 106.776 155.373C106.61 154.901 106.58 154.41 106.688 153.911C107.325 150.932 112.813 148.522 113.905 148.07L113.966 148.045L114.03 147.981L114.206 147.979C114.435 147.979 114.62 148.163 114.62 148.392C114.62 148.522 114.562 148.635 114.468 148.712L114.435 148.745L114.223 148.831C113.597 149.09 108.061 151.451 107.498 154.082C107.421 154.438 107.441 154.772 107.559 155.103L107.567 155.13C107.576 155.161 107.589 155.188 107.603 155.221C107.697 155.431 107.6 155.674 107.394 155.767C107.338 155.795 107.281 155.806 107.225 155.806Z" fill="white"/>
<path d="M108.188 159.205C108.135 159.205 108.08 159.194 108.028 159.172C107.504 158.952 107.051 158.579 106.687 158.069C105.951 157.046 106.014 155.945 106.861 154.972C107.01 154.801 107.272 154.782 107.446 154.93C107.619 155.079 107.636 155.341 107.487 155.515C106.894 156.199 106.853 156.878 107.363 157.586C107.639 157.97 107.972 158.248 108.356 158.408C108.565 158.497 108.665 158.739 108.576 158.952C108.502 159.112 108.347 159.205 108.188 159.205Z" fill="white"/>
<path d="M110.215 161.996C110.173 161.996 110.129 161.99 110.088 161.976C109.691 161.85 109.277 161.654 108.849 161.392C107.341 160.462 107.545 159.262 107.804 158.634C108.127 157.853 108.767 157.285 108.794 157.263C108.965 157.111 109.227 157.13 109.379 157.301C109.531 157.472 109.514 157.734 109.343 157.886C109.332 157.894 108.819 158.358 108.571 158.951C108.284 159.66 108.51 160.211 109.285 160.691C109.652 160.917 110.008 161.086 110.342 161.193C110.559 161.262 110.678 161.496 110.609 161.714C110.551 161.883 110.388 161.996 110.215 161.996Z" fill="white"/>
<path d="M112.995 163.959C112.703 163.959 112.427 163.94 112.176 163.898C110.811 163.692 109.97 162.889 109.807 161.642C109.705 160.898 109.89 160.244 109.898 160.216C109.961 159.996 110.19 159.872 110.408 159.932C110.629 159.996 110.756 160.225 110.692 160.445C110.692 160.448 110.549 160.964 110.626 161.535C110.742 162.423 111.291 162.928 112.303 163.082C112.515 163.115 112.747 163.132 112.998 163.132C113.227 163.132 113.412 163.317 113.412 163.545C113.412 163.774 113.224 163.959 112.995 163.959Z" fill="white"/>
<path d="M113.544 164.702C112.574 164.702 112.094 164.12 111.87 163.676C111.768 163.471 111.848 163.223 112.052 163.121C112.256 163.019 112.505 163.099 112.607 163.303C112.733 163.554 113.12 164.321 114.841 163.524C115.489 163.226 116.137 162.829 116.766 162.343C117.042 162.134 117.317 161.902 117.607 161.635C118.923 160.435 119.687 159.257 119.695 159.246C119.816 159.053 120.073 158.995 120.266 159.119C120.459 159.241 120.517 159.497 120.393 159.69C120.384 159.704 119.582 160.953 118.167 162.244C117.858 162.525 117.566 162.774 117.271 162.997C116.592 163.518 115.891 163.946 115.188 164.271C114.526 164.58 113.986 164.702 113.544 164.702Z" fill="white"/>
<path d="M116.012 162.128L111.128 154.894L113.673 148.321C113.745 148.103 113.979 147.988 114.197 148.059C114.415 148.131 114.531 148.365 114.459 148.583L114.446 148.625L112.057 154.792L116.28 161.044L120.698 158.648C120.899 158.537 121.15 158.614 121.258 158.813C121.366 159.014 121.291 159.265 121.093 159.373L116.012 162.128Z" fill="white"/>
<path d="M171.386 80.7587C171.309 80.7587 171.235 80.7366 171.166 80.6953C170.973 80.5739 170.915 80.3174 171.039 80.1243C180.8 64.7646 179.721 49.2256 179.71 49.0712C179.694 48.8422 179.862 48.6436 180.091 48.6271C180.323 48.6106 180.518 48.7788 180.535 49.0077C180.546 49.1649 181.644 64.9797 171.737 80.5684C171.657 80.6925 171.522 80.7587 171.386 80.7587Z" fill="white"/>
<path d="M168.857 71.2321C168.794 71.2321 168.73 71.2183 168.67 71.1852C168.466 71.0804 168.386 70.8321 168.491 70.6281C171.615 64.5161 172.175 60.1115 172.669 56.2226C172.716 55.8558 172.763 55.489 172.81 55.1276C172.84 54.9015 173.05 54.7388 173.273 54.7719C173.499 54.8022 173.659 55.0091 173.629 55.2352C173.582 55.5965 173.535 55.9578 173.488 56.3247C172.986 60.2797 172.418 64.7616 169.224 71.0031C169.152 71.1493 169.006 71.2321 168.857 71.2321Z" fill="white"/>
<path d="M158.327 94.1842C159.2 94.1842 159.907 93.4766 159.907 92.6038C159.907 91.731 159.2 91.0234 158.327 91.0234C157.454 91.0234 156.747 91.731 156.747 92.6038C156.747 93.4766 157.454 94.1842 158.327 94.1842Z" fill="#EDEDED"/>
<path d="M162.497 81.833C163.928 81.833 165.087 80.6735 165.087 79.2432C165.087 77.8128 163.928 76.6533 162.497 76.6533C161.067 76.6533 159.907 77.8128 159.907 79.2432C159.907 80.6735 161.067 81.833 162.497 81.833Z" fill="#EDEDED"/>
<path d="M192.533 152.671C193.451 152.671 194.196 151.926 194.196 151.008C194.196 150.089 193.451 149.345 192.533 149.345C191.614 149.345 190.869 150.089 190.869 151.008C190.869 151.926 191.614 152.671 192.533 152.671Z" fill="#EDEDED"/>
<path d="M282.683 73.4072C284.113 73.4072 285.273 72.2477 285.273 70.8174C285.273 69.3871 284.113 68.2275 282.683 68.2275C281.253 68.2275 280.093 69.3871 280.093 70.8174C280.093 72.2477 281.253 73.4072 282.683 73.4072Z" fill="#EDEDED"/>
<path d="M194.052 143.908C193.906 143.908 193.763 143.831 193.688 143.693C193.578 143.492 193.652 143.241 193.854 143.133C204.792 137.184 211.494 131.692 211.56 131.637C211.737 131.491 211.996 131.516 212.142 131.692C212.289 131.869 212.264 132.128 212.087 132.274C212.021 132.33 205.264 137.871 194.251 143.858C194.187 143.894 194.121 143.908 194.052 143.908Z" fill="white"/>
<path d="M202.382 144.672C202.241 144.672 202.106 144.6 202.026 144.471C201.907 144.275 201.971 144.021 202.167 143.903C205.087 142.143 207.879 140.32 210.463 138.486C210.648 138.353 210.907 138.397 211.039 138.582C211.172 138.767 211.128 139.026 210.943 139.159C208.342 141.007 205.534 142.841 202.597 144.611C202.528 144.653 202.453 144.672 202.382 144.672Z" fill="white"/>
<path d="M284.771 15.6879C284.724 15.6879 284.677 15.6796 284.63 15.663C284.415 15.5858 284.305 15.3486 284.382 15.1335L288.878 2.6918C288.955 2.47667 289.192 2.36634 289.407 2.44357C289.622 2.5208 289.733 2.75799 289.655 2.97312L285.16 15.4148C285.099 15.5831 284.942 15.6879 284.771 15.6879Z" fill="white"/>
<path d="M290.838 20.4101C290.692 20.4101 290.551 20.3329 290.477 20.1977C290.364 19.9992 290.436 19.7454 290.637 19.6351L302.384 13.0543C302.582 12.944 302.836 13.013 302.946 13.2143C303.059 13.4129 302.988 13.6666 302.786 13.7769L291.04 20.3577C290.976 20.3936 290.907 20.4101 290.838 20.4101Z" fill="white"/>
<path d="M301.761 35.745C301.689 35.745 301.617 35.7257 301.551 35.6871L290.629 29.2994C290.43 29.1836 290.364 28.9298 290.48 28.734C290.596 28.5354 290.85 28.472 291.045 28.5851L301.967 34.9728C302.166 35.0886 302.232 35.3424 302.116 35.5382C302.042 35.6733 301.904 35.745 301.761 35.745Z" fill="white"/>
<path d="M281.23 39.2998C276.715 39.2998 271.441 37.5154 271.143 37.4133C270.928 37.3388 270.812 37.1044 270.887 36.8865C270.961 36.6714 271.196 36.5555 271.414 36.63C271.51 36.6631 281.014 39.8818 285.113 37.7388C285.314 37.6339 285.565 37.7112 285.67 37.9125C285.775 38.1139 285.698 38.3648 285.496 38.4696C284.338 39.0764 282.832 39.2998 281.23 39.2998Z" fill="white"/>
<path d="M284.186 42.4127C277.569 42.4127 272.177 37.8122 271.951 37.6164C271.778 37.4674 271.761 37.2054 271.91 37.0344C272.059 36.8607 272.321 36.8413 272.495 36.993C272.547 37.0399 277.884 41.588 284.186 41.588C284.415 41.588 284.6 41.7728 284.6 42.0017C284.6 42.2306 284.415 42.4127 284.186 42.4127Z" fill="white"/>
<path d="M234.127 21.2842C229.612 21.2842 224.339 19.4997 224.041 19.3977C223.826 19.3232 223.71 19.0888 223.784 18.8709C223.859 18.6558 224.093 18.5399 224.311 18.6144C224.408 18.6475 233.912 21.8662 238.011 19.7231C238.212 19.6183 238.463 19.6956 238.568 19.8969C238.673 20.0982 238.595 20.3492 238.394 20.454C237.238 21.058 235.73 21.2842 234.127 21.2842Z" fill="white"/>
<path d="M237.084 24.3912C230.467 24.3912 225.075 19.7907 224.852 19.5949C224.678 19.4459 224.661 19.1839 224.81 19.0129C224.959 18.8392 225.221 18.8199 225.395 18.9716C225.447 19.0184 230.784 23.5665 237.086 23.5665C237.315 23.5665 237.5 23.7513 237.5 23.9802C237.5 24.2091 237.313 24.3912 237.084 24.3912Z" fill="white"/>
<path d="M30.9505 253.75C30.9505 252.589 34.9994 252.078 35.3414 251.03C35.6944 249.944 32.7295 247.155 33.3887 246.251C34.0534 245.338 37.6251 247.299 38.5408 246.634C39.4454 245.975 38.6787 241.967 39.7654 241.614C40.8134 241.275 42.5455 244.954 43.7066 244.954C44.8678 244.954 46.5999 241.272 47.6479 241.614C48.7346 241.967 47.9679 245.975 48.8725 246.634C49.7854 247.299 53.3599 245.338 54.0246 246.251C54.6838 247.155 51.7189 249.944 52.0719 251.03C52.4111 252.078 56.4628 252.586 56.4628 253.75C56.4628 254.911 52.4139 255.421 52.0719 256.469C51.7189 257.556 54.6838 260.344 54.0246 261.249C53.3599 262.162 49.7882 260.201 48.8725 260.866C47.9679 261.525 48.7346 265.532 47.6479 265.885C46.5999 266.225 44.8678 262.545 43.7066 262.545C42.5455 262.545 40.8134 266.227 39.7654 265.885C38.6787 265.532 39.4454 261.525 38.5408 260.866C37.6278 260.201 34.0534 262.162 33.3887 261.249C32.7295 260.344 35.6944 257.556 35.3414 256.469C34.9994 255.418 30.9505 254.911 30.9505 253.75Z" fill="#FFB019"/>
<path d="M196.821 8.72638C196.821 8.16373 198.782 7.91826 198.945 7.41078C199.116 6.88398 197.682 5.53528 197.999 5.09675C198.322 4.65546 200.051 5.60423 200.492 5.28154C200.931 4.9616 200.558 3.02267 201.085 2.85167C201.593 2.68619 202.431 4.46791 202.994 4.46791C203.556 4.46791 204.395 2.68619 204.902 2.85167C205.429 3.02267 205.057 4.9616 205.495 5.28154C205.937 5.60423 207.666 4.6527 207.989 5.09675C208.309 5.53528 206.872 6.88398 207.043 7.41078C207.208 7.91826 209.166 8.16373 209.166 8.72638C209.166 9.28903 207.208 9.5345 207.043 10.042C206.872 10.5688 208.306 11.9175 207.989 12.356C207.666 12.7973 205.937 11.8485 205.495 12.1712C205.057 12.4912 205.429 14.4301 204.902 14.6011C204.395 14.7666 203.556 12.9849 202.994 12.9849C202.431 12.9849 201.593 14.7666 201.085 14.6011C200.558 14.4301 200.931 12.4912 200.492 12.1712C200.051 11.8485 198.322 12.8001 197.999 12.356C197.679 11.9175 199.116 10.5688 198.945 10.042C198.779 9.5345 196.821 9.28903 196.821 8.72638Z" fill="white"/>
<path d="M239.373 59.7065C240.485 59.7065 241.387 58.8051 241.387 57.6931C241.387 56.5811 240.485 55.6797 239.373 55.6797C238.261 55.6797 237.36 56.5811 237.36 57.6931C237.36 58.8051 238.261 59.7065 239.373 59.7065Z" fill="#25968E"/>
<path d="M264.292 69.914C263.322 71.1827 262.287 72.5066 261.187 73.8801C260.166 72.7989 259.03 71.6819 257.783 70.5704L254.868 68.1516C253.15 66.8332 251.269 65.5673 249.228 64.4282C248.938 64.2682 248.767 63.9648 248.767 63.6394C248.767 63.6063 248.77 63.5732 248.773 63.5401C248.825 63.0547 249.253 62.6961 249.741 62.732C253.277 62.9802 259.32 66.1575 264.292 69.914Z" fill="#38A6A0"/>
<path d="M255.521 51.1834C252.554 52.3914 249.729 53.1306 247.865 53.012C247.46 52.9844 247.148 52.6424 247.159 52.237C247.167 51.9363 247.352 51.666 247.633 51.5557C248.792 51.1006 249.9 50.5931 250.96 50.0498C252.402 50.4359 253.93 50.8166 255.521 51.1834Z" fill="#25968E"/>
<path d="M273.871 56.1737C272.823 57.8589 271.328 60.1812 269.339 63.022C263.197 61.0775 253.436 58.86 242.663 59.7785L244.244 56.3695V56.364C251.773 53.9038 265.944 53.7411 273.871 56.1737Z" fill="#50B5B2"/>
<path d="M229.126 67.5537C228.519 72.3307 224.79 80.3567 221.881 81.7964C220.455 82.5025 219.727 82.2515 219.365 81.7027C223.348 76.6526 226.556 71.8867 229.126 67.5537Z" fill="#38A6A0"/>
<path d="M235.881 62.8526C239.072 67.7675 243.647 70.6883 245.402 71.6839C246.047 72.0508 246.469 72.7265 246.474 73.4684C246.48 74.2076 246.086 74.8998 244.411 74.5744C241.347 73.9814 235.47 66.5622 235.001 63.1835C234.965 62.927 235.139 62.6898 235.393 62.643C235.583 62.6099 235.776 62.6926 235.881 62.8526Z" fill="#25968E"/>
<path d="M235.55 82.8217C234.231 85.1882 232.985 84.962 232.094 84.198C231.197 83.434 230.806 82.2287 231.021 81.0704C231.52 78.3812 232.416 71.7563 230.977 64.3288C231.523 63.3414 232.033 62.3816 232.51 61.4521C235.558 66.9187 237.693 78.9742 235.55 82.8217Z" fill="#50B5B2"/>
<path d="M255.066 79.588C255.898 79.588 256.572 78.9138 256.572 78.0821C256.572 77.2504 255.898 76.5762 255.066 76.5762C254.234 76.5762 253.56 77.2504 253.56 78.0821C253.56 78.9138 254.234 79.588 255.066 79.588Z" fill="#25968E"/>
<path d="M227.955 91.1595C228.344 90.1859 229.245 89.5102 230.283 89.3585C232.153 89.0854 236.086 88.3352 240.479 86.457L243.044 85.2517C244.484 84.507 245.94 83.6354 247.361 82.6122C247.562 82.466 247.821 82.4467 248.042 82.5515C248.064 82.5626 248.086 82.5736 248.108 82.5874C248.42 82.7777 248.527 83.1804 248.348 83.5003C245.998 87.7146 234.447 94.4692 230.106 93.6776C227.734 93.2446 227.571 92.1276 227.955 91.1595Z" fill="#38A6A0"/>
<path d="M254.415 81.7976C254.407 81.861 254.398 81.9245 254.39 81.9879C252.305 84.3654 250.057 86.8366 247.641 89.3851C249.478 86.5801 251.249 83.309 252.603 79.6436L254.412 81.7976H254.415Z" fill="#50B5B2"/>
<path d="M221.73 35.872C221.694 36.1037 221.6 36.3298 221.448 36.5312C220.946 37.1959 220.003 37.331 219.339 36.829C218.922 36.5146 218.712 36.0264 218.74 35.541C218.988 35.5741 219.234 35.6045 219.474 35.6348C220.274 35.7341 221.026 35.8141 221.73 35.872Z" fill="#25968E"/>
<path d="M193.134 48.7015C193.523 47.7279 194.425 47.0521 195.462 46.9005C197.332 46.6274 201.265 45.8772 205.658 43.999L208.223 42.7937C209.663 42.049 211.119 41.1774 212.54 40.1542C212.741 40.008 213 39.9887 213.221 40.0935C213.243 40.1045 213.265 40.1156 213.287 40.1294C213.599 40.3197 213.706 40.7224 213.527 41.0423C211.177 45.2566 199.626 52.0112 195.285 51.2196C192.913 50.7866 192.748 49.6696 193.134 48.7015Z" fill="#38A6A0"/>
<path d="M222.816 53.1142C222.816 53.117 222.816 53.117 222.816 53.117C222.217 54.9649 221.555 56.9121 220.822 58.9365C219.073 55.009 219.004 45.9653 220.711 42.857C220.858 42.5922 221.189 42.4874 221.459 42.6253C221.649 42.719 221.771 42.9149 221.771 43.13V43.1631C221.533 46.9058 222.099 50.3782 222.816 53.1142Z" fill="#25968E"/>
<path d="M217.783 37.1807L219.592 39.3347L219.595 39.3375C218.701 46.605 212.209 59.6204 207.459 61.7607C204.558 63.0707 203.543 61.9813 203.237 60.6354C202.928 59.2867 203.405 57.8745 204.42 56.934C207.139 54.4021 214.057 47.2807 217.783 37.1807Z" fill="#50B5B2"/>
<path d="M201.28 38.8234C200.552 41.9207 199.071 42.0642 197.816 41.4877C196.559 40.914 195.728 39.6757 195.602 38.2966C195.431 36.5039 195.006 33.2797 193.961 29.3936C195.563 30.0748 197.714 30.8195 200.241 31.5669C201.225 34.4877 201.683 37.1107 201.28 38.8234Z" fill="#50B5B2"/>
<path d="M177.575 96.177C176.938 95.1041 176.955 93.7637 177.561 92.6742C178.656 90.7105 180.799 86.4548 182.209 80.9414L182.929 77.6455C183.268 75.7479 183.5 73.74 183.563 71.6604C183.571 71.3653 183.739 71.1061 183.999 70.9737C184.024 70.9599 184.051 70.9489 184.079 70.9378C184.484 70.7806 184.942 70.9709 185.113 71.3736C187.388 76.647 185.4 92.4453 181.505 95.9702C179.384 97.8953 178.21 97.2416 177.575 96.177Z" fill="#38A6A0"/>
<path d="M193.095 65.1256C199.268 70.5177 206.541 72.6966 209.282 73.364C210.289 73.6095 211.116 74.3597 211.409 75.3554C211.698 76.3455 211.433 77.4294 209.056 77.6335C204.706 78.0086 193.964 70.2777 192.041 65.9062C191.895 65.5752 192.039 65.1891 192.364 65.0291C192.604 64.9105 192.894 64.9491 193.095 65.1256Z" fill="#25968E"/>
<path d="M185.988 64.4996L187.907 64.4141H187.91C194.124 70.526 201.709 86.087 200.288 92.1217C199.422 95.8093 197.657 95.9775 196.168 95.2935C194.67 94.6095 193.683 93.1339 193.528 91.4956C193.131 87.2978 191.559 76.4972 185.508 66.1186L185.988 64.4996Z" fill="#50B5B2"/>
<path d="M152.328 129.035C151.222 126.933 150.157 124.876 149.175 122.954C149.614 121.699 150.036 120.339 150.406 118.891L151.125 115.595C151.258 114.859 151.374 114.103 151.465 113.336C152.317 112.829 153.15 112.288 153.966 111.723C154.736 116.348 154.008 123.88 152.328 129.035Z" fill="#38A6A0"/>
<path d="M162.834 104.334C168.631 108.81 174.961 110.694 177.476 111.309C178.486 111.555 179.31 112.305 179.603 113.3C179.892 114.291 179.625 115.372 177.25 115.576C173.463 115.901 164.833 110.087 161.394 105.694L162.834 104.334Z" fill="#25968E"/>
<path d="M168.482 130.062C167.616 133.75 165.854 133.918 164.362 133.234C162.864 132.55 161.877 131.074 161.722 129.436C161.4 126.008 160.291 118.178 156.598 109.768C157.663 108.938 158.774 108.025 159.924 107.016C164.996 114.322 169.619 125.238 168.482 130.062Z" fill="#50B5B2"/>
<path d="M187.706 124.867C188.696 124.867 189.499 124.064 189.499 123.074C189.499 122.084 188.696 121.281 187.706 121.281C186.716 121.281 185.913 122.084 185.913 123.074C185.913 124.064 186.716 124.867 187.706 124.867Z" fill="#25968E"/>
<path d="M180.59 130.488C178.56 135.546 167.103 144.543 161.454 145.216C160.608 143.867 159.72 142.389 158.809 140.825C159.195 140.508 159.651 140.265 160.147 140.127C162.315 139.523 166.844 138.048 171.75 135.165L174.597 133.356C176.182 132.258 177.771 131.009 179.294 129.591C179.509 129.39 179.812 129.327 180.088 129.415C180.116 129.426 180.143 129.437 180.171 129.448C180.568 129.624 180.755 130.085 180.59 130.488Z" fill="#38A6A0"/>
<path d="M191.054 135.247C190.282 135.727 189.504 136.207 188.718 136.684C188.682 134.593 188.875 132.762 189.347 131.562C189.479 131.226 189.854 131.055 190.196 131.173C190.45 131.262 190.627 131.493 190.643 131.761C190.72 132.958 190.861 134.122 191.054 135.247Z" fill="#25968E"/>
<path d="M187.499 127.573C187.51 130.582 186.84 134.499 185.736 138.473C183.078 140.054 180.35 141.618 177.556 143.165C180.369 138.578 183.392 132.433 185.036 125.301L187.496 127.573H187.499Z" fill="#50B5B2"/>
<path d="M221.975 89.6023C223.203 89.6023 224.198 88.607 224.198 87.3793C224.198 86.1515 223.203 85.1562 221.975 85.1562C220.747 85.1562 219.752 86.1515 219.752 87.3793C219.752 88.607 220.747 89.6023 221.975 89.6023Z" fill="#25968E"/>
<path d="M198.222 100.643C195.58 103.919 192.72 107.063 189.628 109.995C187.871 110.448 186.324 110.61 185.141 110.395C181.641 109.761 181.398 108.111 181.966 106.683C182.54 105.246 183.872 104.25 185.403 104.027C187.844 103.668 192.659 102.766 198.222 100.643Z" fill="#38A6A0"/>
<path d="M212.063 95.3776C209.382 100.177 198.614 107.213 190.894 109.631C196.055 105.627 200.677 101.614 204.812 97.6585L204.814 97.6558C206.751 96.627 208.701 95.4383 210.606 94.0675C210.902 93.8524 211.285 93.8248 211.61 93.9765C211.644 93.9931 211.677 94.0124 211.707 94.0289C212.168 94.3102 212.328 94.906 212.063 95.3776Z" fill="#38A6A0"/>
<path d="M225.144 110.535C224.413 107.002 223.95 102.881 224.229 98.5094C224.229 98.4928 224.231 98.4763 224.231 98.4625C224.231 98.1481 224.052 97.8557 223.768 97.7151C223.368 97.5165 222.88 97.6682 222.662 98.0598C221.002 101.088 220.48 107.931 221.062 113.902L225.144 110.535Z" fill="#25968E"/>
<path d="M218.342 89.6875L221.012 92.8676L221.015 92.8703C219.694 103.596 210.112 122.804 203.104 125.962C198.821 127.892 197.323 126.287 196.871 124.304C196.416 122.313 197.119 120.23 198.617 118.843C202.635 115.1 212.843 104.592 218.342 89.6875Z" fill="#50B5B2"/>
<path d="M90.9001 194.491C90.7705 194.491 90.6463 194.43 90.5636 194.32C90.4312 194.135 90.4726 193.876 90.6574 193.744C91.1649 193.377 91.7965 192.924 92.5356 192.398C100.733 186.556 120.982 172.617 131.954 169.351C142.686 166.163 157.342 155.434 163.145 150.971C163.664 150.574 164.157 150.213 164.657 149.868C166.052 148.903 167.542 148.012 169.083 147.218C185.999 138.51 201.979 128.325 216.588 116.939C228.39 107.741 239.351 97.7238 249.164 87.1686C266.295 68.7392 274.373 54.6261 275.236 53.076C275.347 52.8774 275.6 52.8057 275.799 52.9161C275.997 53.0264 276.069 53.2801 275.959 53.4787C275.09 55.037 266.968 69.2301 249.768 87.7313C239.925 98.3195 228.934 108.367 217.096 117.593C202.448 129.011 186.421 139.225 169.461 147.954C167.953 148.732 166.493 149.606 165.128 150.549C164.643 150.889 164.157 151.242 163.65 151.63C157.811 156.123 143.055 166.918 132.191 170.148C121.338 173.378 101.179 187.257 93.0155 193.073C92.2791 193.6 91.6503 194.05 91.1428 194.417C91.0683 194.466 90.9856 194.491 90.9001 194.491Z" fill="white"/>
<path d="M171.387 123.423C171.249 123.423 171.113 123.354 171.034 123.227C170.912 123.031 170.973 122.777 171.169 122.659L171.32 122.565C171.411 122.51 171.502 122.454 171.593 122.397C176.34 119.503 180.935 116.456 185.257 113.336C209.045 96.159 222.287 78.4494 229.204 66.6172C236.69 53.8197 238.579 44.9884 238.595 44.9001C238.642 44.6767 238.863 44.5333 239.084 44.5802C239.307 44.6271 239.45 44.8449 239.403 45.0684C239.384 45.1566 237.467 54.1204 229.916 67.0364C222.957 78.9376 209.644 96.7437 185.737 114.007C181.401 117.14 176.787 120.198 172.026 123.097C171.938 123.155 171.842 123.213 171.748 123.271L171.599 123.362C171.535 123.403 171.461 123.423 171.387 123.423Z" fill="white"/>
<path d="M50.74 182.662C50.2629 182.662 49.9815 182.557 49.7885 182.433C49.5733 182.295 49.3141 182.025 49.3141 181.525C49.3141 180.695 50.0008 179.28 55.9307 176.58C57.7345 175.758 59.883 174.881 62.3102 173.976C62.9969 173.723 63.6368 173.491 64.2105 173.284C65.8984 172.68 67.4126 171.638 68.5903 170.267C69.7487 168.918 71.0009 167.506 72.3109 166.069C78.1967 159.618 87.7203 149.965 99.6738 140.617C114.192 129.262 128.452 121.358 142.054 117.119C143.276 116.738 144.476 116.302 145.615 115.828C148.908 114.465 152.061 112.67 154.984 110.494C164.172 103.662 171.776 94.7755 177.59 84.0852C186.112 68.4138 190.442 49.3389 190.462 27.3873C190.462 27.1584 190.646 26.9736 190.875 26.9736C191.104 26.9736 191.289 27.1584 191.289 27.3873C191.27 49.4768 186.906 68.6868 178.318 84.4796C172.446 95.2774 164.762 104.252 155.481 111.158C152.502 113.376 149.289 115.205 145.935 116.592C144.774 117.077 143.552 117.519 142.303 117.91C128.796 122.119 114.625 129.977 100.187 141.271C88.2802 150.582 78.7897 160.2 72.926 166.629C71.6214 168.06 70.3748 169.467 69.2219 170.81C67.9504 172.291 66.3176 173.417 64.4946 174.07C63.9236 174.274 63.2865 174.506 62.6053 174.757C60.1975 175.653 58.0682 176.522 56.281 177.339C50.7455 179.857 50.1498 181.109 50.1498 181.531C50.1498 181.682 50.2049 181.718 50.2408 181.74C50.489 181.9 51.755 182.207 57.5883 179.484C58.2172 179.192 58.8874 178.869 59.7038 178.464C59.9079 178.362 60.1561 178.445 60.2581 178.649C60.3602 178.853 60.2775 179.101 60.0734 179.203C59.2514 179.611 58.573 179.939 57.9386 180.235C53.8015 182.154 51.7936 182.662 50.74 182.662Z" fill="white"/>
<path d="M166.071 125.768C165.906 125.768 165.751 125.669 165.688 125.506C165.602 125.294 165.707 125.054 165.92 124.969C167.867 124.194 169.789 123.322 171.629 122.379C176.348 119.974 180.926 116.94 185.237 113.354C201.923 99.4784 212.388 79.1872 218.226 64.608C224.669 48.5229 227.063 35.8054 227.163 35.2731L227.168 35.2455C227.21 35.0608 227.375 34.9229 227.571 34.9229C227.8 34.9229 227.985 35.1076 227.985 35.3366C227.985 35.3641 227.982 35.3972 227.974 35.4276C227.871 35.9847 225.461 48.7712 218.993 64.9197C213.119 79.5872 202.585 100.008 185.767 113.994C181.409 117.618 176.778 120.688 172.007 123.118C170.145 124.072 168.198 124.955 166.226 125.741C166.173 125.76 166.121 125.768 166.071 125.768Z" fill="white"/>
<path d="M224.656 36.4386C223.434 36.4386 221.749 36.331 219.421 36.0442C216.214 35.6525 212.468 34.9934 208.587 34.1356C205.656 33.4902 202.74 32.7455 200.156 31.9843C195.892 30.7266 190.748 28.9201 190.461 27.4611L190.453 27.4142C190.439 27.3204 190.442 27.2321 190.464 27.1384C190.619 26.4433 191.634 26.1317 193.76 26.1289C193.768 26.1289 193.774 26.1289 193.782 26.1289C195.542 26.1289 197.988 26.3468 200.857 26.7633C201.083 26.7964 201.24 27.006 201.207 27.2321C201.174 27.4583 200.964 27.6155 200.738 27.5824C193.652 26.5592 191.532 27.0308 191.278 27.3176C191.399 27.6983 193.23 29.0773 200.39 31.19C202.955 31.9457 205.851 32.6849 208.767 33.3247C212.623 34.177 216.34 34.8334 219.523 35.2223C225.335 35.9339 227.014 35.4678 227.171 35.225C227.229 35.0044 227.453 34.8775 227.676 34.9382C227.897 34.9961 228.026 35.2306 227.966 35.4512C227.883 35.7629 227.704 36.4386 224.656 36.4386Z" fill="white"/>
<path d="M272.608 54.1799C270.81 54.1799 268.063 53.9537 263.865 53.2697C261.592 52.9001 259.19 52.4368 256.721 51.8907C252.314 50.9198 248.08 49.7614 244.804 48.6306C238.267 46.3745 238.51 45.2989 238.598 44.8934C238.686 44.4908 238.924 43.4151 245.783 44.1212C246.009 44.1432 246.175 44.3473 246.153 44.5763C246.13 44.8024 245.924 44.9707 245.697 44.9458C240.416 44.4025 239.525 44.9762 239.415 45.0782C239.475 45.2189 240.043 46.1153 245.074 47.8501C248.32 48.9699 252.521 50.1172 256.898 51.0826C259.35 51.6232 261.738 52.0838 263.997 52.4506C271.485 53.6724 274.845 53.4462 275.289 52.9939C275.132 52.4313 272.214 50.815 264.888 48.7575C264.667 48.6968 264.541 48.4679 264.601 48.2473C264.665 48.0266 264.894 47.8997 265.112 47.9604C268.366 48.8734 271.108 49.8056 273.035 50.6496C275.967 51.9321 276.213 52.674 276.102 53.1787C276.075 53.3139 276.006 53.4407 275.901 53.551C275.669 53.802 274.936 54.1799 272.608 54.1799Z" fill="white"/>
</svg>
