<svg width="241" height="225" viewBox="0 0 241 225" fill="none" xmlns="http://www.w3.org/2000/svg">
<path d="M67.9804 109.986H67.9777C67.504 109.91 67.0381 109.828 66.5696 109.739C61.2163 108.715 56.2182 106.667 51.7755 103.801C39.8554 96.1182 31.9385 82.5611 31.9385 67.1168C31.9385 51.2988 40.2449 37.4574 52.6519 29.8801C57.7763 26.7533 63.6008 24.6925 69.8306 24.0029C62.977 29.459 58.8686 37.9917 58.8686 47.6088C58.8686 58.7051 65.4958 68.2538 75.0077 72.5149L74.9682 72.6018C84.8222 76.8787 88.6622 87.9329 90.1466 99.6319C90.4782 101.766 90.6941 103.767 90.8283 105.522C90.9362 106.907 90.9967 108.136 91.0283 109.157C88.4727 110.025 83.9194 110.486 74.4707 110.486C72.2626 110.486 70.0965 110.315 67.9804 109.986Z" fill="#ECF7FF"/>
<path d="M172.013 59.0205L171.561 63.3553L142.696 69.472L106.102 77.2283L105.975 72.7698L131.937 67.3638H131.945L135.177 66.69L172.013 59.0205Z" fill="#FFB019"/>
<path d="M176.185 19.0977L172.013 59.0216L135.177 66.6911L139.277 27.6857L176.185 19.0977ZM159.698 45.7224C159.698 43.68 158.043 42.0245 156.001 42.0245C153.958 42.0245 152.303 43.68 152.303 45.7224C152.303 47.7622 153.958 49.4177 156.001 49.4177C158.043 49.4177 159.698 47.7622 159.698 45.7224Z" fill="#FFB019"/>
<path d="M227.553 214.795C227.553 215.622 227.445 216.425 227.245 217.188H159.872L151.41 188.002H186.615L186.718 187.971L188.723 194.364L221.323 205.968C223.189 206.631 224.747 207.847 225.839 209.395C226.929 210.94 227.553 212.814 227.553 214.795Z" fill="white"/>
<path d="M93.6945 202.721C98.2924 204.774 100.956 209.638 100.211 214.618C100.077 215.515 99.8374 216.376 99.5084 217.187H28.6196L38.4763 188.001H72.7547L71.0834 193.541L93.6945 202.721Z" fill="white"/>
<path d="M28.6196 217.187H99.5084C98.832 218.853 97.7687 220.305 96.4422 221.45C94.4656 223.151 91.9021 224.166 89.1254 224.166H26.264L28.6196 217.187Z" fill="black"/>
<path d="M159.872 217.187H227.244C226.186 221.206 222.531 224.166 218.18 224.166H161.896L159.872 217.187Z" fill="black"/>
<path d="M156 42.0225C158.043 42.0225 159.698 43.678 159.698 45.7203C159.698 47.7601 158.043 49.4156 156 49.4156C153.958 49.4156 152.302 47.7601 152.302 45.7203C152.302 43.678 153.958 42.0225 156 42.0225Z" fill="#213F7D"/>
<path d="M212.085 153.1C213.264 153.1 214.219 152.144 214.219 150.966C214.219 149.787 213.264 148.831 212.085 148.831C210.906 148.831 209.95 149.787 209.95 150.966C209.95 152.144 210.906 153.1 212.085 153.1Z" fill="#213F7D"/>
<path d="M119.848 194.942C121.027 194.942 121.982 193.986 121.982 192.807C121.982 191.629 121.027 190.673 119.848 190.673C118.669 190.673 117.713 191.629 117.713 192.807C117.713 193.986 118.669 194.942 119.848 194.942Z" fill="#213F7D"/>
<path d="M36.0812 101.082C38.371 101.082 40.2265 102.938 40.2265 105.227C40.2265 107.515 38.371 109.37 36.0812 109.37C33.794 109.37 31.9385 107.515 31.9385 105.227C31.9385 102.938 33.794 101.082 36.0812 101.082Z" fill="#213F7D"/>
<path d="M22.9477 113.426C24.1266 113.426 25.0822 112.471 25.0822 111.292C25.0822 110.113 24.1266 109.157 22.9477 109.157C21.7688 109.157 20.8132 110.113 20.8132 111.292C20.8132 112.471 21.7688 113.426 22.9477 113.426Z" fill="#213F7D"/>
<path d="M44.5114 170.125L43.8271 172.149L41.0583 180.353C30.2542 179.379 22.9479 177.513 22.9479 175.373L23.8191 174.107C26.3484 172.304 34.1731 170.828 44.5114 170.125Z" fill="#213F7D"/>
<path d="M77.9868 170.664C87.2986 171.688 93.4126 173.414 93.4126 175.373C93.4126 177.528 85.9932 179.407 75.0575 180.373L75.8918 177.61L77.9868 170.664Z" fill="#213F7D"/>
<path d="M77.9871 170.666L75.8921 177.612L75.7763 177.577C68.3279 170.126 43.8271 172.15 43.8271 172.15L44.5114 170.126C48.7146 169.84 53.3311 169.682 58.1791 169.682C65.5249 169.682 72.3416 170.045 77.9871 170.666Z" fill="#213F7D"/>
<path d="M147.565 174.735L148.886 179.296C142.875 178.273 139.187 176.893 139.187 175.372C139.187 174.043 142.004 172.819 146.728 171.851L147.565 174.735Z" fill="#213F7D"/>
<path d="M181.014 169.782L183.46 177.577C173.99 170.898 147.565 174.738 147.565 174.738L146.728 171.853C153.179 170.532 163.186 169.682 174.419 169.682C176.674 169.682 178.877 169.716 181.014 169.782Z" fill="#213F7D"/>
<path d="M209.626 175.166C209.642 175.235 209.65 175.306 209.65 175.374C209.65 177.953 199.035 180.133 184.481 180.833L183.46 177.577L181.014 169.781C195.401 170.221 206.692 172.074 209.15 174.413L209.626 175.166Z" fill="#213F7D"/>
<path d="M209.15 174.413C207.005 172.371 198.127 170.7 186.336 170.015C184.62 169.915 182.844 169.836 181.014 169.781C178.877 169.715 176.674 169.681 174.419 169.681C174.166 169.681 173.916 169.681 173.663 169.684H173.661C169.565 169.697 165.641 169.823 162.004 170.044C156.329 170.389 151.352 170.965 147.507 171.7C147.507 171.7 147.507 171.7 147.504 171.7C147.241 171.75 146.981 171.8 146.728 171.852C142.799 172.658 140.19 173.64 139.424 174.713C139.266 174.929 139.188 175.15 139.188 175.374L138.874 174.45L137.348 169.955L135.708 165.125L134.979 162.975L134.218 160.73L127.891 142.093L126.27 137.316L116.284 107.896L115.382 105.241L114.521 102.703L112.6 102.932L90.9334 105.517L90.8282 105.525C90.6939 103.769 90.4781 101.769 90.1465 99.6345C89.7333 96.3814 89.1385 93.1836 88.2831 90.1622C88.2831 90.1595 88.2831 90.1595 88.2831 90.1595C87.8251 88.5356 87.2882 86.9643 86.6671 85.4668C86.0933 84.0876 85.4485 82.7717 84.7142 81.532C84.7142 81.5294 84.7142 81.5294 84.7142 81.5294C83.4113 79.3159 81.8374 77.3498 79.9424 75.7233C78.4843 74.4679 76.8341 73.4151 74.9681 72.6045L75.0075 72.5176C76.5578 73.2124 78.1843 73.7651 79.874 74.1599C80.9294 74.41 82.0111 74.5968 83.1139 74.7205C84.1088 74.8311 85.1195 74.8864 86.1433 74.8864C88.3673 74.8864 90.5281 74.6205 92.5968 74.1178C94.6155 73.6283 96.5474 72.9124 98.3608 72.0017C99.4294 71.4648 100.456 70.8621 101.438 70.1962L110.634 69.3435C111.105 70.2357 112.086 70.7279 113.063 70.4726C113.808 70.2778 114.374 69.6962 114.613 68.9724L131.937 67.3643L105.975 72.7703L106.101 77.2288L142.696 69.4724L165.02 104.725L167.168 108.117L173.245 117.713L175.59 121.417L180.177 128.662L186.044 137.927L209.15 174.413Z" fill="#ECF7FF"/>
<path d="M116.284 107.895L111.612 121.678L110.162 125.955V125.958L106.43 136.967L94.0943 173.362L93.431 175.32L93.4126 175.373C93.4126 175.352 93.4126 175.333 93.41 175.312C93.3573 174.502 92.2545 173.73 90.3095 173.033C87.6223 172.072 83.3322 171.251 77.9868 170.664C72.3412 170.043 65.5245 169.68 58.1787 169.68C53.3307 169.68 48.7143 169.838 44.5111 170.125C34.1728 170.827 26.348 172.304 23.8187 174.107L39.8657 150.806L43.1951 145.971L47.8721 139.184L50.3171 135.633L61.5608 119.304L65.2613 113.93L67.9775 109.987H67.9801C70.0962 110.316 72.2623 110.487 74.4705 110.487C77.8183 110.487 80.5503 110.43 82.798 110.316C86.0853 110.151 88.3329 109.866 89.9437 109.469C90.3411 109.374 90.7017 109.269 91.028 109.158C90.9965 108.137 90.9359 106.908 90.828 105.524L90.9333 105.516L96.5183 104.85L102.388 104.15L114.521 102.702L116.284 107.895Z" fill="#ECF7FF"/>
<path d="M67.9804 110.382C67.9041 110.382 67.8278 110.361 67.7593 110.314C67.5777 110.19 67.533 109.945 67.6541 109.766L67.8225 109.519C67.9462 109.34 68.191 109.293 68.37 109.414C68.5516 109.537 68.5963 109.782 68.4752 109.961L68.3068 110.209C68.2305 110.322 68.1068 110.382 67.9804 110.382Z" fill="black"/>
<path d="M142.504 224.559C142.349 224.559 142.201 224.467 142.138 224.314L106.065 137.116C105.98 136.913 106.078 136.684 106.278 136.6C106.48 136.515 106.709 136.613 106.794 136.813L142.867 224.012C142.951 224.214 142.854 224.443 142.654 224.528C142.607 224.549 142.554 224.559 142.504 224.559Z" fill="black"/>
<path d="M183.459 177.969C183.38 177.969 183.301 177.945 183.233 177.898C173.997 171.384 147.886 175.087 147.623 175.127C147.41 175.158 147.207 175.008 147.175 174.792C147.144 174.577 147.294 174.376 147.51 174.345C147.575 174.334 154.232 173.379 161.956 173.255C172.379 173.087 179.69 174.432 183.688 177.253C183.867 177.38 183.909 177.624 183.783 177.803C183.704 177.911 183.583 177.969 183.459 177.969Z" fill="black"/>
<path d="M108.694 224.561H16.5679C16.3494 224.561 16.1731 224.385 16.1731 224.166C16.1731 223.948 16.3494 223.771 16.5679 223.771H108.694C108.912 223.771 109.089 223.948 109.089 224.166C109.089 224.385 108.912 224.561 108.694 224.561Z" fill="black"/>
<path d="M239.62 224.561H147.497C147.278 224.561 147.102 224.385 147.102 224.166C147.102 223.948 147.278 223.771 147.497 223.771H239.62C239.838 223.771 240.015 223.948 240.015 224.166C240.015 224.385 239.838 224.561 239.62 224.561Z" fill="black"/>
<path d="M62.5428 143.142C59.3134 143.655 52.7625 141.723 47.8723 139.183L50.3174 135.633C53.3836 137.828 57.6079 140.286 62.6349 141.734C62.9112 141.813 63.1139 142.052 63.1481 142.339C63.1929 142.726 62.927 143.079 62.5428 143.142Z" fill="#2A7DB3"/>
<path d="M66.1881 151.423C60.1609 155.576 56.6709 161.388 55.4866 163.612C55.0523 164.43 54.2206 164.98 53.2942 165.012C52.373 165.044 51.4939 164.575 51.8413 162.475C52.4783 158.63 61.5374 151.036 65.7433 150.336C66.0617 150.284 66.3644 150.492 66.4302 150.807C66.4802 151.044 66.3854 151.289 66.1881 151.423Z" fill="#B1E0FF"/>
<path d="M68.5593 144.163L67.9486 147.09V147.092C61.2898 151.122 46.1509 154.254 41.2423 151.693C40.6712 151.396 40.2185 151.098 39.8658 150.806L43.1952 145.971C43.2215 145.974 43.2479 145.976 43.2742 145.982C47.18 146.592 57.6735 147.69 68.5593 144.163Z" fill="#213F7D"/>
<path d="M59.5871 136.569C60.8605 136.569 61.8927 135.537 61.8927 134.264C61.8927 132.99 60.8605 131.958 59.5871 131.958C58.3138 131.958 57.2816 132.99 57.2816 134.264C57.2816 135.537 58.3138 136.569 59.5871 136.569Z" fill="#B1E0FF"/>
<path d="M42.3269 166.641C44.4535 166.641 46.1774 164.917 46.1774 162.79C46.1774 160.663 44.4535 158.939 42.3269 158.939C40.2003 158.939 38.4763 160.663 38.4763 162.79C38.4763 164.917 40.2003 166.641 42.3269 166.641Z" fill="#2A7DB3"/>
<path d="M85.6063 171.178C81.5241 162.616 74.7995 156.966 72.1965 154.994C71.2385 154.27 70.7069 153.094 70.8516 151.904C70.999 150.72 71.7781 149.691 74.3942 150.565C79.1844 152.165 87.0486 165.309 87.0854 170.833C87.0881 171.252 86.7591 171.597 86.3406 171.615C86.03 171.628 85.7405 171.457 85.6063 171.178Z" fill="#2A7DB3"/>
<path d="M97.253 142.97C95.7581 147.581 92.4971 159.659 94.0947 173.361L93.4314 175.319L93.4104 175.311C93.3577 174.5 92.2549 173.729 90.3099 173.032C86.9226 163.252 86.2673 144.71 90.3599 139.201C92.9735 135.682 94.9237 136.311 96.195 137.722C97.4714 139.138 97.8426 141.156 97.253 142.97Z" fill="#213F7D"/>
<path d="M75.9368 143.314C78.6928 143.314 80.9269 141.08 80.9269 138.324C80.9269 135.568 78.6928 133.334 75.9368 133.334C73.1808 133.334 70.9466 135.568 70.9466 138.324C70.9466 141.08 73.1808 143.314 75.9368 143.314Z" fill="#2A7DB3"/>
<path d="M89.0069 114.932C83.6824 120.38 81.2847 127.015 80.5215 129.526C80.2398 130.45 79.5029 131.176 78.5633 131.394C77.629 131.613 76.6393 131.31 76.5735 129.094C76.4525 125.038 84.1825 115.469 88.3383 113.913C88.6542 113.795 89.0042 113.947 89.1358 114.258C89.2306 114.487 89.1806 114.753 89.0069 114.932Z" fill="#2A7DB3"/>
<path d="M61.561 119.304C62.0374 119.636 62.698 119.944 63.585 120.204C69.1095 121.836 83.9431 115.604 89.936 110.156V110.153L89.9439 109.469C88.3332 109.866 86.0855 110.15 82.7982 110.316C75.463 113.022 68.7226 113.743 65.2616 113.93L61.561 119.304Z" fill="#213F7D"/>
<path d="M66.917 135.33C69.1309 135.33 70.9255 133.536 70.9255 131.322C70.9255 129.108 69.1309 127.313 66.917 127.313C64.7032 127.313 62.9086 129.108 62.9086 131.322C62.9086 133.536 64.7032 135.33 66.917 135.33Z" fill="#213F7D"/>
<path d="M111.613 121.679L110.163 125.956V125.958C108.123 126.903 105.962 128.143 103.909 129.751C103.801 129.835 103.672 129.877 103.541 129.877C103.441 129.877 103.341 129.851 103.248 129.801C102.964 129.643 102.856 129.29 103.004 129.001C104.112 126.811 107.875 123.768 111.613 121.679Z" fill="#2A7DB3"/>
<path d="M95.6262 127.419C95.7657 121.318 93.5417 116.12 92.6179 114.236C92.2784 113.541 92.3126 112.712 92.7416 112.07C93.1706 111.43 93.9155 111.067 95.1656 112.327C97.4528 114.636 98.1582 124.466 96.5764 127.648C96.4553 127.89 96.1684 127.993 95.921 127.882C95.7394 127.801 95.621 127.619 95.6262 127.419Z" fill="#B1E0FF"/>
<path d="M99.3741 132.565L97.6949 130.723H97.6923C98.2239 124.256 103.501 112.497 107.63 110.431C110.152 109.167 111.091 110.094 111.41 111.273C111.731 112.457 111.36 113.723 110.497 114.592C108.175 116.934 102.309 123.488 99.3741 132.565Z" fill="#213F7D"/>
<path d="M102.388 104.148C102.767 104.806 102.914 105.601 102.746 106.404C102.38 108.138 100.677 109.249 98.9425 108.886C97.2055 108.52 96.0948 106.817 96.4606 105.083C96.4764 105.004 96.4975 104.925 96.5185 104.849L102.388 104.148Z" fill="#2A7DB3"/>
<path d="M91.2783 91.3471C97.0607 86.8201 103.669 85.2225 106.154 84.7567C107.067 84.5856 107.841 83.9539 108.152 83.0775C108.46 82.2063 108.273 81.2246 106.157 80.9272C102.285 80.3824 92.2995 86.7806 90.3703 90.597C90.2229 90.8865 90.3334 91.2392 90.615 91.3971C90.8282 91.5155 91.0888 91.4971 91.2783 91.3471Z" fill="#B1E0FF"/>
<path d="M84.7144 81.5286C83.4116 79.3152 81.8377 77.3491 79.9427 75.7226C79.7269 75.2251 79.7006 74.6645 79.8743 74.1592C80.9297 74.4092 82.0114 74.5961 83.1142 74.7198C83.9617 76.2253 84.5144 78.8546 84.7144 81.5286Z" fill="#213F7D"/>
<path d="M97.8662 76.1937C95.9054 78.1729 91.4021 83.1683 88.2833 90.1588C87.8253 88.5348 87.2884 86.9636 86.6672 85.466C88.128 81.218 90.3678 76.7648 92.597 74.1171C94.6157 73.6275 96.5476 72.9116 98.361 72.001C98.561 72.2457 98.6926 72.5484 98.7821 72.8721C99.1032 74.0565 98.7321 75.3225 97.8662 76.1937Z" fill="#213F7D"/>
<path d="M97.8135 94.8602C98.8746 94.8602 99.7348 94 99.7348 92.9389C99.7348 91.8778 98.8746 91.0176 97.8135 91.0176C96.7524 91.0176 95.8922 91.8778 95.8922 92.9389C95.8922 94 96.7524 94.8602 97.8135 94.8602Z" fill="#213F7D"/>
<path d="M127.594 117.154C126.26 117.233 124.991 116.557 124.254 115.441C122.925 113.43 119.932 109.295 115.382 105.239L114.521 102.702L112.6 102.931C110.96 101.673 109.165 100.465 107.217 99.3778C106.941 99.2252 106.778 98.9357 106.778 98.6251C106.778 98.5935 106.78 98.5619 106.783 98.5304C106.833 98.0671 107.241 97.725 107.707 97.7592C113.845 98.1908 127.897 107.868 129.334 113.309C130.121 116.28 128.92 117.075 127.594 117.154Z" fill="#2A7DB3"/>
<path d="M105.696 87.0917C113.868 83.8754 119.522 78.0272 121.509 75.7506C122.24 74.9137 123.359 74.4952 124.451 74.7084C125.536 74.9189 126.436 75.7059 125.459 78.0667C123.672 82.3884 111.023 88.8024 105.92 88.4787C105.533 88.455 105.235 88.1286 105.246 87.7391C105.251 87.4549 105.428 87.1969 105.696 87.0917Z" fill="#213F7D"/>
<path d="M100.953 94.9303L102.461 91.6745V91.6719C111.336 88.7689 129.878 89.2189 134.921 93.5432C138.003 96.1857 137.295 97.9465 135.911 99.0282C134.521 100.115 132.634 100.328 130.997 99.6678C126.596 97.8938 114.631 93.7617 100.953 94.9303Z" fill="#B1E0FF"/>
<path d="M136.664 84.8987C139.216 84.8987 141.285 82.8295 141.285 80.277C141.285 77.7245 139.216 75.6553 136.664 75.6553C134.111 75.6553 132.042 77.7245 132.042 80.277C132.042 82.8295 134.111 84.8987 136.664 84.8987Z" fill="#2A7DB3"/>
<path d="M162.522 137.74C171.75 142.888 177.553 150.766 179.559 153.8C180.296 154.916 181.565 155.593 182.899 155.514C184.228 155.435 185.426 154.643 184.639 151.668C183.202 146.228 169.15 136.551 163.009 136.116C162.543 136.085 162.135 136.424 162.085 136.887C162.051 137.235 162.22 137.572 162.522 137.74Z" fill="#213F7D"/>
<path d="M175.59 121.414C170.958 124.449 164.518 127.046 161.222 126.839C160.835 126.812 160.538 126.486 160.549 126.099C160.556 125.812 160.733 125.554 161.001 125.449C166.202 123.401 170.382 120.288 173.245 117.711L175.59 121.414Z" fill="#213F7D"/>
<path d="M186.044 137.925C181.449 136.099 169.679 132.146 156.258 133.291L157.766 130.037V130.032C163.338 128.211 172.719 127.711 180.177 128.661L186.044 137.925Z" fill="#B1E0FF"/>
<path d="M164.057 150.061C165.585 150.061 166.823 148.822 166.823 147.294C166.823 145.767 165.585 144.528 164.057 144.528C162.529 144.528 161.291 145.767 161.291 147.294C161.291 148.822 162.529 150.061 164.057 150.061Z" fill="#213F7D"/>
<path d="M139.424 174.711C139.267 174.927 139.188 175.148 139.188 175.372L138.874 174.448C139.056 174.532 139.24 174.619 139.424 174.711Z" fill="#F29483"/>
<path d="M151.065 153.01C149.607 156.539 140.903 161.464 134.979 162.974L134.218 160.729C140.819 157.426 145.375 152.689 147.117 150.691C147.847 149.854 148.968 149.436 150.057 149.649C151.144 149.862 152.042 150.649 151.065 153.01Z" fill="#2A7DB3"/>
<path d="M162.004 170.044C156.329 170.389 151.352 170.965 147.507 171.699C147.507 171.699 147.507 171.699 147.504 171.699C144.541 170.965 141.098 170.31 137.348 169.954L135.708 165.125C144.98 164.146 156.682 165.188 160.53 168.488C161.18 169.046 161.662 169.562 162.004 170.044Z" fill="#B1E0FF"/>
<path d="M162.272 159.844C164.825 159.844 166.894 157.775 166.894 155.222C166.894 152.67 164.825 150.601 162.272 150.601C159.72 150.601 157.651 152.67 157.651 155.222C157.651 157.775 159.72 159.844 162.272 159.844Z" fill="#2A7DB3"/>
<path d="M167.168 108.118C166.831 108.413 166.418 108.623 165.968 108.726C163.388 109.321 156.54 111.274 150.681 116.256C150.566 116.354 150.423 116.404 150.279 116.404C150.181 116.404 150.084 116.38 149.992 116.335C149.689 116.185 149.56 115.819 149.702 115.511C151.447 111.677 160.554 105.149 165.02 104.726L167.168 108.118Z" fill="#2A7DB3"/>
<path d="M141.917 114.167C141.801 107.777 139.254 102.434 138.206 100.499C137.822 99.7888 137.822 98.9176 138.243 98.228C138.664 97.5411 139.427 97.1305 140.791 98.3965C143.283 100.715 144.438 110.969 142.92 114.367C142.804 114.625 142.507 114.746 142.243 114.641C142.051 114.562 141.92 114.375 141.917 114.167Z" fill="#213F7D"/>
<path d="M146.057 119.394L144.222 117.539H144.22C144.499 110.748 149.521 98.2203 153.753 95.8832C156.337 94.454 157.359 95.3831 157.743 96.6043C158.13 97.8282 157.795 99.1705 156.93 100.118C154.6 102.663 148.739 109.769 146.057 119.394Z" fill="#B1E0FF"/>
<path d="M157.588 119.654C158.7 119.654 159.601 118.752 159.601 117.64C159.601 116.528 158.7 115.627 157.588 115.627C156.476 115.627 155.574 116.528 155.574 117.64C155.574 118.752 156.476 119.654 157.588 119.654Z" fill="#213F7D"/>
<path d="M145.152 94.6794C147.01 94.6794 148.515 93.1735 148.515 91.3158C148.515 89.4581 147.01 87.9521 145.152 87.9521C143.294 87.9521 141.788 89.4581 141.788 91.3158C141.788 93.1735 143.294 94.6794 145.152 94.6794Z" fill="#B1E0FF"/>
<path d="M127.891 142.092L126.27 137.315C128.225 134.472 130.791 129.94 131.955 124.455C132.007 124.208 132.205 124.018 132.452 123.968C132.786 123.905 133.11 124.116 133.187 124.445C134.121 128.443 131.078 138.736 127.891 142.092Z" fill="#2A7DB3"/>
<path d="M140.174 120.758C144.167 125.748 149.447 128.425 151.458 129.317C152.197 129.646 152.726 130.333 152.813 131.138C152.9 131.939 152.545 132.733 150.694 132.56C147.304 132.246 140.13 124.827 139.256 121.211C139.19 120.937 139.353 120.658 139.624 120.582C139.824 120.526 140.043 120.592 140.174 120.758Z" fill="#213F7D"/>
<path d="M133.703 119.146L136.29 119.497H136.293C140.217 125.045 143.888 138.033 141.964 142.468C140.79 145.179 139.414 145.066 138.364 144.334C137.308 143.6 136.756 142.334 136.864 141.055C137.151 137.615 137.453 128.406 133.703 119.146Z" fill="#B1E0FF"/>
<path d="M125.641 129.584C126.753 129.584 127.654 128.683 127.654 127.571C127.654 126.459 126.753 125.558 125.641 125.558C124.529 125.558 123.628 126.459 123.628 127.571C123.628 128.683 124.529 129.584 125.641 129.584Z" fill="#213F7D"/>
<path d="M151.56 144.188C153.418 144.188 154.924 142.682 154.924 140.825C154.924 138.967 153.418 137.461 151.56 137.461C149.703 137.461 148.197 138.967 148.197 140.825C148.197 142.682 149.703 144.188 151.56 144.188Z" fill="#213F7D"/>
<path d="M168.981 162.411C175.311 161.521 180.304 158.345 182.099 157.071C182.759 156.602 183.62 156.497 184.357 156.834C185.089 157.168 185.591 157.876 184.499 159.382C182.501 162.137 172.461 164.527 168.902 163.432C168.634 163.348 168.478 163.069 168.55 162.795C168.605 162.593 168.776 162.443 168.981 162.411Z" fill="#2A7DB3"/>
<path d="M186.336 170.016C184.62 169.916 182.844 169.837 181.014 169.782C178.877 169.716 176.674 169.682 174.419 169.682C174.166 169.682 173.916 169.682 173.663 169.684H173.661C170.868 168.605 167.707 167.674 164.294 167.158L165.915 165.11V165.107C171.545 164.655 181.507 166.973 186.336 170.016Z" fill="#B1E0FF"/>
<path d="M192.055 166.216C193.913 166.216 195.419 164.71 195.419 162.852C195.419 160.994 193.913 159.488 192.055 159.488C190.198 159.488 188.692 160.994 188.692 162.852C188.692 164.71 190.198 166.216 192.055 166.216Z" fill="#2A7DB3"/>
<path d="M90.9335 105.513L114.521 102.699" stroke="#213F7D" stroke-width="0.789583" stroke-miterlimit="10" stroke-linecap="round"/>
<path d="M68.1487 109.735L22.9476 175.368" stroke="#213F7D" stroke-width="0.789583" stroke-miterlimit="10" stroke-linecap="round"/>
<path d="M139.188 175.369L116.285 107.891L113.832 100.664" stroke="#213F7D" stroke-width="0.789583" stroke-miterlimit="10" stroke-linecap="round"/>
<path d="M93.4128 175.369L106.43 136.964L116.284 107.892" stroke="#213F7D" stroke-width="0.789583" stroke-miterlimit="10" stroke-linecap="round"/>
<path d="M209.758 175.369L209.626 175.161L209.15 174.409L142.696 69.4678" stroke="#213F7D" stroke-width="0.789583" stroke-miterlimit="10" stroke-linecap="round"/>
<path d="M172.013 59.0158L105.975 72.765L106.101 77.2236L171.56 63.3506L176.185 19.0918L139.277 27.6798L135.176 66.6852" stroke="#213F7D" stroke-width="0.789583" stroke-miterlimit="10" stroke-linecap="round"/>
<path d="M75.0575 180.37C85.9932 179.404 93.4127 177.525 93.4127 175.37C93.4127 173.411 87.2987 171.685 77.9869 170.661C72.3414 170.04 65.5246 169.677 58.1789 169.677C53.3308 169.677 48.7144 169.835 44.5112 170.122C34.0939 170.83 26.227 172.324 23.7609 174.146C23.2293 174.541 22.9476 174.949 22.9476 175.37C22.9476 177.509 30.2539 179.375 41.0581 180.349" stroke="#213F7D" stroke-width="0.789583" stroke-miterlimit="10" stroke-linecap="round"/>
<path d="M184.481 180.828C199.035 180.128 209.65 177.949 209.65 175.37C209.65 175.301 209.642 175.23 209.626 175.162C209.571 174.906 209.41 174.654 209.15 174.409C206.692 172.069 195.401 170.216 181.014 169.777C178.877 169.711 176.674 169.677 174.419 169.677C163.186 169.677 153.179 170.527 146.728 171.848C142.004 172.817 139.188 174.041 139.188 175.37C139.188 176.891 142.875 178.27 148.886 179.294" stroke="#213F7D" stroke-width="0.789583" stroke-miterlimit="10" stroke-linecap="round"/>
<path d="M91.0282 109.154C88.4726 110.022 83.9194 110.483 74.4707 110.483C72.2625 110.483 70.0964 110.312 67.9803 109.983C67.5066 109.907 67.0381 109.825 66.5696 109.736C61.2162 108.712 56.2181 106.664 51.7754 103.798C39.8553 96.1153 31.9385 82.5581 31.9385 67.1139C31.9385 51.2959 40.2449 37.4545 52.6519 29.8771C57.7763 26.7504 63.6008 24.6896 69.8306 24" stroke="#213F7D" stroke-width="0.789583" stroke-miterlimit="10" stroke-linecap="round"/>
<path d="M91.0284 109.153C90.9573 106.834 90.7415 103.447 90.1467 99.6277C88.2201 84.4467 82.3272 70.35 64.4721 70.7421C59.5819 70.85 55.6287 70.2631 52.4336 69.2709C40.4372 65.5361 39.1264 56.0664 39.1264 56.0664" stroke="#213F7D" stroke-width="0.789583" stroke-miterlimit="10" stroke-linecap="round"/>
<path d="M59.8029 70.5627L58.8686 63.4512" stroke="#213F7D" stroke-width="0.789583" stroke-miterlimit="10" stroke-linecap="round"/>
<path d="M78.6082 56.5019C78.6082 56.5019 87.7779 57.3704 100.253 49.4298L103.809 68.3851C99.0505 72.4357 92.8812 74.8781 86.1434 74.8781C71.0808 74.8781 58.8686 62.6659 58.8686 47.6033C58.8686 32.5406 68.9437 20.1389 83.8615 18.0492C103.706 15.2698 118.859 31.5195 118.859 46.5821" stroke="#213F7D" stroke-width="0.789583" stroke-miterlimit="10" stroke-linecap="round" stroke-linejoin="round"/>
<path d="M120.367 54.4287L123.459 62.0455C123.467 62.0587 123.472 62.0745 123.48 62.0876C123.686 62.5009 123.988 62.8351 124.343 63.072C124.715 63.3168 125.146 63.451 125.596 63.451C126.991 63.451 128.083 62.1798 127.989 60.6848C127.739 56.7132 126.228 49.557 118.859 46.6513C111.552 43.7693 104.283 48.1989 100.572 51.1282" stroke="#213F7D" stroke-width="0.789583" stroke-miterlimit="10" stroke-linecap="round" stroke-linejoin="round"/>
<path d="M109.534 64.3955L103.57 67.1222" stroke="#213F7D" stroke-width="0.789583" stroke-miterlimit="10" stroke-linecap="round" stroke-linejoin="round"/>
<path d="M114.031 63.8714L114.708 67.7299C114.734 67.8772 114.745 68.022 114.745 68.1668C114.745 69.2406 114.066 70.2039 113.063 70.4671C111.863 70.7803 110.657 69.967 110.394 68.6695L109.533 64.3952L108.694 60.2314" stroke="#213F7D" stroke-width="0.789583" stroke-miterlimit="10" stroke-linecap="round" stroke-linejoin="round"/>
<path d="M111.563 59.5649L115.774 66.9159C116.421 68.0477 117.811 68.3819 118.845 67.6581C119.827 66.9712 120.138 65.5789 119.551 64.4893L116.048 57.9805" stroke="#213F7D" stroke-width="0.789583" stroke-miterlimit="10" stroke-linecap="round" stroke-linejoin="round"/>
<path d="M123.48 62.087L123.483 62.0896L123.57 62.4976C123.617 62.6976 123.641 62.8976 123.641 63.095C123.641 64.103 123.038 65.0321 122.106 65.3506C120.927 65.7506 119.672 65.0295 119.327 63.753L117.261 60.2314" stroke="#213F7D" stroke-width="0.789583" stroke-miterlimit="10" stroke-linecap="round" stroke-linejoin="round"/>
<path d="M51.7756 103.799L1.98183 224.163" stroke="#213F7D" stroke-width="0.789583" stroke-miterlimit="10" stroke-linecap="round"/>
<path d="M142.504 224.164L106.43 136.965" stroke="#213F7D" stroke-width="0.789583" stroke-miterlimit="10" stroke-linecap="round"/>
<path d="M99.5085 217.184H28.6197" stroke="#213F7D" stroke-width="0.789583" stroke-miterlimit="10" stroke-linecap="round"/>
<path d="M227.244 217.184H159.872" stroke="#213F7D" stroke-width="0.789583" stroke-miterlimit="10" stroke-linecap="round"/>
<path d="M146.728 171.847L148.886 179.292L159.872 217.182L161.896 224.162H218.18C222.531 224.162 226.187 221.201 227.245 217.182C227.445 216.419 227.553 215.616 227.553 214.79C227.553 212.808 226.929 210.934 225.839 209.389C224.747 207.841 223.189 206.625 221.323 205.962L188.723 194.358L184.481 180.827L181.014 169.775" stroke="#213F7D" stroke-width="0.789583" stroke-miterlimit="10" stroke-linecap="round"/>
<path d="M77.987 170.662L75.0577 180.371L71.0834 193.538L93.6945 202.719C98.2925 204.772 100.956 209.635 100.211 214.615C100.077 215.513 99.8374 216.373 99.5084 217.184C98.832 218.85 97.7687 220.303 96.4422 221.448C94.4656 223.148 91.9021 224.164 89.1254 224.164H26.2641L28.6196 217.184L41.0582 180.35L44.5113 170.122" stroke="#213F7D" stroke-width="0.789583" stroke-miterlimit="10" stroke-linecap="round"/>
<path d="M72.7546 187.997H38.4761" stroke="#213F7D" stroke-width="0.789583" stroke-miterlimit="10" stroke-linecap="round"/>
<path d="M151.41 187.997H186.615" stroke="#213F7D" stroke-width="0.789583" stroke-miterlimit="10" stroke-linecap="round"/>
<path d="M43.827 172.144C43.827 172.144 68.3251 170.121 75.7761 177.569" stroke="#213F7D" stroke-width="0.789583" stroke-miterlimit="10" stroke-linecap="round"/>
<path d="M147.565 174.731C147.565 174.731 173.992 170.891 183.459 177.568" stroke="#213F7D" stroke-width="0.789583" stroke-miterlimit="10" stroke-linecap="round"/>
<path d="M131.944 67.3604L114.613 68.9685" stroke="#213F7D" stroke-width="0.789583" stroke-miterlimit="10" stroke-linecap="round"/>
<path d="M110.634 69.3379L101.438 70.1906" stroke="#213F7D" stroke-width="0.789583" stroke-miterlimit="10" stroke-linecap="round"/>
<path d="M89.5202 15.1298C91.4941 15.1298 93.0944 13.5296 93.0944 11.5556C93.0944 9.58166 91.4941 7.98145 89.5202 7.98145C87.5462 7.98145 85.946 9.58166 85.946 11.5556C85.946 13.5296 87.5462 15.1298 89.5202 15.1298Z" stroke="#213F7D" stroke-width="0.789583" stroke-miterlimit="10" stroke-linecap="round"/>
<path d="M93.2706 8.33693C93.1337 8.27113 92.989 8.23165 92.8442 8.21586C92.8337 8.08953 92.7995 7.96319 92.7468 7.84213C92.4599 7.17098 91.6835 6.86041 91.015 7.14466C90.8386 7.22099 90.6886 7.3289 90.5676 7.46049C90.2043 7.01833 89.5832 6.84989 89.0305 7.08413C88.9068 7.13677 88.7963 7.20783 88.6989 7.28942C88.2278 7.01043 87.6356 6.95253 87.096 7.18414C86.3907 7.48418 85.9775 8.18954 86.0169 8.91596C85.3563 9.2739 85.0642 10.0793 85.3642 10.7846C85.4011 10.8715 85.4458 10.9505 85.4958 11.0294C85.1668 11.4663 85.0721 12.0664 85.3037 12.6112C85.6458 13.4166 86.5828 13.793 87.3882 13.4482C88.0041 13.1876 88.3673 12.5823 88.3488 11.9506C88.4015 11.9401 88.4541 11.9216 88.5068 11.898C88.7726 11.7848 88.97 11.5821 89.0858 11.3426C89.399 11.5216 89.7911 11.5584 90.1465 11.4058C90.2596 11.3584 90.3596 11.2952 90.4491 11.2189C90.4597 11.2268 90.4728 11.2321 90.486 11.24C91.0913 11.5295 91.8177 11.29 92.1309 10.7031H92.1336C92.7863 11.0163 93.5706 10.7399 93.8838 10.0872C94.197 9.43182 93.9207 8.6475 93.2706 8.33693Z" fill="#213F7D" stroke="#213F7D" stroke-width="0.789583" stroke-miterlimit="10"/>
<path d="M176.185 105.227L201.533 142.092" stroke="#213F7D" stroke-width="0.789583" stroke-miterlimit="10" stroke-linecap="round"/>
<path d="M179.856 91.125L201.533 123.658" stroke="#213F7D" stroke-width="0.789583" stroke-miterlimit="10" stroke-linecap="round"/>
<path d="M13.1149 172.958L1.78964 192.806" stroke="#213F7D" stroke-width="0.789583" stroke-miterlimit="10" stroke-linecap="round"/>
<path d="M10.6434 165.938L1 183.422" stroke="#213F7D" stroke-width="0.789583" stroke-miterlimit="10" stroke-linecap="round"/>
<path d="M28.8932 53.292C28.8932 53.292 22.4108 68.0388 30.0987 83.4646" stroke="#213F7D" stroke-width="0.789583" stroke-miterlimit="10" stroke-linecap="round"/>
<path d="M23.2741 53.8809C23.2741 53.8809 20.0553 61.2003 20.8422 70.9201" stroke="#213F7D" stroke-width="0.789583" stroke-miterlimit="10" stroke-linecap="round"/>
<path d="M36.0811 109.368C38.3691 109.368 40.2238 107.514 40.2238 105.226C40.2238 102.938 38.3691 101.083 36.0811 101.083C33.7932 101.083 31.9385 102.938 31.9385 105.226C31.9385 107.514 33.7932 109.368 36.0811 109.368Z" stroke="#213F7D" stroke-width="0.789583" stroke-miterlimit="10" stroke-linecap="round"/>
<path d="M22.9478 113.424C24.1267 113.424 25.0823 112.469 25.0823 111.29C25.0823 110.111 24.1267 109.155 22.9478 109.155C21.769 109.155 20.8133 110.111 20.8133 111.29C20.8133 112.469 21.769 113.424 22.9478 113.424Z" stroke="#213F7D" stroke-width="0.789583" stroke-miterlimit="10" stroke-linecap="round"/>
<path d="M178.101 15.1309L186.589 6.64551" stroke="#213F7D" stroke-width="0.789583" stroke-miterlimit="10" stroke-linecap="round"/>
<path d="M182.343 21.8379H196.098" stroke="#213F7D" stroke-width="0.789583" stroke-miterlimit="10" stroke-linecap="round"/>
<path d="M170.639 13.5781L170.1 1" stroke="#213F7D" stroke-width="0.789583" stroke-miterlimit="10" stroke-linecap="round"/>
<path d="M16.5681 224.161H108.694" stroke="#213F7D" stroke-width="0.789583" stroke-miterlimit="10" stroke-linecap="round"/>
<path d="M147.497 224.161H239.62" stroke="#213F7D" stroke-width="0.789583" stroke-miterlimit="10" stroke-linecap="round"/>
<path d="M188.863 194.424C188.863 194.424 205.639 213.243 208.176 202.668C210.713 192.093 188.863 194.424 188.863 194.424Z" stroke="#213F7D" stroke-width="0.789583" stroke-miterlimit="10" stroke-linejoin="round"/>
<path d="M188.863 194.424C188.863 194.424 210.168 180.191 200.091 176.101C190.016 172.008 188.863 194.424 188.863 194.424Z" stroke="#213F7D" stroke-width="0.789583" stroke-miterlimit="10" stroke-linejoin="round"/>
<path d="M202.736 178.759C202.52 177.677 201.71 176.759 200.091 176.101C196.14 174.495 193.561 176.969 191.884 180.567" stroke="#213F7D" stroke-width="0.789583" stroke-miterlimit="10" stroke-linejoin="round"/>
<path d="M188.863 194.423C188.863 194.423 205.72 188.073 214.282 186.996" stroke="#213F7D" stroke-width="0.789583" stroke-miterlimit="10" stroke-linejoin="round"/>
<path d="M190.097 193.967C190.097 193.967 202.339 182.768 210.813 180.768" stroke="#213F7D" stroke-width="0.789583" stroke-miterlimit="10" stroke-linejoin="round"/>
<path d="M71.0913 193.304C71.0913 193.304 83.2877 215.365 88.1016 205.613C92.918 195.859 71.0913 193.304 71.0913 193.304Z" stroke="#213F7D" stroke-width="0.789583" stroke-miterlimit="10" stroke-linejoin="round"/>
<path d="M71.0913 193.304C71.0913 193.304 95.0157 184.137 86.0934 177.917C77.1711 171.698 71.0913 193.304 71.0913 193.304Z" stroke="#213F7D" stroke-width="0.789583" stroke-miterlimit="10" stroke-linejoin="round"/>
<path d="M87.0857 178.752C86.8146 178.468 86.4856 178.189 86.0934 177.915C82.7482 175.583 79.8004 177.165 77.4264 180.05" stroke="#213F7D" stroke-width="0.789583" stroke-miterlimit="10" stroke-linejoin="round"/>
<path d="M71.0913 193.303C71.0913 193.303 88.9359 190.837 97.5239 191.682" stroke="#213F7D" stroke-width="0.789583" stroke-miterlimit="10" stroke-linejoin="round"/>
<path d="M72.3967 193.13C72.3967 193.13 86.8119 184.915 95.5183 184.842" stroke="#213F7D" stroke-width="0.789583" stroke-miterlimit="10" stroke-linejoin="round"/>
<path d="M133.152 27.6831C133.152 26.9514 134.687 26.5277 134.95 25.8908C135.224 25.2302 134.447 23.8484 134.945 23.3509C135.442 22.8535 136.824 23.6299 137.485 23.3562C138.122 23.093 138.543 21.5586 139.277 21.5586C140.009 21.5586 140.432 23.093 141.069 23.3562C141.73 23.6299 143.112 22.8535 143.609 23.3509C144.107 23.8484 143.33 25.2302 143.604 25.8908C143.867 26.5277 145.402 26.9488 145.402 27.6831C145.402 28.4148 143.867 28.8386 143.604 29.4755C143.33 30.1361 144.107 31.5179 143.609 32.0153C143.112 32.5127 141.73 31.7363 141.069 32.01C140.432 32.2732 140.011 33.8077 139.277 33.8077C138.545 33.8077 138.122 32.2732 137.485 32.01C136.824 31.7363 135.442 32.5127 134.945 32.0153C134.447 31.5179 135.224 30.1361 134.95 29.4755C134.687 28.8386 133.152 28.4174 133.152 27.6831Z" fill="#FFF1D7"/>
<path d="M83.9246 148.832C83.9246 146.737 88.312 145.532 89.0674 143.711C89.8491 141.823 87.6303 137.873 89.0542 136.449C90.4781 135.025 94.426 137.246 96.3158 136.462C98.1371 135.707 99.3425 131.319 101.438 131.319C103.533 131.319 104.738 135.707 106.559 136.462C108.446 137.244 112.397 135.025 113.821 136.449C115.245 137.873 113.023 141.821 113.808 143.711C114.563 145.532 118.95 146.737 118.95 148.832C118.95 150.927 114.563 152.133 113.808 153.954C113.026 155.841 115.245 159.792 113.821 161.216C112.397 162.639 108.449 160.418 106.559 161.202C104.738 161.958 103.533 166.345 101.438 166.345C99.3425 166.345 98.1371 161.958 96.3158 161.202C94.4287 160.421 90.4781 162.639 89.0542 161.216C87.6303 159.792 89.8517 155.844 89.0674 153.954C88.312 152.133 83.9246 150.927 83.9246 148.832Z" fill="#FF5050"/>
</svg>
