<svg width="24" height="24" viewBox="0 0 24 24" fill="none" xmlns="http://www.w3.org/2000/svg">
<path fill-rule="evenodd" clip-rule="evenodd" d="M17 9.00023H4C3.44771 9.00023 3 8.55252 3 8.00023C3 7.44795 3.44771 7.00023 4 7.00023H17.08L15.51 5.79023C15.0737 5.45057 14.9953 4.82154 15.335 4.38523C15.6747 3.94893 16.3037 3.87058 16.74 4.21023L20.6 7.21023C20.6709 7.26434 20.7343 7.3277 20.7884 7.39862C21.1234 7.83769 21.0391 8.46521 20.6 8.80023L16.6 11.8002C16.4269 11.9301 16.2164 12.0002 16 12.0002C15.6852 12.0002 15.3889 11.852 15.2 11.6002C14.8686 11.1584 14.9582 10.5316 15.4 10.2002L17 9.00023ZM7.00126 16.0002H20.0013C20.5535 16.0002 21.0013 16.4479 21.0013 17.0002C21.0013 17.5525 20.5535 18.0002 20.0013 18.0002H6.92126L8.49126 19.2102C8.92336 19.5507 8.99932 20.1762 8.66126 20.6102C8.47246 20.8554 8.18075 20.9994 7.87126 21.0002C7.65031 20.9995 7.43581 20.9256 7.26126 20.7902L3.40126 17.7902C3.33034 17.7361 3.26698 17.6727 3.21286 17.6018C2.87784 17.1627 2.96219 16.5352 3.40126 16.2002L7.40126 13.2002C7.84308 12.8688 8.46988 12.9584 8.80126 13.4002C9.13263 13.842 9.04308 14.4688 8.60126 14.8002L7.00126 16.0002Z" fill="#213F7D"/>
</svg>
