<svg width="19" height="19" viewBox="0 0 19 19" fill="none" xmlns="http://www.w3.org/2000/svg">
<path d="M0.875 0.731792C0.876174 0.537284 0.951287 0.351161 1.08394 0.214055C1.2166 0.0769479 1.39602 -8.8357e-06 1.58303 7.60893e-10H3.70712C3.8949 7.60893e-10 4.07499 0.0775842 4.20777 0.215689C4.34056 0.353794 4.41515 0.541101 4.41515 0.736413V13.9858C4.41515 14.1811 4.48975 14.3683 4.62252 14.5064C4.75531 14.6445 4.9354 14.7221 5.12318 14.7221H14.329C14.5169 14.7221 14.6969 14.6445 14.8297 14.5064C14.9625 14.3683 15.0371 14.1811 15.0371 13.9858V11.7796C15.0371 11.5843 14.9625 11.3969 14.8297 11.2588C14.6969 11.1207 14.5169 11.0431 14.329 11.0431H10.0809C9.51753 11.0431 8.97726 10.8104 8.57892 10.396C8.18057 9.98179 7.95679 9.41979 7.95679 8.83393V2.20924C7.95679 1.62331 8.18057 1.06138 8.57892 0.647068C8.97726 0.232761 9.51753 7.60893e-10 10.0809 7.60893e-10H16.4502C17.0135 7.60893e-10 17.5538 0.232761 17.9521 0.647068C18.3505 1.06138 18.5742 1.62331 18.5742 2.20924V16.2027C18.5742 16.7886 18.3505 17.3505 17.9521 17.7649C17.5538 18.1792 17.0135 18.412 16.4502 18.412H2.99909C2.43575 18.412 1.89548 18.1792 1.49713 17.7649C1.09879 17.3505 0.875 16.7886 0.875 16.2027V0.731792ZM15.0371 4.41387C15.0371 4.21856 14.9625 4.03124 14.8297 3.89314C14.6969 3.75504 14.5169 3.67745 14.329 3.67745H11.4969V6.62465C11.4969 6.81996 11.5715 7.00727 11.7043 7.14538C11.8371 7.28348 12.0172 7.36107 12.2049 7.36107H15.0371V4.41387Z" fill="#57D4D4"/>
</svg>
