<svg width="115" height="24" viewBox="0 0 115 24" fill="none" xmlns="http://www.w3.org/2000/svg">
<path d="M0.875 0.731792C0.876174 0.537284 0.951287 0.351161 1.08394 0.214055C1.2166 0.0769479 1.39602 -8.8357e-06 1.58303 7.60893e-10H3.70712C3.8949 7.60893e-10 4.07499 0.0775842 4.20777 0.215689C4.34056 0.353794 4.41515 0.541101 4.41515 0.736413V13.9858C4.41515 14.1811 4.48975 14.3683 4.62252 14.5064C4.75531 14.6445 4.9354 14.7221 5.12318 14.7221H14.329C14.5169 14.7221 14.6969 14.6445 14.8297 14.5064C14.9625 14.3683 15.0371 14.1811 15.0371 13.9858V11.7796C15.0371 11.5843 14.9625 11.3969 14.8297 11.2588C14.6969 11.1207 14.5169 11.0431 14.329 11.0431H10.0809C9.51753 11.0431 8.97726 10.8104 8.57892 10.396C8.18057 9.98179 7.95679 9.41979 7.95679 8.83393V2.20924C7.95679 1.62331 8.18057 1.06138 8.57892 0.647068C8.97726 0.232761 9.51753 7.60893e-10 10.0809 7.60893e-10H16.4502C17.0135 7.60893e-10 17.5538 0.232761 17.9521 0.647068C18.3505 1.06138 18.5742 1.62331 18.5742 2.20924V16.2027C18.5742 16.7886 18.3505 17.3505 17.9521 17.7649C17.5538 18.1792 17.0135 18.412 16.4502 18.412H2.99909C2.43575 18.412 1.89548 18.1792 1.49713 17.7649C1.09879 17.3505 0.875 16.7886 0.875 16.2027V0.731792ZM15.0371 4.41387C15.0371 4.21856 14.9625 4.03124 14.8297 3.89314C14.6969 3.75504 14.5169 3.67745 14.329 3.67745H11.4969V6.62465C11.4969 6.81996 11.5715 7.00727 11.7043 7.14538C11.8371 7.28348 12.0172 7.36107 12.2049 7.36107H15.0371V4.41387Z" fill="#57D4D4"/>
<path d="M24.6435 0V18.3471H27.727V0H24.6435ZM42.9089 13.0211C43.3929 7.69227 40.7638 5.01405 36.5621 5.01405C32.4837 5.01405 29.8841 7.84826 29.8841 11.7855C29.8841 15.927 32.4583 18.6881 36.7913 18.6881C38.7031 18.6881 40.8697 18.0061 42.1956 16.5883L40.2074 14.5673C39.4941 15.328 37.9899 15.7752 36.8423 15.7752C34.6503 15.7752 33.2989 14.6197 33.0951 13.0142L42.9089 13.0211ZM33.1461 10.3704C33.6046 8.69036 34.9814 7.85103 36.664 7.85103C38.4484 7.85103 39.722 8.69036 39.9272 10.3704H33.1461ZM57.667 18.3485V11.5508C57.667 7.48242 55.2967 5.20042 52.3392 5.20042C50.7585 5.20042 49.4849 5.85616 48.2099 7.14281L48.0075 5.38403H45.2282V18.3499H48.3118V11.7344C48.3118 9.76581 49.6123 8.11194 51.5295 8.11194C53.5176 8.11194 54.5634 9.6084 54.5634 11.577V18.3485H57.667ZM66.431 8.08573C68.3938 8.08573 70.0764 9.60428 70.0764 11.8656C70.0764 14.2014 68.3938 15.6717 66.431 15.6717C64.4429 15.6717 62.8622 14.1227 62.8622 11.8656C62.8636 9.52558 64.4442 8.08573 66.431 8.08573ZM70.2815 0V7.16628C69.5428 5.82717 67.4781 5.0955 66.1522 5.0955C62.4814 5.0955 59.7545 7.40511 59.7545 11.867C59.7545 16.119 62.5323 18.6384 66.2286 18.6384C67.7583 18.6384 69.3121 18.1138 70.2815 16.5676L70.4853 18.3526H73.3918V0H70.2815ZM86.0384 6.74798C84.5855 5.43511 83.1081 5.04166 81.1434 5.04166C78.8498 5.04166 75.8413 6.09223 75.8413 9.08382C75.8413 12.023 78.6715 12.9162 81.042 13.0998C82.826 13.2047 83.5398 13.5719 83.5398 14.4651C83.5398 15.4094 82.4426 16.0403 81.271 16.0141C79.8687 15.9878 77.8295 15.2272 76.9379 14.2028L75.4136 16.4848C77.249 18.4534 79.2373 18.7944 81.2258 18.7944C84.82 18.7944 86.6293 16.8258 86.6293 14.5424C86.6293 11.1035 83.6214 10.5527 81.2512 10.4009C79.6421 10.2959 78.906 9.82378 78.906 8.98302C78.906 8.1699 79.7212 7.69639 81.1997 7.69639C82.3983 7.69639 83.4178 7.98493 84.309 8.85189L86.0384 6.74798ZM94.6843 15.5668C92.5692 15.5668 91.1155 13.9101 91.1155 11.8918C91.1155 9.8735 92.4416 8.21685 94.6843 8.21685C96.9278 8.21685 98.2531 9.8735 98.2531 11.8918C98.2531 13.9101 96.8003 15.5668 94.6843 15.5668ZM101.644 23.756V5.40888H98.7411L98.5375 7.19389C97.5695 5.74987 95.8869 5.12311 94.4593 5.12311C90.5847 5.12311 88.0109 8.0885 88.0109 11.8945C88.0109 15.6745 90.3297 18.666 94.3571 18.666C95.6833 18.666 97.6463 18.2518 98.5375 16.8285V23.7574L101.644 23.756ZM104.372 5.40888V18.3485H107.483V11.5246C107.483 9.13632 108.987 8.24306 110.618 8.24306C111.639 8.24306 112.227 8.5316 112.861 9.08247L114.264 6.3007C113.576 5.59248 112.326 5.06651 111.026 5.06651C109.751 5.06651 108.452 5.30258 107.483 6.90398L107.253 5.4075L104.372 5.40888Z" fill="white"/>
</svg>
