<svg width="559" height="555" viewBox="0 0 559 555" fill="none" xmlns="http://www.w3.org/2000/svg">
<path d="M494.84 91.0327V122.799H445.618V91.0327H369.268C373.531 82.5189 376.053 73.6058 377.382 65.6171H445.618H494.84V91.0327Z" fill="#FFB019"/>
<path d="M492.751 261.646C494.029 264.02 493.145 266.987 490.765 268.266C488.391 269.544 485.43 268.654 484.152 266.28C482.874 263.906 483.758 260.939 486.138 259.661C488.511 258.382 491.473 259.273 492.751 261.646Z" fill="white"/>
<path d="M451.569 518.648C461.247 523.566 463.672 533.815 460.619 542.043H343.259L334.197 492.079L332.297 481.614L332.6 481.557L402.889 479.217L406.929 495.743L406.986 495.977L407.066 496.017L407.283 496.131C407.289 496.131 407.288 496.131 407.294 496.136L445.623 515.623L451.569 518.648Z" fill="#EA5254"/>
<path d="M343.259 542.039H460.619C458.114 548.767 451.946 554.142 443.061 554.142H345.456L343.259 542.039Z" fill="white"/>
<path d="M445.652 444.702L446.388 446.271C446.388 451.127 425.714 455.236 397.354 456.559L393.251 439.777L392.276 435.783C419.991 436.719 441.475 440.262 445.646 444.696L445.652 444.702Z" fill="white"/>
<path d="M445.646 444.698C441.475 440.264 419.991 436.721 392.276 435.785C387.557 435.625 382.661 435.539 377.634 435.539C369.81 435.539 362.301 435.745 355.294 436.121H355.288C350.786 436.361 346.489 436.669 342.466 437.046H342.46C335.676 437.679 329.656 438.489 324.645 439.431C314.802 441.291 308.879 443.676 308.879 446.273L294.825 378.814V378.808L288.417 348.046L269.432 256.911L268.091 250.486L248.946 158.593H247.765L228.969 248.82L227.645 255.165V255.171L208.729 345.974L202.355 376.56L187.833 446.273C187.833 443.676 181.915 441.291 172.066 439.431C166.811 438.444 160.437 437.599 153.241 436.96H153.236C149.156 436.589 144.819 436.287 140.271 436.059H140.265C133.589 435.722 126.473 435.539 119.078 435.539C114.051 435.539 109.155 435.625 104.436 435.785C76.7206 436.721 55.2366 440.264 51.0654 444.698L60.1383 425.382C60.1383 425.376 60.1383 425.377 60.1497 425.371L67.7847 409.137L111.272 316.633L115.226 308.227L121.634 294.595L126.462 284.324L177.733 175.278L182.948 164.185L190.783 147.523L195.102 138.335L207.382 112.212C210.492 115.225 213.967 117.867 217.733 120.053C220.255 121.531 222.909 122.803 225.676 123.847C229.705 125.382 233.968 126.444 238.39 126.963C240.484 127.214 242.613 127.34 244.769 127.34C246.173 127.34 247.566 127.288 248.941 127.18C253.323 126.843 257.557 125.981 261.58 124.663C263.737 123.95 265.837 123.105 267.863 122.141C270.87 120.709 273.723 119.008 276.388 117.068C282.105 121.234 288.673 124.292 295.783 125.941L302.18 139.545L306.534 148.812L314.523 165.8L319.555 176.504L370.672 285.231L375.91 296.376L381.97 309.26L385.908 317.637L430.245 411.938L437.971 428.372L445.646 444.698Z" fill="#69C3CA"/>
<path d="M392.275 435.783L393.251 439.778C393.251 439.778 345.849 439.361 326.636 450.408L324.645 439.43C337.256 437.05 356.309 435.538 377.633 435.538C382.66 435.538 387.556 435.624 392.275 435.783Z" fill="white"/>
<path d="M370.803 50.8302C373.759 50.8302 376.156 53.2268 376.156 56.1827C376.156 59.1385 373.759 61.5408 370.803 61.5408C367.847 61.5408 365.451 59.1385 365.451 56.1827C365.451 53.2268 367.847 50.8302 370.803 50.8302Z" fill="#3352A0"/>
<path d="M355.367 52.1902C358.329 52.1902 360.726 54.5868 360.726 57.5426C360.726 60.4985 358.329 62.8951 355.367 62.8951C352.412 62.8951 350.015 60.4985 350.015 57.5426C350.015 54.5868 352.412 52.1902 355.367 52.1902Z" fill="#3352A0"/>
<path d="M354.317 34.2406C355.596 36.6144 354.705 39.5759 352.332 40.8541C349.958 42.1323 346.991 41.2478 345.712 38.8683C344.434 36.4945 345.324 33.533 347.698 32.2548C350.078 30.9766 353.039 31.8611 354.317 34.2406Z" fill="white"/>
<path d="M339.96 53.6653C342.922 53.6653 345.319 56.0619 345.319 59.0177C345.319 61.9736 342.922 64.3702 339.96 64.3702C337.005 64.3702 334.608 61.9736 334.608 59.0177C334.608 56.0619 337.005 53.6653 339.96 53.6653Z" fill="#3352A0"/>
<path d="M324.36 52.6265C327.316 52.6265 329.712 55.0231 329.712 57.9789C329.712 60.9405 327.316 63.3371 324.36 63.3371C321.404 63.3371 319.007 60.9405 319.007 57.9789C319.007 55.0231 321.404 52.6265 324.36 52.6265Z" fill="#3352A0"/>
<path d="M326.637 450.408L327.213 453.57C315.835 451.652 308.879 449.085 308.879 446.271C308.879 443.675 314.802 441.29 324.645 439.43L326.637 450.408Z" fill="white"/>
<path d="M297.974 65.6171H314.699C311.315 78.6045 303.909 87.044 299.623 91.0327H298.528H295.652H260.427C236.41 93.047 228.951 76.4133 226.635 65.6171H297.974Z" fill="#FFB019"/>
<path d="M307.549 14.0043C308.137 15.0884 307.732 16.4465 306.642 17.0286C305.558 17.6163 304.2 17.2055 303.618 16.1213C303.03 15.0371 303.435 13.679 304.525 13.0913C305.609 12.5092 306.967 12.9144 307.549 14.0043Z" fill="white"/>
<path d="M193.887 91.0316H184.728C178.999 109.434 161.829 122.798 141.538 122.798C116.562 122.798 96.3101 102.547 96.3101 77.5706C96.3101 52.5886 116.562 32.3429 141.538 32.3429C162.383 32.3429 179.929 46.4373 185.168 65.616H191.564H191.57C191.182 68.2066 190.982 70.8543 190.982 73.5534C190.982 79.6705 192.004 85.5536 193.887 91.0316ZM165.829 77.5706C165.829 64.1552 154.953 53.2791 141.538 53.2791C128.122 53.2791 117.252 64.1552 117.252 77.5706C117.252 90.9859 128.122 101.862 141.538 101.862C154.953 101.862 165.829 90.9859 165.829 77.5706Z" fill="#FFB019"/>
<path d="M170.303 449.125L172.066 439.43C181.915 441.29 187.832 443.675 187.832 446.271C187.832 449.085 180.876 451.658 169.498 453.57L170.303 449.125Z" fill="white"/>
<path d="M172.066 439.43L170.303 449.125C150.947 438.22 103.46 439.778 103.46 439.778L104.435 435.783C109.154 435.624 114.05 435.538 119.078 435.538C140.402 435.538 159.455 437.05 172.066 439.43Z" fill="white"/>
<path d="M164.42 481.555L161.995 494.953L153.452 542.041H36.0921C33.0393 533.813 35.4644 523.564 45.1422 518.646L47.6472 517.373L88.4925 496.602L88.9034 496.391L89.1145 496.283L89.5082 496.083L89.7251 495.975L93.6909 479.74L93.8221 479.204L164.42 481.555Z" fill="#EA5254"/>
<path d="M153.452 542.039L151.255 554.142H53.6502C44.7656 554.142 38.5971 548.767 36.0921 542.039H153.452Z" fill="white"/>
<path d="M355.51 343.116C344.155 329.621 329.41 322.608 323.806 320.28C321.746 319.424 320.234 317.563 319.943 315.349C319.652 313.147 320.571 310.933 325.689 311.281C335.059 311.914 355.362 331.88 358.015 341.804C358.215 342.557 357.787 343.333 357.04 343.561C356.486 343.732 355.881 343.561 355.51 343.116Z" fill="#50B5B2"/>
<path d="M385.908 317.637C382.387 323.178 378.01 331.64 376.127 341.723C376.042 342.197 375.676 342.568 375.203 342.67C374.575 342.807 373.947 342.425 373.782 341.797C371.933 334.682 376.504 316.827 381.97 309.26L385.908 317.637Z" fill="#38A6A0"/>
<path d="M364.868 352.845C362.637 329.661 351.87 310.978 347.516 304.245C345.912 301.768 345.673 298.613 347.008 295.988C348.343 293.375 351.002 291.663 356.309 295.874C366.021 303.589 373.125 340.52 368.572 353.29C368.224 354.26 367.18 354.779 366.198 354.471C365.468 354.243 364.943 353.604 364.868 352.845Z" fill="#25968E"/>
<path d="M339.373 348.242C341.923 348.242 343.99 346.175 343.99 343.625C343.99 341.076 341.923 339.009 339.373 339.009C336.824 339.009 334.757 341.076 334.757 343.625C334.757 346.175 336.824 348.242 339.373 348.242Z" fill="#38A6A0"/>
<path d="M375.91 296.376C372.412 295.646 369.782 292.542 369.782 288.827C369.782 287.532 370.101 286.305 370.672 285.232L375.91 296.376Z" fill="#25968E"/>
<path d="M437.971 428.375C426.873 416.078 413.218 409.59 407.871 407.376C405.811 406.52 404.299 404.66 404.008 402.446C403.717 400.243 404.636 398.029 409.754 398.377C414.873 398.725 423.261 404.842 430.245 411.941L437.971 428.375Z" fill="#50B5B2"/>
<path d="M423.437 435.338C425.987 435.338 428.054 433.271 428.054 430.721C428.054 428.172 425.987 426.105 423.437 426.105C420.888 426.105 418.821 428.172 418.821 430.721C418.821 433.271 420.888 435.338 423.437 435.338Z" fill="#50B5B2"/>
<path d="M280.69 245.142C299.041 239.852 312.474 228.36 317.244 223.835C318.996 222.168 321.507 221.501 323.824 222.186C326.129 222.865 327.915 224.753 325.319 229.661C320.565 238.648 291.874 249.941 280.89 248.195C280.057 248.063 279.48 247.293 279.577 246.46C279.652 245.838 280.085 245.319 280.69 245.142Z" fill="#50B5B2"/>
<path d="M272.986 266.15C286.054 275.154 293.62 287.754 296.188 292.575C297.13 294.35 298.933 295.543 300.941 295.611C302.939 295.68 304.844 294.664 304.091 290.11C302.71 281.774 283.069 265.311 273.951 263.793C273.26 263.679 272.604 264.13 272.461 264.815C272.353 265.328 272.558 265.853 272.986 266.15Z" fill="#38A6A0"/>
<path d="M327.071 266.737C316.491 272.255 284 265.579 269.432 256.911L268.091 250.486C291.595 258.035 314.22 255.667 322.66 254.349C325.815 253.853 329.045 255.005 331.053 257.488C333.051 259.953 333.576 263.342 327.071 266.737Z" fill="#25968E"/>
<path d="M287.292 233.949C290.053 233.949 292.291 231.711 292.291 228.951C292.291 226.19 290.053 223.952 287.292 223.952C284.532 223.952 282.294 226.19 282.294 228.951C282.294 231.711 284.532 233.949 287.292 233.949Z" fill="#38A6A0"/>
<path d="M324.714 299.142C329.324 299.142 333.062 295.404 333.062 290.794C333.062 286.183 329.324 282.445 324.714 282.445C320.103 282.445 316.365 286.183 316.365 290.794C316.365 295.404 320.103 299.142 324.714 299.142Z" fill="#38A6A0"/>
<path d="M306.534 148.811C295.823 155.408 278.539 161 270.578 159.733C269.745 159.596 269.169 158.831 269.266 157.992C269.34 157.37 269.78 156.851 270.379 156.68C284.416 152.634 295.578 144.954 302.18 139.544L306.534 148.811Z" fill="#50B5B2"/>
<path d="M262.676 177.685C275.743 186.69 283.309 199.289 285.877 204.111C286.819 205.886 288.622 207.078 290.631 207.147C292.628 207.215 294.534 206.199 293.78 201.646C292.399 193.309 272.759 176.847 263.64 175.329C262.95 175.215 262.293 175.665 262.151 176.35C262.042 176.864 262.248 177.394 262.676 177.685Z" fill="#38A6A0"/>
<path d="M319.555 176.505C318.819 177.093 317.9 177.686 316.765 178.274C304.856 184.488 265.192 175.25 254.561 165.115C253.756 164.351 253.705 163.084 254.441 162.251C254.841 161.794 255.406 161.549 255.993 161.549C256.21 161.549 256.427 161.583 256.638 161.652C280.553 169.658 303.777 167.232 312.354 165.886C313.079 165.772 313.809 165.749 314.522 165.8L319.555 176.505Z" fill="#25968E"/>
<path d="M276.987 145.485C279.748 145.485 281.986 143.247 281.986 140.486C281.986 137.726 279.748 135.488 276.987 135.488C274.226 135.488 271.988 137.726 271.988 140.486C271.988 143.247 274.226 145.485 276.987 145.485Z" fill="#38A6A0"/>
<path d="M314.408 210.677C319.019 210.677 322.757 206.94 322.757 202.329C322.757 197.719 319.019 193.981 314.408 193.981C309.798 193.981 306.06 197.719 306.06 202.329C306.06 206.94 309.798 210.677 314.408 210.677Z" fill="#38A6A0"/>
<path d="M330.665 387.479C355.196 380.409 373.165 365.037 379.539 358.988C381.885 356.763 385.24 355.867 388.338 356.78C391.42 357.693 393.805 360.215 390.336 366.777C383.979 378.795 345.616 393.893 330.934 391.559C329.821 391.383 329.045 390.355 329.182 389.237C329.279 388.41 329.861 387.713 330.665 387.479Z" fill="#50B5B2"/>
<path d="M355.288 436.123C350.785 436.363 346.489 436.671 342.466 437.047H342.46C337.205 430.103 329.878 422.126 320.365 415.575C319.892 415.25 319.624 414.707 319.624 414.148C319.624 414.028 319.635 413.914 319.658 413.794C319.846 412.876 320.725 412.271 321.649 412.425C330.357 413.874 346.255 425.526 355.288 436.123Z" fill="#38A6A0"/>
<path d="M312.285 394.131C344.263 404.835 375.317 401.594 386.786 399.797C391.003 399.135 395.323 400.676 398.01 403.991C400.681 407.295 401.383 411.826 392.686 416.362C376.766 424.665 323.732 412.316 309.518 398.77C308.44 397.743 308.371 396.048 309.353 394.935C310.083 394.102 311.241 393.777 312.285 394.131Z" fill="#25968E"/>
<path d="M339.499 372.514C343.189 372.514 346.181 369.522 346.181 365.832C346.181 362.142 343.189 359.15 339.499 359.15C335.808 359.15 332.817 362.142 332.817 365.832C332.817 369.522 335.808 372.514 339.499 372.514Z" fill="#38A6A0"/>
<path d="M309.849 377.737C308.491 361.925 313.41 348.076 315.499 343.026C316.269 341.171 316.041 339.026 314.819 337.428C313.604 335.842 311.607 335.02 308.571 338.495C303.013 344.857 302.796 370.49 307.418 378.49C307.767 379.095 308.537 379.317 309.153 378.986C309.621 378.747 309.895 378.256 309.849 377.737Z" fill="#25968E"/>
<path d="M305.307 391.989C305.227 393.102 304.28 393.946 303.167 393.906C302.346 393.878 301.609 393.364 301.313 392.594C299.43 387.675 297.216 383.076 294.825 378.813V378.808L288.417 348.045C297.706 361.512 306.038 381.917 305.307 391.989Z" fill="#25968E"/>
<path d="M295.989 330.482C300.599 330.482 304.337 326.745 304.337 322.134C304.337 317.524 300.599 313.786 295.989 313.786C291.378 313.786 287.64 317.524 287.64 322.134C287.64 326.745 291.378 330.482 295.989 330.482Z" fill="#25968E"/>
<path d="M141.304 341.528C152.659 328.033 167.404 321.02 173.008 318.692C175.068 317.836 176.58 315.976 176.871 313.762C177.162 311.559 176.243 309.345 171.125 309.693C161.755 310.327 141.452 330.293 138.799 340.216C138.599 340.969 139.027 341.745 139.775 341.973C140.328 342.145 140.927 341.968 141.304 341.528Z" fill="#50B5B2"/>
<path d="M123.032 340.21C122.867 340.837 122.239 341.22 121.606 341.083C121.138 340.98 120.773 340.609 120.681 340.135C118.867 330.401 114.724 322.172 111.272 316.631L115.226 308.226C120.522 316.078 124.835 333.265 123.032 340.21Z" fill="#38A6A0"/>
<path d="M131.946 351.258C134.177 328.074 144.944 309.391 149.298 302.658C150.902 300.181 151.141 297.026 149.806 294.401C148.471 291.788 145.812 290.076 140.505 294.287C130.793 302.002 123.689 338.933 128.242 351.703C128.59 352.673 129.635 353.192 130.616 352.884C131.346 352.656 131.871 352.017 131.946 351.258Z" fill="#25968E"/>
<path d="M157.441 346.655C159.991 346.655 162.057 344.588 162.057 342.038C162.057 339.489 159.991 337.422 157.441 337.422C154.892 337.422 152.825 339.489 152.825 342.038C152.825 344.588 154.892 346.655 157.441 346.655Z" fill="#25968E"/>
<path d="M127.032 287.233C127.032 290.691 124.761 293.612 121.634 294.594L126.462 284.322C126.833 285.218 127.032 286.205 127.032 287.233Z" fill="#50B5B2"/>
<path d="M92.8064 400.858C92.5153 403.067 91.0032 404.933 88.9432 405.788C83.8019 407.917 70.9914 413.988 60.1495 425.372L67.7845 409.138C74.5064 402.57 82.2327 397.115 87.0602 396.79C92.173 396.442 93.0974 398.656 92.8064 400.858Z" fill="#50B5B2"/>
<path d="M73.3766 433.746C75.9261 433.746 77.9929 431.679 77.9929 429.129C77.9929 426.58 75.9261 424.513 73.3766 424.513C70.8271 424.513 68.7603 426.58 68.7603 429.129C68.7603 431.679 70.8271 433.746 73.3766 433.746Z" fill="#25968E"/>
<path d="M216.124 243.555C197.773 238.265 184.34 226.773 179.57 222.248C177.818 220.581 175.307 219.914 172.991 220.599C170.685 221.278 168.899 223.166 171.496 228.074C176.249 237.061 204.94 248.354 215.924 246.608C216.757 246.476 217.334 245.706 217.237 244.873C217.163 244.251 216.723 243.726 216.124 243.555Z" fill="#50B5B2"/>
<path d="M223.827 264.563C210.76 273.567 203.194 286.167 200.626 290.988C199.684 292.763 197.881 293.956 195.873 294.024C193.875 294.093 191.969 293.077 192.723 288.523C194.104 280.187 213.744 263.724 222.863 262.206C223.553 262.092 224.21 262.543 224.352 263.228C224.461 263.741 224.255 264.266 223.827 264.563Z" fill="#38A6A0"/>
<path d="M228.969 248.819L227.645 255.164V255.17C213.208 263.906 180.386 270.697 169.744 265.145C163.239 261.755 163.764 258.366 165.761 255.895C167.764 253.413 170.999 252.266 174.149 252.762C182.617 254.086 205.368 256.465 228.969 248.819Z" fill="#25968E"/>
<path d="M209.516 232.362C212.277 232.362 214.515 230.124 214.515 227.364C214.515 224.603 212.277 222.365 209.516 222.365C206.755 222.365 204.517 224.603 204.517 227.364C204.517 230.124 206.755 232.362 209.516 232.362Z" fill="#38A6A0"/>
<path d="M172.095 297.555C176.705 297.555 180.443 293.817 180.443 289.207C180.443 284.596 176.705 280.858 172.095 280.858C167.484 280.858 163.746 284.596 163.746 289.207C163.746 293.817 167.484 297.555 172.095 297.555Z" fill="#38A6A0"/>
<path d="M226.235 158.142C218.389 159.392 201.522 153.988 190.782 147.523L195.102 138.336C201.761 143.728 212.729 151.141 226.435 155.089C227.034 155.266 227.468 155.786 227.542 156.408C227.645 157.246 227.068 158.011 226.235 158.142Z" fill="#50B5B2"/>
<path d="M234.133 176.098C221.065 185.103 213.499 197.702 210.931 202.524C209.989 204.299 208.186 205.491 206.178 205.56C204.181 205.628 202.275 204.613 203.028 200.059C204.409 191.722 224.05 175.26 233.168 173.742C233.859 173.628 234.515 174.078 234.658 174.763C234.772 175.277 234.561 175.802 234.133 176.098Z" fill="#38A6A0"/>
<path d="M242.247 163.529C231.616 173.663 191.958 182.896 180.049 176.687C179.147 176.214 178.377 175.746 177.732 175.278L182.948 164.185C183.45 164.185 183.958 164.219 184.46 164.299C193.036 165.646 216.261 168.071 240.176 160.065C240.387 159.996 240.604 159.962 240.82 159.962C241.402 159.962 241.973 160.208 242.372 160.658C243.109 161.497 243.057 162.764 242.247 163.529Z" fill="#25968E"/>
<path d="M219.827 143.898C222.588 143.898 224.826 141.66 224.826 138.899C224.826 136.139 222.588 133.901 219.827 133.901C217.066 133.901 214.828 136.139 214.828 138.899C214.828 141.66 217.066 143.898 219.827 143.898Z" fill="#25968E"/>
<path d="M182.406 209.095C187.016 209.095 190.754 205.358 190.754 200.747C190.754 196.136 187.016 192.399 182.406 192.399C177.795 192.399 174.058 196.136 174.058 200.747C174.058 205.358 177.795 209.095 182.406 209.095Z" fill="#25968E"/>
<path d="M217.733 120.054C216.323 120.893 215.119 121.537 214.212 122C212.546 122.85 211.41 124.505 211.313 126.371C211.211 128.231 212.129 130.017 216.381 129.389C218.903 129.018 222.252 126.867 225.676 123.848L217.733 120.054Z" fill="#38A6A0"/>
<path d="M270.767 128.6C270.305 130.078 269.072 131.202 265.945 129.478C264.519 128.691 263.012 126.95 261.58 124.662C263.737 123.949 265.837 123.104 267.863 122.14C268.61 123.053 269.266 123.795 269.78 124.354C270.83 125.495 271.235 127.116 270.767 128.6Z" fill="#25968E"/>
<path d="M248.941 127.181C247.474 133.053 245.443 137.92 242.972 140.225C238.824 144.094 236.484 142.839 235.2 140.745C233.905 138.645 233.899 135.991 235.075 133.817C235.925 132.231 237.112 129.903 238.39 126.964C240.484 127.215 242.612 127.341 244.769 127.341C246.173 127.341 247.566 127.289 248.941 127.181Z" fill="#25968E"/>
<path d="M261.129 151.161C264.696 151.161 267.588 148.269 267.588 144.702C267.588 141.135 264.696 138.243 261.129 138.243C257.562 138.243 254.67 141.135 254.67 144.702C254.67 148.269 257.562 151.161 261.129 151.161Z" fill="#38A6A0"/>
<path d="M166.149 385.897C141.617 378.827 123.648 363.454 117.275 357.406C114.929 355.18 111.574 354.285 108.476 355.198C105.394 356.111 103.009 358.633 106.478 365.195C112.835 377.212 151.198 392.311 165.886 389.977C166.999 389.8 167.769 388.773 167.638 387.655C167.535 386.822 166.953 386.125 166.149 385.897Z" fill="#50B5B2"/>
<path d="M177.19 412.555C177.19 413.115 176.922 413.657 176.449 413.982C166.246 421.012 158.554 429.68 153.241 436.961H153.236C149.156 436.59 144.819 436.288 140.271 436.06C149.007 425.081 166.029 412.356 175.165 410.838C176.089 410.684 176.968 411.289 177.156 412.207C177.179 412.322 177.19 412.441 177.19 412.555Z" fill="#38A6A0"/>
<path d="M184.523 392.544C152.545 403.249 121.491 400.008 110.022 398.211C105.805 397.549 101.485 399.09 98.7978 402.405C96.1272 405.709 95.4254 410.24 104.122 414.776C120.042 423.079 173.076 410.73 187.29 397.184C188.369 396.156 188.437 394.462 187.456 393.349C186.731 392.51 185.573 392.191 184.523 392.544Z" fill="#25968E"/>
<path d="M157.315 370.927C161.005 370.927 163.997 367.935 163.997 364.245C163.997 360.555 161.005 357.563 157.315 357.563C153.625 357.563 150.633 360.555 150.633 364.245C150.633 367.935 153.625 370.927 157.315 370.927Z" fill="#38A6A0"/>
<path d="M186.959 376.149C188.317 360.337 183.398 346.488 181.31 341.438C180.54 339.584 180.768 337.438 181.989 335.84C183.204 334.254 185.202 333.432 188.237 336.908C193.795 343.27 194.012 368.902 189.39 376.903C189.042 377.507 188.272 377.73 187.655 377.405C187.193 377.159 186.919 376.663 186.959 376.149Z" fill="#38A6A0"/>
<path d="M208.729 345.977L202.355 376.562C199.833 381.007 197.482 385.835 195.502 391.004C195.205 391.78 194.469 392.294 193.641 392.323C192.529 392.363 191.587 391.512 191.507 390.405C190.771 380.208 199.302 359.438 208.729 345.977Z" fill="#25968E"/>
<path d="M200.825 328.894C205.436 328.894 209.173 325.157 209.173 320.546C209.173 315.936 205.436 312.198 200.825 312.198C196.215 312.198 192.477 315.936 192.477 320.546C192.477 325.157 196.215 328.894 200.825 328.894Z" fill="#38A6A0"/>
<path d="M145.623 172.072C148.321 172.072 150.508 169.885 150.508 167.187C150.508 164.489 148.321 162.302 145.623 162.302C142.925 162.302 140.739 164.489 140.739 167.187C140.739 169.885 142.925 172.072 145.623 172.072Z" fill="white"/>
<path d="M105.469 187.736C106.701 187.736 107.7 188.734 107.7 189.967C107.7 191.205 106.701 192.204 105.469 192.204C104.23 192.204 103.232 191.205 103.232 189.967C103.232 188.734 104.23 187.736 105.469 187.736Z" fill="white"/>
<path d="M104.436 435.783L103.46 439.777L99.3573 456.559C70.9973 455.236 50.3235 451.127 50.3235 446.271L51.0596 444.702L51.0654 444.696C55.2366 440.262 76.7206 436.719 104.436 435.783Z" fill="white"/>
<path d="M187.833 447.128C187.775 447.128 187.718 447.122 187.656 447.111C187.193 447.014 186.897 446.563 186.994 446.101L246.989 158.124C247.086 157.662 247.537 157.365 248.005 157.462C248.467 157.559 248.764 158.015 248.667 158.478L248.604 158.774L188.671 446.449C188.586 446.848 188.232 447.128 187.833 447.128Z" fill="white"/>
<path d="M51.0652 445.555C50.9454 445.555 50.8198 445.526 50.7 445.475C50.272 445.275 50.0894 444.761 50.2891 444.333L206.606 111.848C206.806 111.42 207.319 111.237 207.747 111.437C208.175 111.637 208.358 112.15 208.158 112.578L51.8412 445.064C51.6929 445.372 51.3847 445.555 51.0652 445.555Z" fill="white"/>
<path d="M50.3234 447.13C50.2036 447.13 50.0781 447.107 49.9582 447.05C49.5303 446.85 49.3477 446.337 49.5474 445.909L50.2835 444.34C50.4832 443.912 50.9968 443.729 51.4247 443.929C51.8527 444.128 52.0353 444.642 51.8356 445.07L51.0995 446.639C50.9511 446.947 50.643 447.13 50.3234 447.13Z" fill="black"/>
<path d="M99.3573 457.416C99.3459 457.416 99.3288 457.416 99.3174 457.416C90.992 457.028 49.4677 454.665 49.4677 446.271C49.4677 445.518 49.7929 444.793 50.4377 444.114C54.7859 439.492 75.9674 435.886 104.407 434.927C109.229 434.762 114.165 434.682 119.078 434.682C139.695 434.682 159.067 436.109 172.226 438.591C183.302 440.685 188.689 443.196 188.689 446.271C188.689 449.552 182.28 452.291 169.641 454.414C169.173 454.488 168.734 454.18 168.654 453.712C168.574 453.244 168.888 452.805 169.356 452.725C182.36 450.54 186.977 447.881 186.977 446.271C186.977 445.746 186.252 442.979 171.906 440.268C158.851 437.803 139.592 436.394 119.078 436.394C114.182 436.394 109.269 436.474 104.464 436.639C77.3141 437.558 55.6133 441.107 51.6874 445.284C51.345 445.649 51.1795 445.969 51.1795 446.271C51.1795 446.756 51.8186 449.307 64.378 451.903C73.1257 453.712 85.5596 455.059 99.3973 455.704C99.8709 455.727 100.236 456.126 100.213 456.6C100.19 457.056 99.8138 457.416 99.3573 457.416Z" fill="white"/>
<path d="M151.255 554.998C151.204 554.998 151.153 554.993 151.101 554.987C150.639 554.901 150.325 554.456 150.411 553.994L171.222 439.281C171.307 438.814 171.752 438.511 172.214 438.591C172.677 438.677 172.991 439.122 172.905 439.584L152.1 554.296C152.02 554.707 151.661 554.998 151.255 554.998Z" fill="white"/>
<path d="M53.6504 555C45.2337 555 38.1979 550.15 35.2877 542.338C32.3319 534.378 34.038 523.325 44.7544 517.881L88.9891 495.387L103.609 435.58C103.723 435.123 104.185 434.838 104.641 434.952C105.098 435.066 105.383 435.528 105.269 435.985L90.4671 496.557L88.8864 497.355L45.5304 519.399C35.7499 524.369 34.1978 534.463 36.8969 541.733C38.9739 547.314 44.4691 553.277 53.6504 553.277C54.124 553.277 54.5063 553.659 54.5063 554.133C54.5063 554.606 54.124 555 53.6504 555Z" fill="white"/>
<path d="M445.646 445.552C445.327 445.552 445.018 445.369 444.87 445.061L295.007 126.305C294.807 125.877 294.99 125.369 295.418 125.163C295.846 124.964 296.354 125.146 296.559 125.574L446.422 444.33C446.622 444.758 446.439 445.266 446.011 445.472C445.892 445.523 445.766 445.552 445.646 445.552Z" fill="white"/>
<path d="M446.388 447.13C446.068 447.13 445.76 446.947 445.612 446.639L444.876 445.07C444.676 444.642 444.859 444.134 445.287 443.929C445.715 443.729 446.222 443.912 446.428 444.34L447.164 445.909C447.364 446.337 447.181 446.845 446.753 447.05C446.633 447.107 446.508 447.13 446.388 447.13Z" fill="black"/>
<path d="M397.354 457.415C396.898 457.415 396.521 457.056 396.498 456.599C396.475 456.126 396.84 455.726 397.314 455.704C411.152 455.059 423.586 453.706 432.333 451.903C444.898 449.307 445.532 446.756 445.532 446.271C445.532 445.969 445.366 445.649 445.03 445.29C441.098 441.107 419.397 437.558 392.247 436.639C387.442 436.474 382.529 436.394 377.633 436.394C357.119 436.394 337.861 437.809 324.805 440.268C310.465 442.979 309.735 445.74 309.735 446.271C309.735 447.88 314.351 450.534 327.356 452.725C327.823 452.805 328.137 453.244 328.057 453.712C327.978 454.18 327.532 454.488 327.07 454.414C314.431 452.286 308.023 449.547 308.023 446.271C308.023 443.196 313.409 440.679 324.485 438.591C337.644 436.108 357.017 434.682 377.633 434.682C382.546 434.682 387.482 434.767 392.304 434.927C420.744 435.886 441.925 439.492 446.268 444.108C446.918 444.793 447.244 445.518 447.244 446.271C447.244 454.665 405.719 457.027 397.394 457.415C397.383 457.415 397.365 457.415 397.354 457.415Z" fill="white"/>
<path d="M443.061 554.999C442.588 554.999 442.205 554.616 442.205 554.143C442.205 553.669 442.588 553.287 443.061 553.287C452.248 553.287 457.738 547.324 459.815 541.743C462.514 534.473 460.962 524.379 451.181 519.409L406.25 496.561L391.448 435.989C391.334 435.527 391.619 435.065 392.076 434.957C392.538 434.842 393 435.128 393.109 435.584L407.717 495.351L407.802 495.431L451.957 517.885C462.674 523.329 464.374 534.382 461.424 542.342C458.514 550.149 451.478 554.999 443.061 554.999Z" fill="white"/>
<path d="M345.456 555C345.051 555 344.691 554.709 344.617 554.298L323.801 439.585C323.715 439.117 324.023 438.672 324.491 438.593C324.959 438.507 325.404 438.815 325.484 439.283L346.295 553.996C346.38 554.458 346.072 554.909 345.604 554.988C345.558 554.994 345.507 555 345.456 555Z" fill="white"/>
<path d="M254.875 159.449H242.829C242.355 159.449 241.973 159.067 241.973 158.593C241.973 158.12 242.355 157.738 242.829 157.738H254.875C255.348 157.738 255.731 158.12 255.731 158.593C255.731 159.067 255.348 159.449 254.875 159.449Z" fill="white"/>
<path d="M193.886 91.8881H184.728C184.254 91.8881 183.872 91.5058 183.872 91.0322C183.872 90.5586 184.254 90.1763 184.728 90.1763H193.886C194.36 90.1763 194.742 90.5586 194.742 91.0322C194.742 91.5058 194.36 91.8881 193.886 91.8881Z" fill="white"/>
<path d="M244.77 128.197C230.504 128.197 217.014 122.741 206.789 112.83C200.603 106.861 195.861 99.42 193.077 91.3114C191.119 85.6166 190.127 79.6422 190.127 73.5536C190.127 70.8489 190.326 68.1384 190.726 65.4907C192.62 52.6574 199.085 40.8797 208.917 32.3146C218.852 23.6697 231.582 18.9106 244.77 18.9106C257.957 18.9106 270.687 23.6696 280.622 32.3203C290.459 40.8797 296.925 52.6631 298.819 65.4907C298.888 65.9586 298.562 66.3923 298.1 66.4608C297.626 66.5292 297.198 66.2097 297.13 65.7418C295.293 53.3136 289.033 41.9011 279.503 33.6099C269.877 25.2332 257.546 20.6225 244.775 20.6225C232.005 20.6225 219.668 25.2332 210.047 33.6099C200.518 41.9011 194.258 53.3136 192.42 65.7418C192.038 68.3039 191.844 70.9345 191.844 73.5536C191.844 79.4482 192.808 85.2343 194.703 90.7522C197.396 98.604 201.99 105.811 207.981 111.597C217.893 121.195 230.96 126.485 244.775 126.485C256.045 126.485 266.807 122.992 275.891 116.379C284.753 109.937 291.31 101.075 294.848 90.7579C295.002 90.3128 295.487 90.0732 295.937 90.2272C296.382 90.3813 296.622 90.8663 296.468 91.3171C292.81 101.971 286.049 111.118 276.896 117.771C267.515 124.59 256.405 128.197 244.77 128.197Z" fill="white"/>
<path d="M301.404 45.666C301.078 45.666 300.765 45.4777 300.622 45.1639C295.509 33.8826 286.556 24.6956 275.4 19.2975C274.972 19.092 274.796 18.5785 275.001 18.1562C275.206 17.7283 275.72 17.5514 276.142 17.7568C287.652 23.3261 296.902 32.8099 302.174 44.4563C302.368 44.8843 302.18 45.3921 301.746 45.5918C301.643 45.6432 301.524 45.666 301.404 45.666Z" fill="white"/>
<path d="M304.103 33.3972C303.829 33.3972 303.561 33.2659 303.395 33.0206C301.056 29.5797 298.3 26.4013 295.207 23.5767C294.859 23.2572 294.83 22.7151 295.15 22.367C295.469 22.0189 296.011 21.9961 296.359 22.3099C299.549 25.2201 302.397 28.5012 304.81 32.0505C305.079 32.4442 304.976 32.9749 304.582 33.2374C304.434 33.3515 304.268 33.3972 304.103 33.3972Z" fill="white"/>
<path d="M308.005 128.193C303.817 128.193 299.64 127.714 295.589 126.772C288.45 125.118 281.82 122.082 275.885 117.757C275.708 117.637 275.52 117.494 275.332 117.351L275.269 117.306C274.886 117.026 274.812 116.49 275.092 116.107C275.371 115.725 275.914 115.651 276.29 115.931L276.353 115.976C276.524 116.102 276.701 116.239 276.878 116.358C282.647 120.558 289.066 123.497 295.977 125.1C299.903 126.013 303.948 126.476 308.005 126.476C343.213 126.476 360.337 106.989 368.503 90.6404C372.269 83.1139 375.048 74.4062 376.537 65.4645C377.125 61.938 377.507 58.4116 377.673 54.9707C377.759 53.0706 377.085 51.2617 375.761 49.8808C374.432 48.4884 372.634 47.7181 370.7 47.7181C368.845 47.7181 367.094 48.4428 365.77 49.7609C364.452 51.0791 363.727 52.8252 363.727 54.6854V55.9807C363.727 56.4544 363.345 56.8367 362.871 56.8367C362.397 56.8367 362.015 56.4544 362.015 55.9807V54.6854C362.015 52.3687 362.917 50.1889 364.56 48.5512C366.209 46.9078 368.389 46.0062 370.7 46.0062C373.102 46.0062 375.339 46.9649 377 48.6996C378.643 50.4229 379.488 52.6768 379.379 55.0506C379.214 58.5542 378.826 62.1549 378.221 65.7441C376.703 74.8513 373.873 83.7245 370.027 91.3994C361.65 108.193 344.086 128.193 308.005 128.193Z" fill="white"/>
<path d="M445.617 91.8881H369.268C368.794 91.8881 368.412 91.5058 368.412 91.0322C368.412 90.5586 368.794 90.1763 369.268 90.1763H445.617C446.091 90.1763 446.473 90.5586 446.473 91.0322C446.473 91.5058 446.091 91.8881 445.617 91.8881Z" fill="white"/>
<path d="M256.535 92.0537C234.806 92.0537 227.953 75.848 225.796 65.7936C224.706 60.7207 224.729 56.9546 224.735 56.7948C224.74 56.3212 225.14 55.9617 225.602 55.9503C226.076 55.956 226.452 56.344 226.446 56.8119C226.446 56.8462 226.424 60.5609 227.474 65.4341C229.636 75.5227 236.792 92.1507 260.359 90.1763L260.433 90.1706H299.292C303.435 86.2562 310.591 78.0106 313.877 65.3941C314.693 62.2671 315.23 59.0089 315.469 55.7049C315.812 51.1399 319.641 47.5621 324.189 47.5621C328.942 47.5621 332.862 51.4138 332.931 56.1557C332.936 56.6293 332.56 57.0174 332.086 57.0231C332.08 57.0231 332.08 57.0231 332.075 57.0231C331.607 57.0231 331.224 56.6465 331.219 56.1786C331.162 52.3725 328.012 49.274 324.189 49.274C320.531 49.274 317.455 52.1557 317.181 55.8305C316.936 59.2371 316.377 62.5981 315.538 65.8278C312.074 79.1119 304.451 87.7113 300.217 91.6543L299.971 91.8825H260.461C259.103 92.0023 257.791 92.0537 256.535 92.0537Z" fill="white"/>
<path d="M321.25 86.3826C321.022 86.3826 320.799 86.2913 320.628 86.1144C320.303 85.772 320.32 85.2299 320.662 84.9046C325.221 80.5964 330.751 72.174 331.207 56.4876L331.213 56.2022C331.213 55.7286 331.595 55.3463 332.069 55.3463C332.542 55.3463 332.925 55.7286 332.925 56.2022L332.919 56.5104C332.657 65.5148 330.522 77.943 321.838 86.1486C321.672 86.3027 321.461 86.3826 321.25 86.3826Z" fill="white"/>
<path d="M337.216 86.3797C337.011 86.3797 336.805 86.3055 336.64 86.1571C336.292 85.8376 336.263 85.2955 336.583 84.9474C344.394 76.3881 346.563 64.8671 347.002 56.7129C347.008 56.5874 347.014 56.4561 347.014 56.3192C347.014 56.1937 347.008 56.0738 347.002 55.954C346.814 52.2164 343.721 49.2777 339.966 49.2777C336.212 49.2777 333.09 52.2849 332.931 56.0111L332.953 56.0567L332.919 56.5075C332.919 56.9811 332.537 57.3634 332.063 57.3634C331.59 57.3634 331.207 56.9811 331.207 56.5075V56.3877L331.03 56.0282L331.224 55.8228C331.487 51.2406 335.339 47.5715 339.966 47.5715C344.634 47.5715 348.474 51.2178 348.714 55.8741C348.72 56.0282 348.726 56.1708 348.726 56.3249C348.726 56.4847 348.72 56.6388 348.714 56.7985C348.258 65.2438 346.004 77.1698 337.849 86.1058C337.678 86.2884 337.45 86.3797 337.216 86.3797Z" fill="white"/>
<path d="M352.053 86.3817C351.841 86.3817 351.636 86.3075 351.47 86.1535C351.122 85.8339 351.105 85.2918 351.425 84.9437C359.756 75.9678 361.787 64.2358 362.021 55.9731L362.027 55.7791C362.027 55.7392 362.027 55.705 362.027 55.665C361.936 52.053 359.065 49.217 355.488 49.1599C353.679 49.1314 351.995 49.8047 350.712 51.0601C349.428 52.3212 348.72 54.0045 348.714 55.802V56.7606C348.714 57.2342 348.332 57.6165 347.858 57.6165C347.385 57.6165 347.003 57.2342 347.003 56.7606V55.802C347.008 53.5423 347.898 51.4253 349.508 49.8389C351.122 48.2583 353.251 47.4024 355.51 47.448C360.007 47.5222 363.619 51.0943 363.727 55.568C363.733 55.6022 363.733 55.6878 363.733 55.7791L363.727 55.996C363.482 64.5782 361.371 76.7382 352.675 86.1078C352.509 86.2904 352.281 86.3817 352.053 86.3817Z" fill="white"/>
<path d="M141.538 123.654C116.128 123.654 95.4542 102.98 95.4542 77.5705C95.4542 52.1607 116.128 31.4869 141.538 31.4869C162.263 31.4869 180.54 45.4273 185.995 65.3934C186.121 65.8499 185.852 66.3178 185.396 66.4434C184.939 66.5689 184.472 66.3007 184.346 65.8442C179.096 46.6256 161.493 33.1988 141.544 33.1988C117.075 33.1988 97.1718 53.1022 97.1718 77.5705C97.1718 102.039 117.075 121.942 141.544 121.942C161.087 121.942 178.115 109.417 183.918 90.7748C184.061 90.324 184.54 90.0729 184.991 90.2099C185.442 90.3525 185.693 90.8318 185.556 91.2826C179.519 110.644 161.835 123.654 141.538 123.654Z" fill="white"/>
<path d="M141.538 102.717C127.677 102.717 116.396 91.4354 116.396 77.5693C116.396 63.7031 127.677 52.4219 141.538 52.4219C155.404 52.4219 166.685 63.7031 166.685 77.5693C166.685 91.4354 155.404 102.717 141.538 102.717ZM141.538 54.1337C128.619 54.1337 118.108 64.6446 118.108 77.5693C118.108 90.4939 128.619 101.005 141.538 101.005C154.463 101.005 164.973 90.4939 164.973 77.5693C164.973 64.6446 154.463 54.1337 141.538 54.1337Z" fill="white"/>
<path d="M191.564 66.4736H185.168C184.694 66.4736 184.312 66.0913 184.312 65.6177C184.312 65.144 184.694 64.7617 185.168 64.7617H191.564C192.038 64.7617 192.42 65.144 192.42 65.6177C192.42 66.0913 192.038 66.4736 191.564 66.4736Z" fill="white"/>
<path d="M314.699 66.4736H226.635C226.161 66.4736 225.779 66.0913 225.779 65.6177C225.779 65.144 226.161 64.7617 226.635 64.7617H314.699C315.173 64.7617 315.555 65.144 315.555 65.6177C315.555 66.0913 315.173 66.4736 314.699 66.4736Z" fill="white"/>
<path d="M445.617 66.4736H377.382C376.909 66.4736 376.526 66.0913 376.526 65.6177C376.526 65.144 376.909 64.7617 377.382 64.7617H445.617C446.091 64.7617 446.473 65.144 446.473 65.6177C446.473 66.0913 446.091 66.4736 445.617 66.4736Z" fill="white"/>
<path d="M495.695 123.656H444.761V91.0332C444.761 90.5596 445.144 90.1773 445.617 90.1773C446.091 90.1773 446.473 90.5596 446.473 91.0332V121.944H493.983V66.4736H445.617C445.144 66.4736 444.761 66.0913 444.761 65.6177C444.761 65.144 445.144 64.7617 445.617 64.7617H495.695V123.656Z" fill="white"/>
<path d="M153.452 542.895H36.092C35.6183 542.895 35.236 542.513 35.236 542.039C35.236 541.566 35.6183 541.183 36.092 541.183H153.452C153.926 541.183 154.308 541.566 154.308 542.039C154.308 542.513 153.926 542.895 153.452 542.895Z" fill="white"/>
<path d="M308.879 447.13C308.48 447.13 308.126 446.85 308.04 446.451L248.108 158.77L248.045 158.479C247.948 158.017 248.245 157.561 248.707 157.464C249.169 157.361 249.625 157.663 249.723 158.126L249.785 158.422L309.718 446.108C309.815 446.57 309.518 447.027 309.056 447.118C308.993 447.124 308.936 447.13 308.879 447.13Z" fill="white"/>
<path d="M460.619 542.895H343.259C342.785 542.895 342.403 542.513 342.403 542.039C342.403 541.566 342.785 541.183 343.259 541.183H460.619C461.093 541.183 461.475 541.566 461.475 542.039C461.475 542.513 461.093 542.895 460.619 542.895Z" fill="white"/>
<path d="M164.42 482.412C164.408 482.412 164.402 482.412 164.391 482.412L93.7934 480.061C93.3198 480.044 92.9489 479.651 92.966 479.177C92.9831 478.703 93.3712 478.321 93.8505 478.35L164.448 480.7C164.922 480.718 165.293 481.111 165.276 481.585C165.258 482.047 164.882 482.412 164.42 482.412Z" fill="white"/>
<path d="M332.6 482.412C332.138 482.412 331.761 482.047 331.744 481.584C331.727 481.111 332.098 480.717 332.571 480.7L403.163 478.349C403.625 478.326 404.031 478.703 404.048 479.171C404.065 479.644 403.694 480.038 403.226 480.055L402.918 480.066L332.628 482.406C332.617 482.412 332.611 482.412 332.6 482.412Z" fill="white"/>
<path d="M170.537 450.115C170.383 450.115 170.229 450.075 170.086 449.99C170.057 449.973 170.023 449.955 169.989 449.938L169.875 449.876C150.953 439.216 103.956 440.626 103.483 440.643C103.003 440.66 102.615 440.289 102.598 439.816C102.581 439.342 102.952 438.948 103.426 438.931C103.545 438.925 115.506 438.549 129.674 439.519C148.767 440.82 162.576 443.804 170.714 448.392L170.793 448.438C170.856 448.472 170.913 448.506 170.976 448.54C171.381 448.786 171.501 449.316 171.256 449.716C171.102 449.973 170.822 450.115 170.537 450.115Z" fill="white"/>
<path d="M326.636 451.265C326.34 451.265 326.054 451.111 325.895 450.837C325.661 450.427 325.798 449.902 326.208 449.668C334.283 445.023 348.035 441.804 367.071 440.098C381.2 438.832 393.137 438.923 393.257 438.923C393.73 438.929 394.107 439.311 394.107 439.784C394.101 440.252 393.719 440.635 393.251 440.635C393.223 440.635 393.074 440.635 392.743 440.635C387.63 440.635 344.805 440.949 327.059 451.151C326.927 451.231 326.779 451.265 326.636 451.265Z" fill="white"/>
<path d="M488.46 269.706C486.417 269.706 484.431 268.61 483.399 266.687C482.674 265.335 482.514 263.783 482.954 262.316C483.393 260.844 484.38 259.635 485.732 258.91C488.517 257.409 492.004 258.459 493.504 261.244C494.229 262.596 494.389 264.148 493.949 265.615C493.51 267.087 492.523 268.297 491.17 269.021C490.309 269.484 489.379 269.706 488.46 269.706Z" fill="white"/>
<path d="M449.361 242.499C448.259 242.499 447.192 241.912 446.633 240.879C445.829 239.378 446.394 237.501 447.883 236.69H447.889C449.389 235.891 451.267 236.456 452.077 237.951C452.465 238.676 452.551 239.515 452.317 240.302C452.077 241.096 451.546 241.746 450.822 242.134C450.359 242.379 449.857 242.499 449.361 242.499Z" fill="white"/>
<path d="M61.6101 369.785C61.4789 369.785 61.3476 369.756 61.2221 369.693C60.7998 369.477 60.6343 368.963 60.8512 368.541L112.972 266.359C113.189 265.937 113.702 265.771 114.125 265.988C114.547 266.205 114.712 266.719 114.496 267.141L62.3748 369.322C62.2207 369.613 61.9183 369.785 61.6101 369.785Z" fill="white"/>
<path d="M72.1383 300.408C72.0014 300.408 71.8644 300.374 71.7389 300.305C71.3223 300.083 71.1626 299.563 71.3851 299.147L106.319 233.536C106.541 233.12 107.061 232.96 107.477 233.183C107.894 233.405 108.053 233.924 107.831 234.341L72.8973 299.951C72.7375 300.242 72.4465 300.408 72.1383 300.408Z" fill="white"/>
<path d="M393.953 280.103C393.639 280.103 393.343 279.932 393.188 279.635L341.073 177.454C340.857 177.032 341.028 176.518 341.444 176.301C341.861 176.084 342.38 176.256 342.597 176.672L394.712 278.854C394.929 279.276 394.758 279.79 394.341 280.006C394.216 280.075 394.084 280.103 393.953 280.103Z" fill="white"/>
<path d="M383.431 210.723C383.123 210.723 382.826 210.558 382.672 210.267L347.738 144.65C347.516 144.234 347.675 143.715 348.092 143.492C348.509 143.27 349.028 143.429 349.25 143.846L384.184 209.462C384.407 209.879 384.247 210.398 383.83 210.62C383.705 210.689 383.568 210.723 383.431 210.723Z" fill="white"/>
<path d="M501.556 53.4852C501.276 53.4852 501.008 53.3483 500.843 53.1029C500.58 52.7092 500.689 52.1785 501.082 51.916L532.798 30.957C533.191 30.6945 533.722 30.8029 533.985 31.1966C534.247 31.5904 534.139 32.121 533.745 32.3835L502.03 53.3425C501.881 53.4396 501.722 53.4852 501.556 53.4852Z" fill="white"/>
<path d="M517.117 76.8088C516.672 76.8088 516.295 76.4608 516.261 76.01C516.233 75.5364 516.586 75.1312 517.06 75.1027L557.523 72.4493C558.008 72.415 558.402 72.7745 558.436 73.2482C558.464 73.7218 558.111 74.1269 557.637 74.1554L517.174 76.8088C517.151 76.8088 517.134 76.8088 517.117 76.8088Z" fill="white"/>
<path d="M557.58 114.833C557.523 114.833 557.46 114.827 557.403 114.816L516.461 106.085C515.998 105.988 515.702 105.532 515.804 105.07C515.901 104.607 516.364 104.311 516.82 104.413L557.762 113.144C558.225 113.241 558.521 113.697 558.419 114.16C558.333 114.559 557.973 114.833 557.58 114.833Z" fill="white"/>
<path d="M545.888 159.153C545.716 159.153 545.545 159.101 545.397 158.999L501.065 128.042C500.677 127.774 500.58 127.238 500.854 126.85C501.122 126.462 501.659 126.365 502.047 126.639L546.378 157.595C546.766 157.863 546.863 158.4 546.59 158.788C546.424 159.027 546.156 159.153 545.888 159.153Z" fill="white"/>
<path d="M248.884 399.733C248.41 399.733 248.028 399.351 248.028 398.877V317.837C248.028 317.364 248.41 316.981 248.884 316.981C249.357 316.981 249.74 317.364 249.74 317.837V398.877C249.74 399.351 249.357 399.733 248.884 399.733Z" fill="white"/>
<path d="M263.708 436.397C263.234 436.397 262.852 436.014 262.852 435.541V352.583C262.852 352.11 263.234 351.727 263.708 351.727C264.182 351.727 264.564 352.11 264.564 352.583V435.541C264.564 436.014 264.182 436.397 263.708 436.397Z" fill="white"/>
<path d="M233.75 383.391C233.277 383.391 232.894 383.009 232.894 382.535V352.583C232.894 352.11 233.277 351.727 233.75 351.727C234.224 351.727 234.606 352.11 234.606 352.583V382.535C234.606 383.009 234.224 383.391 233.75 383.391Z" fill="white"/>
<path d="M191.564 554.999H0.855936C0.382318 554.999 0 554.616 0 554.143C0 553.669 0.382318 553.287 0.855936 553.287H191.564C192.038 553.287 192.42 553.669 192.42 554.143C192.42 554.616 192.038 554.999 191.564 554.999Z" fill="white"/>
<path d="M513.253 554.999H305.58C305.107 554.999 304.724 554.616 304.724 554.143C304.724 553.669 305.107 553.287 305.58 553.287H513.253C513.727 553.287 514.109 553.669 514.109 554.143C514.109 554.616 513.727 554.999 513.253 554.999Z" fill="white"/>
<path d="M245.357 15.1479C248.817 15.1479 251.622 12.3427 251.622 8.8824C251.622 5.42208 248.817 2.61694 245.357 2.61694C241.897 2.61694 239.092 5.42208 239.092 8.8824C239.092 12.3427 241.897 15.1479 245.357 15.1479Z" stroke="white" stroke-width="1.71187" stroke-miterlimit="10" stroke-linecap="round"/>
<path d="M248.844 0.957873C248.575 0.957873 248.319 1.00352 248.079 1.08912C247.965 0.90081 247.816 0.723916 247.645 0.575554C246.681 -0.26897 245.22 -0.171962 244.381 0.786686C244.159 1.03776 244.005 1.32307 243.913 1.6255C243.006 1.20324 241.893 1.40296 241.203 2.19613C241.049 2.37302 240.923 2.56703 240.838 2.77246C239.885 2.68686 238.903 3.04636 238.224 3.82241C237.34 4.83241 237.22 6.25897 237.831 7.3774C237.06 8.44446 237.203 9.9395 238.213 10.824C238.333 10.9324 238.464 11.0294 238.607 11.1093C238.418 12.0508 238.726 13.0722 239.502 13.7513C240.655 14.767 242.418 14.6529 243.434 13.4945C244.204 12.6157 244.324 11.3832 243.816 10.396C243.891 10.3389 243.959 10.2705 244.027 10.1906C244.358 9.80825 244.524 9.34034 244.524 8.87243C245.152 8.91808 245.802 8.67842 246.247 8.16486C246.39 8.00508 246.498 7.82819 246.584 7.63988C246.607 7.64559 246.63 7.64559 246.658 7.64559C247.839 7.64559 248.798 6.71547 248.849 5.5514H248.855C250.122 5.5514 251.155 4.51857 251.155 3.25178C251.143 1.9907 250.116 0.957873 248.844 0.957873Z" fill="white"/>
</svg>
