<svg width="40" height="40" viewBox="0 0 40 40" fill="none" xmlns="http://www.w3.org/2000/svg">
<circle cx="20" cy="20" r="20" fill="white"/>
<path fill-rule="evenodd" clip-rule="evenodd" d="M25.8333 19.1668H20.8333V14.1668V14.1668C20.8333 13.7066 20.4602 13.3335 19.9999 13.3335C19.5397 13.3335 19.1666 13.7066 19.1666 14.1668V19.1668H14.1666V19.1668C13.7063 19.1668 13.3333 19.5399 13.3333 20.0002C13.3333 20.4604 13.7063 20.8335 14.1666 20.8335H19.1666V25.8335V25.8335C19.1666 26.2937 19.5397 26.6668 19.9999 26.6668C20.4602 26.6668 20.8333 26.2937 20.8333 25.8335V20.8335H25.8333V20.8335C26.2935 20.8335 26.6666 20.4604 26.6666 20.0002C26.6666 19.5399 26.2935 19.1668 25.8333 19.1668V19.1668Z" fill="#213F7D"/>
</svg>
