<svg width="24" height="24" viewBox="0 0 24 24" fill="none" xmlns="http://www.w3.org/2000/svg">
<path fill-rule="evenodd" clip-rule="evenodd" d="M5.30097 11.7203C5.4808 11.9001 5.74055 12.01 6.01029 12.01L6.0003 12C6.26005 12 6.5198 11.8901 6.70962 11.7104L11.0059 7.41527V19.0013C11.0059 19.5506 11.4455 20 12.005 20C12.5544 20 13.004 19.5506 13.004 19.0013V7.43644L17.2891 11.7203C17.469 11.9001 17.7287 12.01 17.9985 12.01L17.9885 11.989C18.2482 11.989 18.508 11.8791 18.6978 11.6994H18.7078C19.0974 11.3099 19.0974 10.6707 18.7078 10.2911V10.2921L12.7136 4.29963C12.5125 4.09862 12.2533 3.99875 11.9957 4.00001C11.738 3.99874 11.4813 4.09861 11.2852 4.29963L5.29098 10.2921V10.3021C4.90136 10.6916 4.90136 11.3308 5.30097 11.7203Z" fill="#9E9E9E"/>
</svg>
