<svg width="106" height="46" viewBox="0 0 106 46" fill="none" xmlns="http://www.w3.org/2000/svg">
<path d="M1.94817 41.4588C1.94817 41.4588 5.48692 32.3774 9.02537 32.3774C12.5638 32.3774 11.7778 41.4588 16.1022 41.4588C20.4266 41.4588 21.2789 38.9408 26.3261 32.3774C31.3733 25.8139 30.521 14.5963 36.288 15.1851C42.0549 15.7738 43.3646 36.9184 49.395 34.7712C55.4255 32.6241 56.0202 12.2097 60.4049 6.59185C64.7896 0.973987 63.0264 13.2754 66.9594 12.3148C70.8923 11.3541 71.2191 -0.101195 76.1352 2.76872C81.0514 5.63863 82.0333 20.6794 86.6213 23.7842C91.2092 26.889 88.127 15.4413 93.397 15.6115C99.7211 15.7756 97.2065 5.80285 104.329 6.59185" stroke="#66CB9F" stroke-width="3.01145" stroke-linecap="round"/>
</svg>
