<svg width="227" height="211" viewBox="0 0 227 211" fill="none" xmlns="http://www.w3.org/2000/svg">
<path d="M139.572 184.451L140.994 188.474L106.047 201.669L101.197 203.502C98.8065 204.403 96.2099 203.833 94.4272 202.226L139.572 184.451Z" fill="white"/>
<path d="M41.2153 165.786L38.3008 169.669L3.75678 144.841C1.32977 143.097 0.426801 140.004 1.36369 137.304L41.2153 165.786Z" fill="white"/>
<path d="M157.451 88.7049C153.542 94.0824 147.773 97.6159 141.473 98.8029H141.471C140.03 99.0742 138.559 99.2226 137.077 99.2417C136.967 99.2438 136.856 99.2438 136.744 99.2438C133.957 99.2438 131.131 98.7859 128.374 97.8321L117.218 93.9701L115.274 93.2982L110.91 91.7868L102.384 88.832L102.355 88.8151L83.7358 119.175L69.3433 142.644C69.657 141.775 69.0381 140.323 67.6709 138.479C66.9756 137.54 66.0854 136.499 65.0277 135.38C64.8475 135.193 64.6652 135.002 64.4766 134.81C60.9601 131.208 55.7966 126.888 49.7534 122.649C48.7954 121.979 47.8479 121.326 46.9046 120.707H46.9025C46.7605 120.61 46.6206 120.519 46.4786 120.426C46.4765 120.423 46.4765 120.423 46.4765 120.423C46.1055 120.178 45.7367 119.938 45.37 119.701C44.6769 119.251 43.9901 118.817 43.3118 118.397C42.3071 117.774 41.3193 117.182 40.3549 116.623C32.8026 112.248 26.6958 109.933 24.6228 110.83L52.6849 88.7282L54.209 87.5263L56.831 85.4618L61.0194 82.1636L67.5882 76.9895L71.6728 73.774L74.8798 71.2474L78.0148 68.778L83.6277 64.3564L86.2115 62.3215C87.0869 61.6326 87.9941 60.9967 88.931 60.4159C94.1369 57.1813 100.21 55.6298 106.321 55.9647C107.588 56.0304 108.858 56.1809 110.123 56.414L112.116 57.6265L117.375 60.8271L123.411 64.4984L126.303 66.2577L133.181 70.444L136.731 72.604L141.274 75.368L145.212 77.7632L157.417 85.1905C157.434 85.572 157.445 85.9578 157.451 86.3457C157.47 87.1194 157.47 87.9058 157.451 88.7049Z" fill="#69C3CA"/>
<path d="M141.076 155.107C141.492 156.809 137.738 159.329 131.574 161.853L130.533 158.913L128.649 153.589C135.296 152.904 139.993 153.271 140.934 154.774C141 154.88 141.049 154.99 141.076 155.107Z" fill="white"/>
<path d="M140.985 154.749L140.935 154.773C140.767 154.504 140.477 154.27 140.078 154.075H140.076C138.974 153.531 137.034 153.264 134.476 153.257C133.058 153.253 131.449 153.331 129.685 153.488C129.346 153.518 129.001 153.552 128.649 153.588C127.11 153.745 125.467 153.959 123.742 154.228C122.188 154.47 120.569 154.758 118.899 155.091C116.997 155.466 115.03 155.9 113.021 156.392C110.592 156.986 108.256 157.624 106.047 158.289C105.931 158.325 105.818 158.357 105.704 158.393C102.132 159.481 98.9123 160.638 96.2055 161.785C94.8553 162.359 93.6344 162.931 92.5618 163.491C90.3447 164.648 88.7655 165.759 88.0067 166.732C87.6993 167.124 87.5298 167.493 87.5065 167.836L86.6904 156.903V156.901L86.4911 154.211L86.3364 152.136L86.0418 148.189L83.8861 119.269L83.7356 119.175L84.4626 117.988L86.4403 114.766L100.447 91.925L101.403 90.367L102.185 89.0931L102.355 88.8154L102.384 88.8324L103.387 89.18H103.395L108.839 91.075H108.851L110.91 91.7872L112.139 94.3605L113.839 97.9172L114.473 99.2441L115.361 101.101L123.625 118.408L125.099 121.492L127.674 126.88L129.957 131.66L140.417 153.558L140.985 154.749Z" fill="#69C3CA"/>
<path d="M133.281 166.679L139.572 184.45L94.4272 202.226C93.7235 201.59 93.1427 200.795 92.7548 199.867C92.4072 199.04 92.2397 198.169 92.2397 197.308C92.2397 195.49 92.9901 193.709 94.3891 192.427L106.047 181.744L111.276 176.955L110.335 173.827L133.281 166.679Z" fill="#EA5254"/>
<path d="M128.649 153.588L130.533 158.913C123.212 156.717 106.047 158.29 106.047 158.29C108.256 157.624 110.592 156.986 113.021 156.393C118.752 154.992 124.147 154.048 128.649 153.588Z" fill="white"/>
<path d="M104.525 2.97852L115.291 24.4845L109.801 27.522L108.822 25.7012L111.013 24.6923C111.717 24.368 112.141 23.6664 112.141 22.9245C112.141 22.7062 112.103 22.4815 112.024 22.2653C111.728 21.445 110.943 20.9532 110.125 20.9871C110.428 20.6331 110.589 20.1838 110.589 19.728C110.589 19.408 110.509 19.0837 110.344 18.7848C109.879 17.9518 108.9 17.5999 108.039 17.8839C108.122 17.6677 108.167 17.4346 108.167 17.1993C108.167 16.9873 108.133 16.7732 108.061 16.5655C107.692 15.493 106.488 14.963 105.451 15.4145L102.662 16.627L105.146 15.05C105.725 14.6811 106.049 14.0537 106.049 13.4072C106.049 13.1041 105.977 12.7946 105.827 12.5085C105.303 11.5038 104.033 11.1604 103.073 11.7624L94.1006 17.0297L90.9551 10.3507L104.525 2.97852ZM104.072 7.31533C104.072 6.92531 103.756 6.60737 103.364 6.60737C102.974 6.60737 102.656 6.92531 102.656 7.31533C102.656 7.70747 102.974 8.02542 103.364 8.02542C103.756 8.02542 104.072 7.70747 104.072 7.31533Z" fill="#FFB019"/>
<path d="M106.047 159.538L108.707 168.398C107.804 168.57 106.916 168.729 106.047 168.873C97.2398 170.348 90.3594 170.446 88.2058 169.036C87.8391 168.797 87.6123 168.515 87.5318 168.191L87.5063 167.837C87.5297 167.493 87.6992 167.124 88.0066 166.732C89.8655 164.343 96.6654 161.145 105.704 158.394L106.047 159.538Z" fill="white"/>
<path d="M69.3432 142.645C69.3093 142.74 69.2627 142.827 69.2076 142.908C68.3088 144.186 64.7372 143.402 59.7476 141.108L61.0957 139.313L64.4765 134.811C67.9718 138.389 69.8435 141.259 69.3432 142.645Z" fill="white"/>
<path d="M64.4765 134.812L61.0957 139.314C59.0502 131.342 46.6714 120.595 46.4785 120.428C47.5617 121.134 48.6512 121.88 49.7534 122.651C55.7965 126.891 60.96 131.21 64.4765 134.812Z" fill="white"/>
<path d="M52.2588 151.078L41.2154 165.784L1.36377 137.302C1.54182 136.781 1.78982 136.276 2.10989 135.797C3.35836 133.926 5.44198 132.847 7.62099 132.847C8.14878 132.847 8.68082 132.908 9.20861 133.04L31.4438 138.54L33.2222 136.397L52.2588 151.078Z" fill="#EA5254"/>
<path d="M46.4764 120.423L39.6383 128.665C29.3177 120.879 22.5539 113.431 24.0843 111.252L24.6015 110.84L24.6079 110.834L24.6142 110.832L24.6227 110.83C27.232 109.7 36.2427 113.664 46.4764 120.423Z" fill="white"/>
<path d="M106.047 159.539V158.29C106.047 158.29 123.212 156.717 130.533 158.913" stroke="black" stroke-width="0.635897" stroke-miterlimit="10" stroke-linecap="round" stroke-linejoin="round"/>
<path d="M75.645 144.889C75.645 144.133 76.2597 143.52 77.0164 143.52C77.7732 143.52 78.3879 144.133 78.3879 144.889C78.3879 145.648 77.7732 146.261 77.0164 146.261C76.2597 146.261 75.645 145.648 75.645 144.889Z" stroke="black" stroke-width="0.635897" stroke-miterlimit="10" stroke-linecap="round" stroke-linejoin="round"/>
<path d="M145.212 77.7653C140.451 80.0673 134.51 81.7333 131.483 81.2522C131.099 81.1907 130.834 80.8367 130.879 80.4509C130.915 80.1648 131.116 79.9231 131.392 79.8447C135.197 78.7489 138.541 77.0722 141.274 75.3701L145.212 77.7653Z" fill="#50B5B2"/>
<path d="M141.471 98.8035C140.029 99.0748 138.558 99.2232 137.077 99.2422C135.29 96.4824 132.242 92.5653 127.839 89.5321C127.676 89.4176 127.583 89.2332 127.583 89.0403C127.583 89.0001 127.587 88.9577 127.595 88.9174C127.661 88.6016 127.964 88.3917 128.282 88.4447C131.907 89.0467 139.139 94.7719 141.471 98.8035Z" fill="#38A6A0"/>
<path d="M152.785 89.8032C147.906 92.3489 132.92 89.2691 126.201 85.2714L125.582 82.3081C136.422 85.7907 146.857 84.697 150.751 84.0907C152.207 83.8618 153.695 84.3939 154.621 85.5385C155.543 86.6725 155.785 88.2368 152.785 89.8032Z" fill="#25968E"/>
<path d="M136.731 72.6043C136.708 72.8438 136.646 73.0812 136.545 73.3122C136.028 74.4738 134.665 74.9974 133.501 74.4802C132.339 73.963 131.816 72.6 132.333 71.4363C132.522 71.0145 132.821 70.6775 133.181 70.4443L136.731 72.6043Z" fill="#50B5B2"/>
<path d="M109.642 72.7222C107.44 66.3378 103.137 61.7996 101.452 60.1971C100.833 59.6079 100.549 58.7346 100.748 57.9037C100.947 57.077 101.581 56.4135 103.362 57.2402C106.624 58.7558 111.132 68.6864 110.715 72.5971C110.683 72.8939 110.422 73.1122 110.125 73.091C109.905 73.0762 109.714 72.9299 109.642 72.7222Z" fill="#50B5B2"/>
<path d="M126.303 66.2603C126.243 66.3069 126.182 66.3493 126.116 66.3875C124.459 67.3816 120.145 70.2813 117.203 75.0611C117.118 75.1989 116.968 75.2773 116.813 75.2773C116.79 75.2773 116.766 75.2773 116.743 75.2731C116.497 75.2349 116.325 75.0123 116.353 74.7665C116.66 72.0745 120.459 66.6482 123.411 64.501L126.303 66.2603Z" fill="#38A6A0"/>
<path d="M114.004 76.4839L111.76 77.0732C113.998 68.6348 112.752 60.6861 112.133 57.7292C112.126 57.6953 112.12 57.6614 112.116 57.6274L117.374 60.8281C117.447 65.8347 115.982 72.7342 114.004 76.4839Z" fill="#25968E"/>
<path d="M103.802 72.4511C104.779 72.4511 105.57 71.6597 105.57 70.6833C105.57 69.707 104.779 68.9155 103.802 68.9155C102.826 68.9155 102.035 69.707 102.035 70.6833C102.035 71.6597 102.826 72.4511 103.802 72.4511Z" fill="#38A6A0"/>
<path d="M75.8125 108.858C73.6102 102.474 69.3073 97.9353 67.6222 96.3329C67.0032 95.7436 66.7192 94.8703 66.9184 94.0394C67.1177 93.2127 67.7515 92.5493 69.532 93.376C72.7941 94.8915 77.3026 104.822 76.8851 108.733C76.8533 109.03 76.5926 109.248 76.2958 109.227C76.0775 109.212 75.8846 109.068 75.8125 108.858Z" fill="#50B5B2"/>
<path d="M83.3731 111.197C86.3174 106.417 90.6308 103.518 92.2863 102.524C92.8946 102.159 93.2847 101.5 93.2719 100.79C93.2613 100.084 92.8671 99.429 91.271 99.7787C88.3501 100.417 82.892 107.653 82.5232 110.903C82.4956 111.149 82.6673 111.373 82.9111 111.411C83.0955 111.437 83.2756 111.354 83.3731 111.197Z" fill="#38A6A0"/>
<path d="M82.5995 92.0847C84.7404 95.722 82.9726 107.319 80.1746 112.622L77.9299 113.211C80.1704 104.773 78.9219 96.8221 78.303 93.8652C78.0698 92.7587 78.4196 91.5972 79.259 90.8426C80.0941 90.0943 81.2811 89.8484 82.5995 92.0847Z" fill="#25968E"/>
<path d="M69.9726 108.589C70.949 108.589 71.7404 107.798 71.7404 106.821C71.7404 105.845 70.949 105.054 69.9726 105.054C68.9963 105.054 68.2048 105.845 68.2048 106.821C68.2048 107.798 68.9963 108.589 69.9726 108.589Z" fill="#25968E"/>
<path d="M91.1394 95.4312C92.7702 95.4312 94.0921 94.1093 94.0921 92.4786C94.0921 90.8478 92.7702 89.5259 91.1394 89.5259C89.5087 89.5259 88.1868 90.8478 88.1868 92.4786C88.1868 94.1093 89.5087 95.4312 91.1394 95.4312Z" fill="#38A6A0"/>
<path d="M54.5141 90.541C54.4823 90.8378 54.2216 91.0561 53.9227 91.0349C53.7022 91.02 53.5115 90.8759 53.4394 90.6661C53.2105 90.0005 52.9561 89.354 52.6848 88.7287L54.2088 87.5269C54.4802 88.699 54.5989 89.7461 54.5141 90.541Z" fill="#38A6A0"/>
<path d="M60.9981 93.0059C63.9424 88.2261 68.2558 85.3264 69.9113 84.3323C70.5196 83.9677 70.9097 83.3085 70.8969 82.5984C70.8863 81.8926 70.4921 81.2376 68.896 81.5873C65.9751 82.2253 60.517 89.4618 60.1482 92.7113C60.1206 92.9572 60.2923 93.1818 60.5361 93.22C60.7205 93.2433 60.9028 93.1606 60.9981 93.0059Z" fill="#38A6A0"/>
<path d="M61.0194 82.1636C60.5976 86.5619 59.3597 91.471 57.8018 94.4279L55.5549 95.0172C56.4452 91.6596 56.7843 88.3784 56.831 85.4618L61.0194 82.1636Z" fill="#25968E"/>
<path d="M71.5222 75.3477C70.9351 76.8696 69.2266 77.6284 67.7047 77.0413C67.6644 77.0265 67.6263 77.0095 67.5881 76.9904L71.6727 73.7749C71.766 74.2857 71.7215 74.8284 71.5222 75.3477Z" fill="#38A6A0"/>
<path d="M119.183 91.6077C115.416 90.4758 111.808 90.9675 110.477 91.2198C109.987 91.313 109.479 91.1477 109.154 90.7725C108.832 90.3973 108.733 89.8717 109.731 89.3121C111.556 88.2862 117.784 89.5325 119.49 91.0608C119.619 91.1774 119.634 91.3745 119.524 91.508C119.441 91.6034 119.308 91.6437 119.183 91.6077Z" fill="#38A6A0"/>
<path d="M122.86 88.8316C121.601 85.8154 121.699 82.7906 121.792 81.6693C121.826 81.256 121.648 80.849 121.309 80.6137C120.972 80.3784 120.529 80.3424 120.149 81.2157C119.458 82.8139 121.023 87.8545 122.432 89.1326C122.538 89.2301 122.704 89.2238 122.805 89.122C122.88 89.0436 122.901 88.9291 122.86 88.8316Z" fill="#38A6A0"/>
<path d="M113.563 82.6946C116.009 82.9192 120.891 87.6991 122.445 90.8256L121.959 92.0867C118.733 88.1569 114.551 86.0436 112.944 85.3314C112.342 85.0643 111.912 84.5047 111.842 83.8519C111.77 83.2011 112.058 82.5568 113.563 82.6946Z" fill="#25968E"/>
<path d="M117.218 93.9718C117.305 93.6899 117.269 93.3761 117.095 93.1112C116.783 92.6343 116.145 92.5028 115.67 92.8123C115.484 92.9331 115.348 93.1069 115.274 93.2998L117.218 93.9718Z" fill="#25968E"/>
<path d="M116.654 80.5113C117.603 80.5113 118.373 79.7417 118.373 78.7923C118.373 77.8429 117.603 77.0732 116.654 77.0732C115.705 77.0732 114.935 77.8429 114.935 78.7923C114.935 79.7417 115.705 80.5113 116.654 80.5113Z" fill="#50B5B2"/>
<path d="M88.931 60.4165C88.717 65.3277 82.8561 75.3495 79.0259 77.5582C78.7122 77.7404 78.3116 77.6387 78.1166 77.3314C78.0487 77.2211 78.0127 77.0961 78.0127 76.971C78.0127 76.8375 78.053 76.7039 78.1314 76.5895C81.082 72.3586 82.7226 67.8353 83.6277 64.3569L86.2115 62.3221C87.0869 61.6332 87.9941 60.9973 88.931 60.4165Z" fill="#50B5B2"/>
<path d="M81.2558 85.71C88.0727 85.1759 94.0225 87.3401 96.1909 88.2579C96.9879 88.5949 97.9142 88.5059 98.6052 87.9844C99.292 87.4672 99.6545 86.6088 98.1665 85.2903C95.4427 82.8739 84.4035 82.698 80.94 84.6629C80.6772 84.8113 80.5797 85.142 80.7196 85.409C80.8213 85.6062 81.0333 85.727 81.2558 85.71Z" fill="#38A6A0"/>
<path d="M99.5122 71.2319C97.4688 75.9481 84.7869 82.5318 77.5589 83.5852L75.3672 81.7984C85.2808 77.9469 92.2079 71.0135 94.6751 68.2834C95.5972 67.2618 96.9898 66.77 98.3358 67.0561C99.6733 67.3381 100.767 68.3301 99.5122 71.2319Z" fill="#25968E"/>
<path d="M76.5075 71.4607C75.9352 71.6133 75.3544 71.5221 74.8796 71.2487L78.0146 68.7793C78.0189 68.792 78.0231 68.8069 78.0273 68.8217C78.3368 69.9705 77.6564 71.1512 76.5075 71.4607Z" fill="#25968E"/>
<path d="M105.252 83.5178C107.239 83.5178 108.849 81.9074 108.849 79.9208C108.849 77.9342 107.239 76.3237 105.252 76.3237C103.266 76.3237 101.655 77.9342 101.655 79.9208C101.655 81.9074 103.266 83.5178 105.252 83.5178Z" fill="#25968E"/>
<path d="M42.5126 111.657C47.2161 104.908 48.5939 97.4154 48.9606 94.609C49.0963 93.5767 49.7533 92.6716 50.7136 92.271C51.6695 91.8725 52.7781 92.0209 53.2423 94.3673C54.0923 98.666 47.5553 110.229 43.405 112.626C43.0913 112.808 42.6885 112.709 42.4956 112.401C42.3557 112.172 42.36 111.878 42.5126 111.657Z" fill="#50B5B2"/>
<path d="M45.3699 119.701C48.8885 117.764 59.8344 117.952 62.5454 120.356C64.0334 121.674 63.6731 122.533 62.9842 123.05C62.2932 123.572 61.369 123.661 60.572 123.324C58.5393 122.465 53.1829 120.509 46.9045 120.708H46.9024L45.3699 119.701Z" fill="#38A6A0"/>
<path d="M43.3117 118.399C50.6669 116.807 61.9731 110.73 63.8935 106.298C65.1484 103.396 64.0525 102.406 62.7171 102.122C61.3711 101.836 59.9764 102.328 59.0565 103.349C56.6401 106.026 49.9441 112.729 40.3547 116.625L43.3117 118.399Z" fill="#25968E"/>
<path d="M40.3294 106.602C41.5187 106.602 42.4829 105.638 42.4829 104.448C42.4829 103.259 41.5187 102.295 40.3294 102.295C39.14 102.295 38.1758 103.259 38.1758 104.448C38.1758 105.638 39.14 106.602 40.3294 106.602Z" fill="#38A6A0"/>
<path d="M69.6337 118.584C71.6203 118.584 73.2307 116.973 73.2307 114.987C73.2307 113 71.6203 111.39 69.6337 111.39C67.6471 111.39 66.0366 113 66.0366 114.987C66.0366 116.973 67.6471 118.584 69.6337 118.584Z" fill="#38A6A0"/>
<path d="M67.6708 138.478C66.9756 137.539 66.0853 136.498 65.0276 135.379C65.9115 132.507 66.3142 130.11 66.4901 128.772C66.6258 127.74 67.2829 126.835 68.2431 126.434C69.1991 126.036 70.3076 126.184 70.7718 128.53C71.2 130.699 69.7481 134.72 67.6708 138.478Z" fill="#50B5B2"/>
<path d="M125.099 121.494C121.245 123.38 116.38 124.754 113.915 124.362C113.606 124.313 113.392 124.029 113.428 123.717C113.457 123.486 113.619 123.293 113.841 123.23C117.815 122.085 121.169 120.154 123.625 118.41L125.099 121.494Z" fill="#50B5B2"/>
<path d="M110.98 131.032C115.834 134.377 118.644 139.057 119.598 140.848C119.948 141.507 120.618 141.95 121.364 141.976C122.106 142.001 122.814 141.624 122.534 139.932C122.021 136.835 114.725 130.72 111.338 130.156C111.081 130.114 110.838 130.282 110.785 130.536C110.744 130.727 110.821 130.922 110.98 131.032Z" fill="#38A6A0"/>
<path d="M129.957 131.663C125.219 132.892 114.632 130.558 109.661 127.602L109.163 125.215C116.58 127.597 123.759 127.322 127.674 126.883L129.957 131.663Z" fill="#25968E"/>
<path d="M116.296 119.071C117.321 119.071 118.153 118.24 118.153 117.214C118.153 116.189 117.321 115.357 116.296 115.357C115.27 115.357 114.439 116.189 114.439 117.214C114.439 118.24 115.27 119.071 116.296 119.071Z" fill="#25968E"/>
<path d="M130.196 143.287C131.909 143.287 133.297 141.899 133.297 140.186C133.297 138.473 131.909 137.085 130.196 137.085C128.484 137.085 127.095 138.473 127.095 140.186C127.095 141.899 128.484 143.287 130.196 143.287Z" fill="#38A6A0"/>
<path d="M118.898 155.092C118.362 154.762 117.902 154.497 117.54 154.298C116.753 153.865 116.232 153.053 116.213 152.157C116.192 151.264 116.658 150.419 118.689 150.783C120.062 151.029 121.917 152.396 123.742 154.23L118.898 155.092Z" fill="#38A6A0"/>
<path d="M140.985 154.75L140.934 154.774C140.767 154.504 140.477 154.271 140.078 154.076C140.19 153.898 140.303 153.724 140.417 153.559L140.985 154.75Z" fill="#25968E"/>
<path d="M134.476 153.259C133.863 150.005 132.89 147.237 131.612 145.972C129.675 144.053 128.534 144.623 127.888 145.607C127.237 146.599 127.195 147.873 127.727 148.933C128.219 149.914 128.946 151.481 129.685 153.49L134.476 153.259Z" fill="#25968E"/>
<path d="M94.5567 127.452C94.5185 127.458 94.4825 127.463 94.4443 127.463C94.2536 127.463 94.0734 127.369 93.9653 127.208C91.0063 122.785 87.1209 119.734 84.4629 117.99L86.4405 114.768C90.1393 117.659 94.544 123.649 95.023 126.793C95.0697 127.102 94.864 127.393 94.5567 127.452Z" fill="#38A6A0"/>
<path d="M102.268 127.559C103.976 121.916 107.582 117.817 108.998 116.363C109.519 115.829 109.737 115.057 109.534 114.339C109.333 113.624 108.758 113.065 107.232 113.847C104.436 115.278 100.833 124.087 101.324 127.485C101.363 127.743 101.596 127.924 101.854 127.896C102.049 127.875 102.213 127.743 102.268 127.559Z" fill="#38A6A0"/>
<path d="M96.3666 108.353C99.5143 111.473 100.824 123.724 99.4019 129.859L97.2802 131.058C97.295 121.889 93.9014 114.15 92.4813 111.312C91.9492 110.252 91.9916 108.978 92.6424 107.986C93.2889 107.005 94.4292 106.434 96.3666 108.353Z" fill="#25968E"/>
<path d="M87.4894 128.556C88.5149 128.556 89.3462 127.725 89.3462 126.7C89.3462 125.674 88.5149 124.843 87.4894 124.843C86.4639 124.843 85.6326 125.674 85.6326 126.7C85.6326 127.725 86.4639 128.556 87.4894 128.556Z" fill="#25968E"/>
<path d="M105.144 109.569C106.857 109.569 108.245 108.181 108.245 106.468C108.245 104.756 106.857 103.367 105.144 103.367C103.431 103.367 102.043 104.756 102.043 106.468C102.043 108.181 103.431 109.569 105.144 109.569Z" fill="#38A6A0"/>
<path d="M87.4576 144.315C96.4068 141.736 102.959 136.129 105.286 133.923C106.14 133.111 107.365 132.782 108.495 133.117C109.621 133.45 110.49 134.37 109.224 136.765C106.905 141.149 92.9114 146.655 87.5551 145.803C87.1481 145.74 86.8662 145.365 86.9171 144.955C86.9531 144.654 87.1651 144.4 87.4576 144.315Z" fill="#50B5B2"/>
<path d="M86.4912 154.211C89.5944 155.68 93.5963 158.815 96.2056 161.785C94.8554 162.359 93.6344 162.932 92.5619 163.491C91.1417 161.475 89.1917 159.101 86.6905 156.903V156.901L86.4912 154.211Z" fill="#38A6A0"/>
<path d="M110.081 154.85C105.814 157.076 94.2321 155.231 86.3364 152.137L86.0417 148.19C95.7053 150.293 104.383 149.36 107.929 148.807C109.468 148.565 111.043 149.127 112.022 150.337C112.997 151.539 113.254 153.192 110.081 154.85Z" fill="#25968E"/>
<path d="M90.6795 138.858C92.0258 138.858 93.1172 137.766 93.1172 136.42C93.1172 135.074 92.0258 133.982 90.6795 133.982C89.3333 133.982 88.2419 135.074 88.2419 136.42C88.2419 137.766 89.3333 138.858 90.6795 138.858Z" fill="#38A6A0"/>
<path d="M102.185 89.0957C102.227 89.1233 102.276 89.1423 102.329 89.1508C102.634 89.1996 102.993 89.208 103.389 89.1826C103.391 89.1826 103.393 89.1826 103.395 89.1826L102.185 89.0957Z" fill="#25968E"/>
<path d="M100.311 93.7349C103.648 96.0347 105.579 99.2523 106.236 100.484C106.477 100.937 106.937 101.241 107.448 101.26C107.959 101.279 108.444 101.018 108.252 99.8543C107.9 97.7262 102.885 93.5229 100.555 93.135C100.379 93.1053 100.212 93.2219 100.176 93.3957C100.15 93.525 100.203 93.6585 100.311 93.7349Z" fill="#25968E"/>
<path d="M112.139 94.3621C108.913 94.6228 103.686 93.4697 100.447 91.9266L101.403 90.3687C104.141 90.9791 106.734 91.1211 108.838 91.0766H108.851L110.909 91.7888L112.139 94.3621Z" fill="#25968E"/>
<path d="M113.839 97.9193C112.913 97.7794 111.971 98.2648 111.573 99.1614C111.094 100.236 111.577 101.497 112.654 101.976C113.657 102.424 114.822 102.034 115.361 101.103L113.839 97.9193Z" fill="#25968E"/>
<path d="M140.994 154.767L114.473 99.2446L110.91 91.7876" stroke="white" stroke-width="0.635897" stroke-miterlimit="10" stroke-linecap="round" stroke-linejoin="round"/>
<path d="M147.976 58.2166C151.889 63.3928 156.881 72.414 157.417 85.1913C157.434 85.5707 157.445 85.9565 157.451 86.3444C157.47 87.1181 157.47 87.9066 157.451 88.7036C157.441 89.1741 157.424 89.6511 157.4 90.1322L160.09 90.0792L178.22 89.7252C172.384 40.0384 148.053 28.4248 135.301 28.4248C125.529 28.4248 119.454 35.3582 117.004 38.8705" stroke="white" stroke-width="0.635897" stroke-miterlimit="10" stroke-linecap="round" stroke-linejoin="round"/>
<path d="M122.975 50.3039L117.004 38.8705L111.548 28.4248L110.566 28.9441L97.6175 35.7758L95.625 36.825L106.321 55.9655" stroke="white" stroke-width="0.635897" stroke-miterlimit="10" stroke-linecap="round" stroke-linejoin="round"/>
<path d="M131.574 161.852C137.736 159.328 141.492 156.807 141.077 155.105C140.644 153.327 135.763 152.856 128.649 153.588C124.147 154.048 118.752 154.991 113.021 156.392C110.592 156.985 108.256 157.623 106.049 158.289C105.933 158.325 105.818 158.359 105.706 158.395C96.6676 161.146 89.8656 164.345 88.0088 166.732C87.5955 167.262 87.4259 167.753 87.534 168.19C87.6146 168.514 87.8414 168.798 88.2081 169.036C90.3595 170.445 97.242 170.348 106.049 168.872C106.918 168.728 107.804 168.569 108.709 168.398" stroke="white" stroke-width="0.635897" stroke-miterlimit="10" stroke-linecap="round" stroke-linejoin="round"/>
<path d="M59.7476 141.108C64.7373 143.401 68.3089 144.185 69.2076 142.907C70.9224 140.461 62.2128 131.391 49.7513 122.65C48.6512 121.878 47.5575 121.132 46.4764 120.422C36.2427 113.662 27.2321 109.701 24.6207 110.828L24.6122 110.83L24.6058 110.833L24.5995 110.835C24.3769 110.934 24.2052 111.074 24.0802 111.248C22.5498 113.427 29.3136 120.878 39.6342 128.663" stroke="white" stroke-width="0.635897" stroke-miterlimit="10" stroke-linecap="round" stroke-linejoin="round"/>
<path d="M94.1009 17.0273C90.7349 23.6746 95.7118 32.7255 97.6174 35.7736" stroke="white" stroke-width="0.635897" stroke-miterlimit="10" stroke-linecap="round" stroke-linejoin="round"/>
<path d="M94.1011 17.0284L103.074 11.7632C104.034 11.1612 105.303 11.5046 105.827 12.5093C106.295 13.4038 105.999 14.5082 105.147 15.0487L98.51 19.2604" stroke="white" stroke-width="0.635897" stroke-miterlimit="10" stroke-linecap="round" stroke-linejoin="round"/>
<path d="M104.82 19.938L104.814 19.9425" stroke="white" stroke-width="0.635897" stroke-miterlimit="10" stroke-linecap="round" stroke-linejoin="round"/>
<path d="M102.656 16.6281L105.452 15.4135C106.488 14.962 107.692 15.492 108.061 16.5645C108.133 16.7722 108.167 16.9863 108.167 17.1962C108.167 17.4314 108.122 17.6646 108.04 17.8808" stroke="white" stroke-width="0.635897" stroke-miterlimit="10" stroke-linecap="round" stroke-linejoin="round"/>
<path d="M100.729 22.6556L107.569 18.111C108.512 17.4836 109.791 17.7952 110.342 18.7851C110.833 19.6668 110.566 20.7797 109.727 21.3414L103.203 25.7248" stroke="white" stroke-width="0.635897" stroke-miterlimit="10" stroke-linecap="round" stroke-linejoin="round"/>
<path d="M103.871 27.9797L108.822 25.699L111.014 24.69C111.718 24.3657 112.144 23.6641 112.144 22.9244C112.144 22.706 112.105 22.4814 112.027 22.2651C111.73 21.4448 110.946 20.9531 110.128 20.987" stroke="white" stroke-width="0.635897" stroke-miterlimit="10" stroke-linecap="round" stroke-linejoin="round"/>
<path d="M108.822 25.7002L109.801 27.521L110.566 28.9433" stroke="white" stroke-width="0.635897" stroke-miterlimit="10" stroke-linecap="round" stroke-linejoin="round"/>
<path d="M94.1009 17.0282L90.9553 10.3492L104.525 2.97705L115.291 24.4831L109.801 27.5205" stroke="white" stroke-width="0.635897" stroke-miterlimit="10" stroke-linecap="round" stroke-linejoin="round"/>
<path d="M128.649 153.587L131.575 161.851L133.281 166.678L139.572 184.451L140.994 188.472L106.05 201.669L101.2 203.503C98.8089 204.404 96.2123 203.833 94.4297 202.227C93.7259 201.591 93.1452 200.796 92.7573 199.867C92.4096 199.041 92.2422 198.17 92.2422 197.311C92.2422 195.493 92.9947 193.712 94.3915 192.43L106.052 181.747L111.279 176.956L110.338 173.828L108.71 168.399L106.05 159.539L105.706 158.396" stroke="white" stroke-width="0.635897" stroke-miterlimit="10" stroke-linecap="round" stroke-linejoin="round"/>
<path d="M64.4767 134.809L38.3011 169.667L3.75706 144.839C0.863727 142.76 0.134565 138.762 2.11008 135.795C3.65743 133.469 6.49777 132.367 9.20881 133.037L31.444 138.538L46.4766 120.421C46.4766 120.421 59.0313 131.276 61.0959 139.309" stroke="white" stroke-width="0.635897" stroke-miterlimit="10" stroke-linecap="round" stroke-linejoin="round"/>
<path d="M106.047 181.743V168.872" stroke="white" stroke-width="0.635897" stroke-miterlimit="10" stroke-linecap="round" stroke-linejoin="round"/>
<path d="M191.887 99.2441H206.381V210.416H106.047V201.668" stroke="white" stroke-width="0.635897" stroke-miterlimit="10" stroke-linecap="round" stroke-linejoin="round"/>
<path d="M160.092 99.2441H136.744H114.473" stroke="white" stroke-width="0.635897" stroke-miterlimit="10" stroke-linecap="round" stroke-linejoin="round"/>
<path d="M106.047 159.538V158.29C106.047 158.29 123.212 156.719 130.534 158.913" stroke="white" stroke-width="0.635897" stroke-miterlimit="10" stroke-linecap="round" stroke-linejoin="round"/>
<path d="M178.671 93.6781L178.222 89.7271" stroke="white" stroke-width="0.635897" stroke-miterlimit="10" stroke-linecap="round" stroke-linejoin="round"/>
<path d="M178.209 95.2241H191.035C192.197 95.2241 193.138 96.1652 193.138 97.3268C193.138 98.4884 192.197 99.4295 191.035 99.4295H164.418" stroke="white" stroke-width="0.635897" stroke-miterlimit="10" stroke-linecap="round" stroke-linejoin="round"/>
<path d="M178.671 93.6773H194.782C195.944 93.6518 196.904 94.576 196.925 95.7355C196.925 95.7524 196.925 95.7651 196.925 95.7821C196.925 96.9225 196.01 97.8572 194.867 97.8805L193.051 97.9166" stroke="white" stroke-width="0.635897" stroke-miterlimit="10" stroke-linecap="round" stroke-linejoin="round"/>
<path d="M164.418 96.0339V99.243V104.044C164.418 104.64 164.177 105.184 163.787 105.574C163.393 105.964 162.854 106.206 162.256 106.206C161.061 106.206 160.092 105.237 160.092 104.042V99.2409V90.0776" stroke="white" stroke-width="0.635897" stroke-miterlimit="10" stroke-linecap="round" stroke-linejoin="round"/>
<path d="M41.2154 165.784L1.36377 137.302" stroke="white" stroke-width="0.635897" stroke-miterlimit="10" stroke-linecap="round" stroke-linejoin="round"/>
<path d="M139.572 184.449L94.4272 202.225" stroke="white" stroke-width="0.635897" stroke-miterlimit="10" stroke-linecap="round" stroke-linejoin="round"/>
<path d="M133.281 166.68L110.335 173.827" stroke="white" stroke-width="0.635897" stroke-miterlimit="10" stroke-linecap="round" stroke-linejoin="round"/>
<path d="M52.2588 151.079L33.2222 136.398" stroke="white" stroke-width="0.635897" stroke-miterlimit="10" stroke-linecap="round" stroke-linejoin="round"/>
<path d="M107.099 81.0796L69.1462 142.963" stroke="white" stroke-width="0.635897" stroke-miterlimit="10" stroke-linecap="round" stroke-linejoin="round"/>
<path d="M24.0845 111.252L24.608 110.836L24.6144 110.834L24.6229 110.832L86.2137 62.3237C91.9537 57.8025 99.1139 55.5705 106.321 55.9669C107.588 56.0326 108.858 56.1831 110.123 56.4162L157.419 85.1927" stroke="white" stroke-width="0.635897" stroke-miterlimit="10" stroke-linecap="round" stroke-linejoin="round"/>
<path d="M102.385 88.8319L110.91 91.7846L128.374 97.8299C131.131 98.7837 133.957 99.2416 136.744 99.2416C144.82 99.2416 152.58 95.4029 157.451 88.7026" stroke="white" stroke-width="0.635897" stroke-miterlimit="10" stroke-linecap="round" stroke-linejoin="round"/>
<path d="M87.532 168.19L83.8862 119.269" stroke="white" stroke-width="0.635897" stroke-miterlimit="10" stroke-linecap="round" stroke-linejoin="round"/>
<path d="M136.878 26.7511C138.467 26.7511 139.756 25.4624 139.756 23.8726C139.756 22.2829 138.467 20.9941 136.878 20.9941C135.288 20.9941 133.999 22.2829 133.999 23.8726C133.999 25.4624 135.288 26.7511 136.878 26.7511Z" stroke="white" stroke-width="0.635897" stroke-miterlimit="10" stroke-linecap="round"/>
<path d="M134.22 21.2878C134.22 21.8707 134.695 22.3434 135.275 22.3434H135.277C135.301 22.8797 135.744 23.3057 136.284 23.3057C136.295 23.3057 136.308 23.3057 136.318 23.3036C136.356 23.3884 136.407 23.4711 136.473 23.5453C136.679 23.7805 136.975 23.8908 137.266 23.8696C137.266 24.0858 137.34 24.2999 137.492 24.4758C137.524 24.5097 137.554 24.5415 137.59 24.5691C137.357 25.0205 137.412 25.5886 137.766 25.9913C138.232 26.5234 139.042 26.5764 139.572 26.11C139.93 25.7963 140.07 25.3279 139.983 24.8955C140.047 24.8573 140.108 24.8149 140.163 24.7641C140.627 24.3571 140.695 23.6682 140.339 23.1807C140.621 22.6677 140.566 22.0128 140.159 21.5485C139.847 21.1924 139.396 21.0292 138.957 21.0674C138.917 20.9741 138.86 20.8851 138.788 20.8024C138.47 20.44 137.959 20.3467 137.541 20.5396C137.499 20.3997 137.427 20.2704 137.325 20.1538C136.939 19.7129 136.267 19.6684 135.824 20.0563C135.744 20.1263 135.676 20.2068 135.625 20.2937C135.515 20.2556 135.396 20.2344 135.273 20.2344C134.692 20.2301 134.22 20.7049 134.22 21.2878Z" fill="white" stroke="white" stroke-width="0.635897" stroke-miterlimit="10"/>
<path d="M89.637 1L90.9554 7.57729" stroke="white" stroke-width="0.635897" stroke-miterlimit="10" stroke-linecap="round"/>
<path d="M88.0175 14.5874L78.3137 17.0292" stroke="white" stroke-width="0.635897" stroke-miterlimit="10" stroke-linecap="round"/>
<path d="M88.0176 10.4897L79.2825 7.14697" stroke="white" stroke-width="0.635897" stroke-miterlimit="10" stroke-linecap="round"/>
<path d="M103.364 8.02335C103.755 8.02335 104.072 7.70639 104.072 7.31539C104.072 6.92439 103.755 6.60742 103.364 6.60742C102.973 6.60742 102.656 6.92439 102.656 7.31539C102.656 7.70639 102.973 8.02335 103.364 8.02335Z" stroke="white" stroke-width="0.635897" stroke-miterlimit="10"/>
<path d="M65.6551 72.3486L37.3386 94.8064" stroke="white" stroke-width="0.635897" stroke-miterlimit="10" stroke-linecap="round" stroke-linejoin="round"/>
<path d="M58.866 70.895L43.6978 82.7736" stroke="white" stroke-width="0.635897" stroke-miterlimit="10" stroke-linecap="round" stroke-linejoin="round"/>
<path d="M212.026 135.031V178.759" stroke="white" stroke-width="0.635897" stroke-miterlimit="10" stroke-linecap="round" stroke-linejoin="round"/>
<path d="M218.031 139.189V167.603" stroke="white" stroke-width="0.635897" stroke-miterlimit="10" stroke-linecap="round" stroke-linejoin="round"/>
<path d="M160.092 36.3853C160.092 36.3853 166.199 40.313 169.273 48.6835" stroke="white" stroke-width="0.635897" stroke-miterlimit="10" stroke-linecap="round" stroke-linejoin="round"/>
<path d="M164.681 35.9492C164.681 35.9492 168.789 38.7027 170.508 43.6309" stroke="white" stroke-width="0.635897" stroke-miterlimit="10" stroke-linecap="round" stroke-linejoin="round"/>
<path d="M72.4127 64.2976C73.3317 64.2976 74.0766 63.5526 74.0766 62.6337C74.0766 61.7147 73.3317 60.9697 72.4127 60.9697C71.4937 60.9697 70.7488 61.7147 70.7488 62.6337C70.7488 63.5526 71.4937 64.2976 72.4127 64.2976Z" fill="white"/>
<path d="M160.092 32.0206C160.942 32.0206 161.631 31.3316 161.631 30.4817C161.631 29.6318 160.942 28.9429 160.092 28.9429C159.242 28.9429 158.553 29.6318 158.553 30.4817C158.553 31.3316 159.242 32.0206 160.092 32.0206Z" fill="white"/>
<path d="M223.338 133.25C225.174 133.25 226.662 131.762 226.662 129.926C226.662 128.091 225.174 126.603 223.338 126.603C221.503 126.603 220.015 128.091 220.015 129.926C220.015 131.762 221.503 133.25 223.338 133.25Z" fill="white"/>
<path d="M218.031 177.291C219.127 177.291 220.015 176.403 220.015 175.307C220.015 174.212 219.127 173.323 218.031 173.323C216.935 173.323 216.047 174.212 216.047 175.307C216.047 176.403 216.935 177.291 218.031 177.291Z" fill="white"/>
<path d="M77.0164 146.26C77.7738 146.26 78.3879 145.646 78.3879 144.889C78.3879 144.131 77.7738 143.517 77.0164 143.517C76.259 143.517 75.645 144.131 75.645 144.889C75.645 145.646 76.259 146.26 77.0164 146.26Z" fill="white"/>
<path d="M31.4947 138.428C31.4947 138.428 22.9567 120.008 18.533 127.569C14.1093 135.127 31.4947 138.428 31.4947 138.428Z" stroke="white" stroke-width="0.635897" stroke-miterlimit="10" stroke-linejoin="round"/>
<path d="M31.4948 138.427C31.4948 138.427 11.7524 144.425 18.5649 149.93C25.3754 155.437 31.4948 138.427 31.4948 138.427Z" stroke="white" stroke-width="0.635897" stroke-miterlimit="10" stroke-linejoin="round"/>
<path d="M31.4948 138.427C31.4948 138.427 17.0176 139.39 10.1689 138.22" stroke="white" stroke-width="0.635897" stroke-miterlimit="10" stroke-linejoin="round"/>
<path d="M30.437 138.492C30.437 138.492 18.3889 144.268 11.3877 143.831" stroke="white" stroke-width="0.635897" stroke-miterlimit="10" stroke-linejoin="round"/>
<path d="M111.52 176.995C111.52 176.995 102.982 158.575 98.5586 166.136C94.1349 173.695 111.52 176.995 111.52 176.995Z" stroke="white" stroke-width="0.635897" stroke-miterlimit="10" stroke-linejoin="round"/>
<path d="M106.719 168.758C104.027 165.085 100.776 162.346 98.5587 166.136C97.7299 167.554 97.6663 168.822 98.1115 169.945" stroke="white" stroke-width="0.635897" stroke-miterlimit="10" stroke-linejoin="round"/>
<path d="M111.52 176.994C111.52 176.994 91.7778 182.993 98.5903 188.498C105.403 194.004 111.52 176.994 111.52 176.994Z" stroke="white" stroke-width="0.635897" stroke-miterlimit="10" stroke-linejoin="round"/>
<path d="M111.52 176.995C111.52 176.995 97.0429 177.958 90.1943 176.788" stroke="white" stroke-width="0.635897" stroke-miterlimit="10" stroke-linejoin="round"/>
<path d="M110.463 177.058C110.463 177.058 98.4146 182.834 91.4133 182.398" stroke="white" stroke-width="0.635897" stroke-miterlimit="10" stroke-linejoin="round"/>
<path d="M90.2009 16.0395C90.2009 15.6241 91.0721 15.3846 91.2205 15.0242C91.3752 14.6491 90.9364 13.8669 91.2184 13.5829C91.5003 13.301 92.2845 13.7418 92.6597 13.585C93.0201 13.4345 93.2596 12.5654 93.675 12.5654C94.0905 12.5654 94.33 13.4366 94.6904 13.585C95.0655 13.7397 95.8477 13.301 96.1317 13.5829C96.4136 13.8648 95.9727 14.6491 96.1296 15.0242C96.2801 15.3846 97.1492 15.6241 97.1492 16.0395C97.1492 16.455 96.278 16.6945 96.1296 17.0549C95.9749 17.43 96.4136 18.2122 96.1317 18.4962C95.8498 18.7781 95.0655 18.3373 94.6904 18.4941C94.33 18.6446 94.0905 19.5137 93.675 19.5137C93.2596 19.5137 93.0201 18.6425 92.6597 18.4941C92.2845 18.3394 91.5024 18.7781 91.2184 18.4962C90.9364 18.2143 91.3773 17.43 91.2205 17.0549C91.0721 16.6945 90.2009 16.455 90.2009 16.0395Z" fill="#FFE4AF"/>
<path d="M71.0435 119.269C71.0435 117.819 74.0809 116.984 74.6045 115.723C75.1471 114.415 73.6104 111.68 74.5939 110.697C75.5795 109.711 78.3139 111.248 79.6196 110.708C80.8808 110.184 81.7159 107.146 83.1658 107.146C84.6156 107.146 85.4508 110.184 86.712 110.708C88.0198 111.25 90.752 109.713 91.7377 110.697C92.7233 111.683 91.1865 114.417 91.7271 115.723C92.2506 116.984 95.2881 117.819 95.2881 119.269C95.2881 120.719 92.2506 121.554 91.7271 122.815C91.1844 124.123 92.7212 126.855 91.7377 127.841C90.752 128.826 88.0177 127.29 86.712 127.83C85.4508 128.354 84.6156 131.391 83.1658 131.391C81.7159 131.391 80.8808 128.354 79.6196 127.83C78.3118 127.287 75.5774 128.824 74.5939 127.841C73.6082 126.855 75.145 124.121 74.6045 122.815C74.0809 121.554 71.0435 120.719 71.0435 119.269Z" fill="#FFE4AF"/>
<path d="M73.8564 119.437C73.8564 118.321 76.1957 117.678 76.5989 116.706C77.0168 115.699 75.8333 113.593 76.5908 112.836C77.3498 112.077 79.4557 113.26 80.4613 112.844C81.4325 112.441 82.0757 110.102 83.1923 110.102C84.3089 110.102 84.9521 112.441 85.9234 112.844C86.9306 113.262 89.0348 112.078 89.7939 112.836C90.5529 113.595 89.3694 115.701 89.7857 116.706C90.1889 117.678 92.5282 118.321 92.5282 119.437C92.5282 120.554 90.1889 121.197 89.7857 122.168C89.3678 123.176 90.5513 125.28 89.7939 126.039C89.0348 126.798 86.9289 125.615 85.9234 126.031C84.9521 126.434 84.3089 128.773 83.1923 128.773C82.0757 128.773 81.4325 126.434 80.4613 126.031C79.454 125.613 77.3482 126.796 76.5908 126.039C75.8317 125.28 77.0152 123.174 76.5989 122.168C76.1957 121.197 73.8564 120.554 73.8564 119.437Z" fill="#FFBB38"/>
</svg>
